<svg xmlns="http://www.w3.org/2000/svg" viewBox="0 0 512 512"><path d="M0 0h512v512H0V0z"/><path d="M446.3 189.8c-19.5-.1-42.3 9.8-60.9 28.4-5.8 5.8-10.7 12-14.8 18.3-28.7-17.3-69.8-18.3-110.2-8 0-.1 0-.2-.1-.3-12.4 3.1-24.7 7.2-36.7 12.3l.2.4c-87.3 37.5-151.9 124-48 202.1H46l-28.8 52h279.9l-96.3-112.4c26.4-29.1 73.4-47.6 105.6-49.1 15 49.1 39.4 123.5 78.1 161.4h66.2c-46.9-50.7-83.3-118.7-89.2-195.8 1.8 3.5 4 6.8 6.8 9.6 20.3 20.3 60.9 12.7 90.7-17.1 29.8-29.8 37.4-70.3 17.1-90.7-7.6-7.4-18.1-11.1-29.8-11.1z" fill="#fff"/></svg>
