<svg xmlns="http://www.w3.org/2000/svg" xmlns:xlink="http://www.w3.org/1999/xlink" viewBox="0 0 134.3 47.1"><style>.st1,.st2,.st3,.st4,.st5{clip-path:url(#SVGID_4_)}.st2{stroke:#000;stroke-width:1.6559;stroke-miterlimit:10;fill:none}.st3,.st4,.st5{fill:#fff}.st4,.st5{fill:none;stroke:#000;stroke-width:1.035;stroke-miterlimit:10}.st5{stroke-width:1.025}</style><defs><path id="SVGID_1_" d="M0 0h134.3v47.1H0z"/></defs><clipPath id="SVGID_2_"><use xlink:href="#SVGID_1_" overflow="visible"/></clipPath><g clip-path="url(#SVGID_2_)"><defs><path id="SVGID_3_" d="M0 0h134.3v47.1H0z"/></defs><clipPath id="SVGID_4_"><use xlink:href="#SVGID_3_" overflow="visible"/></clipPath><path class="st1" d="M63.4 26.5c0 1.4-7.8 3.2-17.4 3.2-9.6 0-17.4-1.8-17.4-3.2 0-1.4 7.8-2.5 17.4-2.5 9.6.1 17.4 1.2 17.4 2.5"/><path class="st2" d="M63.4 26.5c0 1.4-7.8 3.2-17.4 3.2-9.6 0-17.4-1.8-17.4-3.2 0-1.4 7.8-2.5 17.4-2.5 9.6.1 17.4 1.2 17.4 2.5z"/><path class="st1" d="M35 24.7c.3 1.3-7 4.7-16.4 6.6-9.4 1.9-17.4 1.7-17.7.3-.3-1.3 7.2-4 16.6-5.9 9.4-1.9 17.3-2.4 17.5-1"/><path class="st2" d="M35 24.7c.3 1.3-7 4.7-16.4 6.6-9.4 1.9-17.4 1.7-17.7.3-.3-1.3 7.2-4 16.6-5.9 9.4-1.9 17.3-2.4 17.5-1z"/><path class="st1" d="M125.6 21.3c0 1.4-7.8 3.2-17.4 3.2-9.6 0-17.4-1.8-17.4-3.2 0-1.4 7.8-2.5 17.4-2.5 9.6 0 17.4 1.1 17.4 2.5"/><path class="st2" d="M125.6 21.3c0 1.4-7.8 3.2-17.4 3.2-9.6 0-17.4-1.8-17.4-3.2s7.8-2.5 17.4-2.5c9.6 0 17.4 1.1 17.4 2.5z"/><path class="st1" d="M87.7 16.3c0 1.4-7.8 3.2-17.4 3.2-9.6 0-17.4-1.8-17.4-3.2 0-1.4 7.8-2.5 17.4-2.5 9.6 0 17.4 1.1 17.4 2.5"/><path class="st2" d="M87.7 16.3c0 1.4-7.8 3.2-17.4 3.2-9.6 0-17.4-1.8-17.4-3.2 0-1.4 7.8-2.5 17.4-2.5 9.6 0 17.4 1.1 17.4 2.5z"/><path class="st1" d="M.9 31.6l.7 7.2 124 3.1V21.3H90.8s-.5-11.4.5-12.4-38.4 8.4-38.4 8.4v8.6s-17.8 3.5-17.8 0C35 22.3.9 31.6.9 31.6"/><path class="st2" d="M.9 31.6l.7 7.2 124 3.1V21.3H90.8s-.5-11.4.5-12.4-38.4 8.4-38.4 8.4v8.6s-17.8 3.5-17.8 0C35 22.3.9 31.6.9 31.6z"/><path class="st1" d="M134.3 41.9c0 1.7-8.7 3-19.5 3s-19.5-1.3-19.5-3 8.7-3 19.5-3 19.5 1.3 19.5 3"/><path class="st1" d="M102.1 44.1c0 1.7-11.3 3-25.2 3-13.9 0-25.2-1.3-25.2-3s11.3-3 25.2-3c14 0 25.2 1.4 25.2 3M60.1 38.7c0 1.7-8 3-17.9 3-9.9 0-17.9-1.3-17.9-3s8-3 17.9-3c9.9 0 17.9 1.4 17.9 3"/><path class="st1" d="M38.2 35.2c.1 1.6-7.7 3.7-17.6 4.5-9.9.8-18 .2-18.1-1.5-.1-1.6 7.7-3.7 17.6-4.5 9.9-.8 18-.1 18.1 1.5"/><path class="st3" d="M28.6 28.5c11.7 3.4 23.2 3.4 34.9 0v4.9c-11.7 3.4-23.2 3.4-34.9 0v-4.9z"/><path class="st4" d="M28.6 28.5c11.7 3.4 23.2 3.4 34.9 0v4.9c-11.7 3.4-23.2 3.4-34.9 0v-4.9z"/><path class="st1" d="M63.4 32.9c-4.4.9-8.8 1.4-13.3 1.5 4.6-.8 8.9-1.9 13.3-3.5v2z"/><path class="st1" d="M63.4 30.9c-4.4.9-8.8 1.4-13.3 1.5 4.6-.8 8.9-1.9 13.3-3.5v2zM29 31c4.4 1.6 8.7 2.7 13.3 3.4-4.5 0-8.9-.5-13.3-1.4v-2zM29 29c4.4 1.6 8.7 2.7 13.3 3.4-4.5-.1-8.9-.5-13.3-1.4v-2z"/><path class="st3" d="M63.4 27.8c0 1.4-7.8 3.2-17.4 3.2-9.6 0-17.4-1.8-17.4-3.2 0-1.4 7.8-2.5 17.4-2.5 9.6 0 17.4 1.1 17.4 2.5"/><path class="st5" d="M63.4 27.8c0 1.4-7.8 3.2-17.4 3.2-9.6 0-17.4-1.8-17.4-3.2s7.8-2.5 17.4-2.5c9.6 0 17.4 1.1 17.4 2.5z"/><path class="st3" d="M21.1 32.5c11.7 3.4 23.2 3.4 34.9 0v4.9c-11.7 3.4-23.2 3.4-34.9 0v-4.9"/><path class="st4" d="M21.1 32.5c11.7 3.4 23.2 3.4 34.9 0v4.9c-11.7 3.4-23.2 3.4-34.9 0v-4.9z"/><path class="st1" d="M56 37c-4.4.9-8.8 1.4-13.3 1.5 4.6-.8 8.9-1.9 13.3-3.5v2zM56 35c-4.4.9-8.8 1.4-13.3 1.5 4.6-.8 8.9-1.9 13.3-3.5v2zM21.5 35.1c4.4 1.6 8.7 2.7 13.3 3.4-4.5-.1-8.9-.5-13.3-1.4v-2zM21.5 33.1c4.4 1.6 8.7 2.7 13.3 3.4-4.5 0-8.9-.5-13.3-1.4v-2z"/><path class="st3" d="M56 31.8c0 1.4-7.8 3.2-17.4 3.2-9.6 0-17.4-1.8-17.4-3.2s7.8-2.5 17.4-2.5c9.6.1 17.4 1.2 17.4 2.5"/><path class="st5" d="M56 31.8c0 1.4-7.8 3.2-17.4 3.2-9.6 0-17.4-1.8-17.4-3.2s7.8-2.5 17.4-2.5c9.6.1 17.4 1.2 17.4 2.5z"/><path class="st3" d="M1 33.5c12.1 1 23.4-1.3 34.2-7 .4 1.9.6 2.9 1 4.8-10.8 5.7-22 7.9-34.2 7-.4-1.9-.6-2.9-1-4.8"/><path class="st4" d="M1 33.5c12.1 1 23.4-1.3 34.2-7 .4 1.9.6 2.9 1 4.8-10.8 5.7-22 7.9-34.2 7-.4-1.9-.6-2.9-1-4.8z"/><path class="st1" d="M36.1 31c-4.1 1.8-8.3 3.2-12.7 4.1 4.3-1.7 8.4-3.7 12.3-6.1.1.8.2 1.2.4 2M35.7 29c-4.1 1.8-8.3 3.2-12.7 4.1 4.3-1.7 8.4-3.7 12.3-6.1.1.8.2 1.2.4 2M1.9 36c4.6.7 9.1.9 13.7.7-4.4.9-8.7 1.3-13.3 1.3-.1-.8-.2-1.2-.4-2M1.5 34c4.6.7 9.1.9 13.7.7-4.4.9-8.7 1.3-13.3 1.3-.1-.8-.2-1.2-.4-2"/><path class="st3" d="M35 25.9c.3 1.3-7 4.7-16.4 6.6-9.4 1.9-17.4 1.7-17.7.4-.3-1.3 7.2-4 16.6-5.9 9.4-1.9 17.3-2.4 17.5-1.1"/><path class="st5" d="M35 25.9c.3 1.3-7 4.7-16.4 6.6-9.4 1.9-17.4 1.7-17.7.4-.3-1.3 7.2-4 16.6-5.9 9.4-1.9 17.3-2.4 17.5-1.1z"/><path class="st3" d="M52.3 38.1c11.7 3.4 23.2 3.4 34.9 0V43c-11.7 3.4-23.2 3.4-34.9 0v-4.9z"/><path class="st4" d="M52.3 38.1c11.7 3.4 23.2 3.4 34.9 0V43c-11.7 3.4-23.2 3.4-34.9 0v-4.9z"/><path class="st1" d="M87.2 42.6c-4.4.9-8.8 1.4-13.3 1.5 4.6-.8 8.9-1.9 13.3-3.5v2zM87.2 40.6c-4.4.9-8.8 1.4-13.3 1.5 4.6-.8 8.9-1.9 13.3-3.5v2zM52.7 40.7c4.4 1.6 8.7 2.7 13.3 3.4-4.5 0-8.9-.5-13.3-1.4v-2zM52.7 38.7c4.4 1.6 8.7 2.7 13.3 3.4-4.5-.1-8.9-.5-13.3-1.4v-2z"/><path class="st3" d="M87.2 37.5c0 1.4-7.8 3.2-17.4 3.2-9.6 0-17.4-1.8-17.4-3.2 0-1.4 7.8-2.5 17.4-2.5 9.6 0 17.4 1.1 17.4 2.5"/><path class="st5" d="M87.2 37.5c0 1.4-7.8 3.2-17.4 3.2-9.6 0-17.4-1.8-17.4-3.2S60.1 35 69.8 35c9.6 0 17.4 1.1 17.4 2.5z"/><path class="st3" d="M90.7 36c11.7 3.4 23.2 3.4 34.9 0v4.9c-11.7 3.4-23.2 3.4-34.9 0V36z"/><path class="st4" d="M90.7 36c11.7 3.4 23.2 3.4 34.9 0v4.9c-11.7 3.4-23.2 3.4-34.9 0V36z"/><path class="st1" d="M125.6 40.5c-4.4.9-8.8 1.4-13.3 1.5 4.6-.8 8.9-1.9 13.3-3.5v2zM125.6 38.5c-4.4.9-8.8 1.4-13.3 1.5 4.6-.8 8.9-1.9 13.3-3.5v2zM91.1 38.6c4.4 1.6 8.7 2.7 13.3 3.4-4.5 0-8.9-.5-13.3-1.4v-2zM91.1 36.6c4.4 1.6 8.7 2.7 13.3 3.4-4.5-.1-8.9-.5-13.3-1.4v-2z"/><path class="st3" d="M125.6 35.3c0 1.4-7.8 3.2-17.4 3.2-9.6 0-17.4-1.8-17.4-3.2 0-1.4 7.8-2.5 17.4-2.5 9.6.1 17.4 1.2 17.4 2.5"/><path class="st5" d="M125.6 35.3c0 1.4-7.8 3.2-17.4 3.2-9.6 0-17.4-1.8-17.4-3.2s7.8-2.5 17.4-2.5c9.6.1 17.4 1.2 17.4 2.5z"/><path class="st3" d="M89.2 29.8c11.7 3.4 23.2 3.4 34.9 0v4.9c-11.7 3.4-23.2 3.4-34.9 0v-4.9z"/><path class="st4" d="M89.2 29.8c11.7 3.4 23.2 3.4 34.9 0v4.9c-11.7 3.4-23.2 3.4-34.9 0v-4.9z"/><path class="st1" d="M124.1 34.3c-4.4.9-8.8 1.4-13.3 1.5 4.6-.8 8.9-1.9 13.3-3.5v2zM124.1 32.3c-4.4.9-8.8 1.4-13.3 1.5 4.6-.8 8.9-1.9 13.3-3.5v2zM89.6 32.4c4.4 1.6 8.7 2.7 13.3 3.4-4.5-.1-8.9-.5-13.3-1.4v-2zM89.6 30.4c4.4 1.6 8.7 2.7 13.3 3.4-4.5 0-8.9-.5-13.3-1.4v-2z"/><path class="st3" d="M124.1 29.2c0 1.4-7.8 3.2-17.4 3.2-9.6 0-17.4-1.8-17.4-3.2 0-1.4 7.8-2.5 17.4-2.5 9.5 0 17.4 1.1 17.4 2.5"/><path class="st5" d="M124.1 29.2c0 1.4-7.8 3.2-17.4 3.2-9.6 0-17.4-1.8-17.4-3.2s7.8-2.5 17.4-2.5c9.5 0 17.4 1.1 17.4 2.5z"/><path class="st3" d="M90.7 23.2c11.7 3.4 23.2 3.4 34.9 0v4.9c-11.7 3.4-23.2 3.4-34.9 0v-4.9z"/><path class="st4" d="M90.7 23.2c11.7 3.4 23.2 3.4 34.9 0v4.9c-11.7 3.4-23.2 3.4-34.9 0v-4.9z"/><path class="st1" d="M125.6 27.7c-4.4.9-8.8 1.4-13.3 1.5 4.6-.8 8.9-1.9 13.3-3.5v2zM125.6 25.7c-4.4.9-8.8 1.4-13.3 1.5 4.6-.8 8.9-1.9 13.3-3.5v2zM91.1 25.8c4.4 1.6 8.7 2.7 13.3 3.4-4.5-.1-8.9-.5-13.3-1.4v-2zM91.1 23.8c4.4 1.6 8.7 2.7 13.3 3.4-4.5 0-8.9-.5-13.3-1.4v-2z"/><path class="st3" d="M125.6 22.5c0 1.4-7.8 3.2-17.4 3.2-9.6 0-17.4-1.8-17.4-3.2 0-1.4 7.8-2.5 17.4-2.5 9.6.1 17.4 1.2 17.4 2.5"/><path class="st5" d="M125.6 22.5c0 1.4-7.8 3.2-17.4 3.2-9.6 0-17.4-1.8-17.4-3.2 0-1.4 7.8-2.5 17.4-2.5 9.6.1 17.4 1.2 17.4 2.5z"/><path class="st3" d="M52.8 31.6C64.5 35 76 35 87.7 31.6v4.9c-11.7 3.4-23.2 3.4-34.9 0v-4.9z"/><path class="st4" d="M52.8 31.6C64.5 35 76 35 87.7 31.6v4.9c-11.7 3.4-23.2 3.4-34.9 0v-4.9z"/><path class="st1" d="M87.7 36.1c-4.4.9-8.8 1.4-13.3 1.5 4.6-.8 8.9-1.9 13.3-3.5v2zM87.7 34.1c-4.4.9-8.8 1.4-13.3 1.5 4.6-.8 8.9-1.9 13.3-3.5v2zM53.2 34.2c4.4 1.6 8.7 2.7 13.3 3.4-4.5-.1-8.9-.5-13.3-1.4v-2zM53.2 32.2c4.4 1.6 8.7 2.7 13.3 3.4-4.5 0-8.9-.5-13.3-1.4v-2z"/><path class="st3" d="M87.7 30.9c0 1.4-7.8 3.2-17.4 3.2-9.6 0-17.4-1.8-17.4-3.2 0-1.4 7.8-2.5 17.4-2.5 9.6.1 17.4 1.2 17.4 2.5"/><path class="st5" d="M87.7 30.9c0 1.4-7.8 3.2-17.4 3.2-9.6 0-17.4-1.8-17.4-3.2s7.8-2.5 17.4-2.5c9.6.1 17.4 1.2 17.4 2.5z"/><path class="st3" d="M115.5 20.4c.4-.2.8-.3 1.2-.3h1.2c.4 0 .8.1 1.2.3.4.1.8.3 1.1.6-.4.1-.8.1-1.2.2h-1.2c-.4 0-.8-.1-1.2-.2-.3-.2-.7-.3-1.1-.6M44.6 30c.4-.2.8-.3 1.2-.3H47c.4 0 .8.1 1.2.3.4.1.8.3 1.1.6-.4.1-.8.1-1.2.2h-1.2c-.4 0-.8-.1-1.2-.2-.4-.2-.8-.4-1.1-.6M46.9 25.5c.4-.2.8-.3 1.2-.3h1.2c.4 0 .8.1 1.2.3.4.1.8.3 1.1.6-.4.1-.8.1-1.2.2h-1.2c-.4 0-.8-.1-1.2-.2-.3-.2-.7-.4-1.1-.6M102.5 25.3c-.4.2-.8.3-1.2.3h-1.2c-.4 0-.8-.1-1.2-.3-.4-.1-.8-.3-1.1-.6.4-.1.8-.1 1.2-.2h1.2c.4 0 .8.1 1.2.2.3.3.7.4 1.1.6M98.4 31.7c-.4.2-.8.3-1.2.3H96c-.4 0-.8-.1-1.2-.3-.4-.1-.8-.3-1.1-.6.5-.1.9-.1 1.3-.1h1.2c.4 0 .8.1 1.2.2.3.2.7.3 1 .5M100.1 38.5c-.4.2-.8.3-1.2.3h-1.2c-.4 0-.8-.1-1.2-.3-.4-.1-.8-.3-1.1-.6.4-.1.8-.1 1.2-.2h1.2c.4 0 .8.1 1.2.2.4.3.7.4 1.1.6M63.4 33.4c-.4.2-.8.3-1.2.3H61c-.4 0-.8-.1-1.2-.3-.4-.1-.8-.3-1.1-.6.4-.1.8-.1 1.2-.2h1.2c.4 0 .8.1 1.2.2.3.2.7.4 1.1.6M63.3 40c-.4.2-.8.3-1.2.3h-1.2c-.4 0-.8-.1-1.2-.3-.4-.1-.8-.3-1.1-.6.4-.1.8-.1 1.2-.2H61c.4 0 .8.1 1.2.2.3.3.7.4 1.1.6M23.8 25.8c.3-.3.7-.5 1.1-.6l1.2-.3c.4 0 .8-.1 1.2 0 .4.1.8.2 1.2.4-.4.2-.8.3-1.2.4-.4.1-.8.2-1.1.2-.4 0-.8.1-1.2.1-.4-.1-.8-.1-1.2-.2M12.2 33.4c-.3.3-.7.5-1.1.6l-1.2.3c-.4 0-.8.1-1.2 0-.4-.1-.8-.2-1.2-.4.4-.2.8-.3 1.2-.4.4-.1.8-.2 1.1-.2.4 0 .8-.1 1.2-.1.3 0 .7.1 1.2.2"/><path class="st1" d="M36.1 31.8l-3 2.6s-1.8 3.4-1.8 5c0 .3-9-1.3-9-1.3l.5-1.1 13.3-5.2zM101.2 42.7H90.8v-7l10.4 2.1zM99.1 37.3l-10.4-2.7.3-4.6 10.1 2zM97.3 29.8l-7.1-2.2.3-4.5 6.8 1.4z"/><path class="st1" d="M91.4 27.6l-2.2 1.6v2l9.4 1.7.5-.9-2.7-3z"/><path class="st3" d="M50.8 24.8c11.7 3.4 23.2 3.4 34.9 0v4.9c-11.7 3.4-23.2 3.4-34.9 0v-4.9z"/><path class="st4" d="M50.8 24.8c11.7 3.4 23.2 3.4 34.9 0v4.9c-11.7 3.4-23.2 3.4-34.9 0v-4.9z"/><path class="st1" d="M85.7 29.3c-4.4.9-8.8 1.4-13.3 1.5 4.6-.8 8.9-1.9 13.3-3.5v2zM85.7 27.2c-4.4.9-8.8 1.4-13.3 1.5 4.6-.8 8.9-1.9 13.3-3.5v2zM51.2 27.4c4.4 1.6 8.7 2.7 13.3 3.4-4.5-.1-8.9-.5-13.3-1.4v-2zM51.2 25.4c4.4 1.6 8.7 2.7 13.3 3.4-4.5 0-8.9-.5-13.3-1.4v-2z"/><path class="st3" d="M85.7 24.1c0 1.4-7.8 3.2-17.4 3.2-9.6 0-17.4-1.8-17.4-3.2 0-1.4 7.8-2.5 17.4-2.5 9.6 0 17.4 1.1 17.4 2.5"/><path class="st5" d="M85.7 24.1c0 1.4-7.8 3.2-17.4 3.2-9.6 0-17.4-1.8-17.4-3.2 0-1.4 7.8-2.5 17.4-2.5 9.6 0 17.4 1.1 17.4 2.5z"/><path class="st3" d="M52.8 18.2c11.7 3.4 23.2 3.4 34.9 0v4.9c-11.7 3.4-23.2 3.4-34.9 0v-4.9z"/><path class="st4" d="M52.8 18.2c11.7 3.4 23.2 3.4 34.9 0v4.9c-11.7 3.4-23.2 3.4-34.9 0v-4.9z"/><path class="st1" d="M87.7 22.7c-4.4.9-8.8 1.4-13.3 1.5 4.6-.8 8.9-1.9 13.3-3.5v2zM87.7 20.7c-4.4.9-8.8 1.4-13.3 1.5 4.6-.8 8.9-1.9 13.3-3.5v2zM53.2 20.8c4.4 1.6 8.7 2.7 13.3 3.4-4.5-.1-8.9-.5-13.3-1.4v-2zM53.2 18.8c4.4 1.6 8.7 2.7 13.3 3.4-4.5-.1-8.9-.5-13.3-1.4v-2z"/><path class="st3" d="M87.7 17.5c0 1.4-7.8 3.2-17.4 3.2-9.6 0-17.4-1.8-17.4-3.2 0-1.4 7.8-2.5 17.4-2.5 9.6.1 17.4 1.2 17.4 2.5"/><path class="st5" d="M87.7 17.5c0 1.4-7.8 3.2-17.4 3.2-9.6 0-17.4-1.8-17.4-3.2 0-1.4 7.8-2.5 17.4-2.5 9.6.1 17.4 1.2 17.4 2.5z"/><path class="st1" d="M91.3 3.3c0 1.4-7.8 3.2-17.4 3.2-9.6 0-17.4-1.8-17.4-3.2 0-1.4 7.8-2.5 17.4-2.5 9.6 0 17.4 1.1 17.4 2.5"/><path class="st2" d="M91.3 3.3c0 1.4-7.8 3.2-17.4 3.2-9.6 0-17.4-1.8-17.4-3.2 0-1.4 7.8-2.5 17.4-2.5 9.6 0 17.4 1.1 17.4 2.5z"/><path class="st3" d="M54.4 11.8c11.7 3.4 23.2 3.4 34.9 0v4.9c-11.7 3.4-23.2 3.4-34.9 0v-4.9z"/><path class="st4" d="M54.4 11.8c11.7 3.4 23.2 3.4 34.9 0v4.9c-11.7 3.4-23.2 3.4-34.9 0v-4.9z"/><path class="st1" d="M89.3 16.3c-4.4.9-8.8 1.4-13.3 1.5 4.6-.8 8.9-1.9 13.3-3.5v2zM89.3 14.2c-4.4.9-8.8 1.4-13.3 1.5 4.6-.8 8.9-1.9 13.3-3.5v2zM54.8 14.4c4.4 1.6 8.7 2.7 13.3 3.4-4.5-.1-8.9-.5-13.3-1.4v-2zM54.8 12.3c4.4 1.6 8.7 2.7 13.3 3.4-4.5 0-8.9-.5-13.3-1.4v-2z"/><path class="st3" d="M89.3 11.1c0 1.4-7.8 3.2-17.4 3.2-9.6 0-17.4-1.8-17.4-3.2 0-1.4 7.8-2.5 17.4-2.5 9.6 0 17.4 1.1 17.4 2.5"/><path class="st5" d="M89.3 11.1c0 1.4-7.8 3.2-17.4 3.2-9.6 0-17.4-1.8-17.4-3.2s7.8-2.5 17.4-2.5c9.6 0 17.4 1.1 17.4 2.5z"/><path class="st3" d="M56.5 5.2c11.7 3.4 23.2 3.4 34.9 0v4.9c-11.7 3.4-23.2 3.4-34.9 0V5.2z"/><path class="st4" d="M56.5 5.2c11.7 3.4 23.2 3.4 34.9 0v4.9c-11.7 3.4-23.2 3.4-34.9 0V5.2z"/><path class="st1" d="M91.3 9.7c-4.4.9-8.8 1.4-13.3 1.5 4.6-.8 8.9-1.9 13.3-3.5v2z"/><path class="st1" d="M91.3 7.7c-4.4.9-8.7 1.4-13.3 1.5 4.6-.8 8.9-1.9 13.3-3.5v2zM56.9 7.8c4.4 1.6 8.7 2.7 13.3 3.4-4.5 0-8.9-.5-13.3-1.4v-2zM56.9 5.8c4.4 1.6 8.7 2.7 13.3 3.4-4.5-.1-8.9-.5-13.3-1.4v-2z"/><path class="st3" d="M91.3 4.5c0 1.4-7.8 3.2-17.4 3.2-9.6 0-17.4-1.8-17.4-3.2 0-1.4 7.8-2.5 17.4-2.5 9.6.1 17.4 1.2 17.4 2.5"/><path class="st5" d="M91.3 4.5c0 1.4-7.8 3.2-17.4 3.2-9.6 0-17.4-1.8-17.4-3.2S64.3 2 73.9 2c9.6.1 17.4 1.2 17.4 2.5z"/><path class="st3" d="M76.4 15.3c.4-.2.8-.3 1.2-.3h1.2c.4 0 .8.1 1.2.3.4.1.8.3 1.1.6-.4.1-.8.1-1.2.2h-1.2c-.4 0-.8-.1-1.2-.2-.3-.3-.7-.4-1.1-.6M63.4 20.1c-.4.2-.8.3-1.2.3H61c-.4 0-.8-.1-1.2-.3-.4-.1-.8-.3-1.1-.6.4-.1.8-.1 1.2-.2h1.2c.4 0 .8.1 1.2.2.3.3.7.4 1.1.6M61.7 26.9c-.4.2-.8.3-1.2.3h-1.2c-.4 0-.8-.1-1.2-.3-.4-.1-.8-.3-1.1-.6.4-.1.8-.1 1.2-.2h1.2c.4 0 .8.1 1.2.2.4.2.8.4 1.1.6"/></g></svg>
