<svg viewBox="0 0 134 78" xmlns="http://www.w3.org/2000/svg" xmlns:xlink="http://www.w3.org/1999/xlink"><defs><path id="a" d="M.234.076h83.573V77.42H.234z"/><path id="c" d="M.05.836h133.338v63.611H.05z"/><path id="e" d="M.196.335h7.518v55.917H.196z"/><path id="g" d="M.049.076h133.34V77.42H.048"/><path id="i" d="M.098.26h43.125v11.225H.098z"/><path id="k" d="M.049.076h133.34V77.42H.048"/></defs><g fill="none" fill-rule="evenodd"><g transform="translate(24)"><mask id="b" fill="#fff"><use xlink:href="#a"/></mask><path d="M74.803 42.785c.902-.417 2.202-.718 3.54-.942a42.702 42.702 0 0 1 3.737-.428 37.968 37.968 0 0 1 1.727-.09s-.537-.115-1.353-.316a73.268 73.268 0 0 1-3.043-.828 39.249 39.249 0 0 1-1.682-.54 17.89 17.89 0 0 1-1.56-.603c-.476-.212-.89-.436-1.207-.674-.326-.238-.573-.496-.687-.775a2.157 2.157 0 0 1-.15-.66 1.862 1.862 0 0 1 .04-.603c.098-.391.334-.76.655-1.11.625-.7 1.641-1.345 2.722-1.9a27.304 27.304 0 0 1 3.08-1.33c.511-.186.93-.324 1.186-.406a50.014 50.014 0 0 1-5.241 1.188c-1.362.224-2.706.37-3.677.31-.963-.067-1.59-.317-1.48-.991.07-.388.277-.771.614-1.166.337-.391.8-.794 1.35-1.196 1.096-.808 2.498-1.602 3.908-2.302a45.604 45.604 0 0 1 5.51-2.302c-.537.149-3.885 1.072-6.201 1.49-1.255.216-2.243.294-2.28-.116-.04-.417.866-1.315 3.287-3.159-.865.231-1.742.913-2.616 1.673-.87.76-1.767 1.605-2.629 2.243-.865.644-1.702 1.095-2.498 1.166a2.246 2.246 0 0 1-1.159-.198c-.39-.171-.755-.462-1.125-.898-.991-1.091 1.012-2.656 3.035-4.314 2.02-1.646 4.059-3.363 2.844-4.932-1.556 2.228-3.624 3.837-5.566 4.604-.959.377-1.922.57-2.775.485a3.927 3.927 0 0 1-1.227-.335c-.386-.186-.736-.458-1.08-.812-.46-.51-.232-1.46.36-2.683.598-1.221 1.557-2.704 2.56-4.12a69.336 69.336 0 0 1 2.91-3.777c.723-.872 1.255-1.471 1.373-1.606-.143.12-.829.705-1.796 1.543-1.11.939-2.592 2.19-4.116 3.457-1.536 1.27-3.104 2.559-4.388 3.486-1.296.932-2.316 1.532-2.836 1.29-1.053-.422.617-2.746 2.64-5.782 1.004-1.527 2.098-3.241 2.849-5.118.752-1.89 1.138-3.927.597-6.165-.467 2.514-1.466 4.652-2.628 6.5-1.17 1.848-2.495 3.39-3.763 4.682a25.267 25.267 0 0 1-1.824 1.692c-.581.48-1.134.905-1.634 1.21-.495.306-.946.51-1.348.619-.407.104-.748.07-1.044-.082-.48-.235.467-2.306 1.77-4.609 1.28-2.298 2.992-4.805 3.317-6.325-2.268 2.824-3.418 4.124-4.088 4.318-.654.186-.83-.648-.82-1.926.016-1.267.223-2.932.434-4.28.195-1.267.394-2.25.415-2.37-.03.097-.268.935-.663 2.161a152.617 152.617 0 0 1-1.63 4.839c-.637 1.78-1.32 3.587-1.966 4.992-.645 1.393-1.251 2.444-1.824 2.615-.756.242-1.215-.637-1.597-2.146-.378-1.482-.666-3.576-.894-5.703a117.645 117.645 0 0 1-.459-5.923c-.085-1.632-.101-2.73-.101-2.73l-.37 2.164a347.42 347.42 0 0 1-.898 4.805 156.55 156.55 0 0 1-.54 2.604 42.428 42.428 0 0 1-.573 2.347c-.2.7-.402 1.304-.626 1.75-.224.455-.467.776-.748.884a1.34 1.34 0 0 1-.662.092 1.648 1.648 0 0 1-.638-.19c-.418-.223-.836-.629-1.255-1.15-.829-1.021-1.666-2.534-2.43-4.09a59.256 59.256 0 0 1-1.897-4.36 43.159 43.159 0 0 1-.614-1.66c.134.413.362 1.132.63 2.037.43 1.446.959 3.364 1.39 5.234.434 1.87.78 3.692.853 4.94.069 1.237-.11 1.937-.878 1.59-.878-.402-1.89-1.516-2.978-3.017-1.085-1.494-2.206-3.315-3.218-5.115a77.212 77.212 0 0 1-2.507-4.887c-.528-1.129-.865-1.933-.954-2.146.194.532 1.795 4.906 2.62 7.79.427 1.538.65 2.685.175 2.667-.476-.011-1.646-1.185-4.096-4.094.378 1.02 1.28 2.064 2.28 3.144.995 1.069 2.1 2.212 2.962 3.307.865 1.096 1.503 2.15 1.686 3.033.093.44.065.827-.098 1.173-.163.354-.476.641-.97.887-1.26.64-3.316-1.654-5.441-3.919-1.06-1.132-2.126-2.257-3.145-2.95-1.012-.693-1.97-.917-2.783-.302 2.649 1.65 4.72 3.938 5.732 5.897.496.976.752 1.893.655 2.645a2.299 2.299 0 0 1-.423 1.035c-.235.31-.58.574-1.028.831-.638.34-1.76.056-3.14-.525-1.382-.588-3.011-1.475-4.551-2.395a75.887 75.887 0 0 1-4.096-2.645c-1.011-.704-1.682-1.21-1.763-1.27.077.078.743.726 1.715 1.672a275.715 275.715 0 0 1 3.721 3.74c1.345 1.375 2.666 2.757 3.563 3.87.907 1.122 1.415 1.982 1.057 2.422-.666.89-2.869-.477-5.85-2.16-1.496-.835-3.186-1.744-5.027-2.329-1.848-.588-3.807-.816-5.846-.19 2.34.272 4.404 1.062 6.167 2.012a22.113 22.113 0 0 1 4.38 3.125c1.15 1.062 1.963 2.064 2.422 2.928.426.857.516 1.584.093 2.142-.309.455-2.035-.294-4.014-1.345-1.963-1.028-4.185-2.42-5.546-2.63 2.498 1.874 3.56 2.843 3.685 3.443.118.58-.622.79-1.719.842-1.084.048-2.49-.068-3.628-.194a42.92 42.92 0 0 1-1.958-.265c.166.045.837.22 1.784.492 1.092.313 2.567.76 4.038 1.26 1.475.498 2.95 1.05 4.06 1.597 1.104.544 1.905 1.088 1.961 1.643.098.738-.67 1.225-1.897 1.62-1.199.392-2.844.682-4.498.898-1.657.217-3.331.35-4.59.425-1.26.078-2.11.09-2.11.09s.675.119 1.69.327c1.012.205 2.365.492 3.718.824a49.3 49.3 0 0 1 1.991.528c.646.187 1.252.38 1.78.585.528.205.975.425 1.304.66.333.234.573.484.65.767.065.227.085.447.069.66a1.997 1.997 0 0 1-.13.61c-.154.395-.439.771-.804 1.133-.704.711-1.751 1.363-2.828 1.918a27.425 27.425 0 0 1-4.173 1.71c.293-.082.797-.224 1.43-.384a48.069 48.069 0 0 1 3.697-.775c1.33-.215 2.621-.346 3.515-.264.886.09 1.402.376 1.22 1.084-.395 1.587-2.825 3.2-5.173 4.422a33.634 33.634 0 0 1-3.242 1.449c-.72.28-1.248.45-1.422.507.45-.12 3.38-.883 5.35-1.152 1.069-.138 1.894-.141 1.955.258.073.402-.622 1.203-2.385 2.693.703-.15 1.333-.697 1.974-1.334.63-.64 1.313-1.382 1.987-1.937.675-.555 1.361-.939 1.987-.92.317.007.605.123.898.358.3.23.573.6.862 1.117.767 1.334-.594 2.522-1.943 3.74-.674.608-1.345 1.215-1.69 1.855-.341.637-.325 1.297.321 2.005.784-1.617 2.161-2.772 3.531-3.092.678-.153 1.381-.123 2.044.175.329.156.666.361 1.003.633.33.28.654.633 1.012 1.047.467.596.516 1.341.333 2.16-.183.823-.606 1.71-1.073 2.519a18.858 18.858 0 0 1-1.442 2.097c-.402.507-.703.834-.74.872.106-.075 1.792-1.3 3.616-2.362.955-.56 1.943-1.08 2.808-1.364.873-.297 1.63-.376 2.178-.022 1.121.67.203 1.647-.809 3.055-.504.704-1.028 1.516-1.239 2.466-.211.957-.073 2.008.8 3.204-.105-1.226.269-2.25.862-3.07.597-.823 1.402-1.423 2.271-1.87a7.524 7.524 0 0 1 2.645-.753c.861-.052 1.703.027 2.414.347.589.23-.029 1.002-.87 1.87-.82.857-1.91 1.814-1.926 2.492 1.524-1.032 2.434-1.446 3.051-1.434.61.022.931.406 1.093.957.313 1.025.082 2.544.053 2.723.061-.156.545-1.434 1.304-2.712.822-1.363 1.874-2.682 3.194-2.69.878-.01 1.508.366 2 .97.49.58.84 1.378 1.088 2.182.248.801.394 1.613.471 2.224.081.615.094 1.025.094 1.025s.483-1.304 1.239-2.63c.187-.332.394-.663.614-.98.223-.324.454-.633.706-.905a4 4 0 0 1 .805-.678c.288-.183.589-.328.918-.395.268-.052.52-.082.76-.094.24-.014.467-.018.687 0 .439.038.836.15 1.202.306.723.287 1.325.779 1.804 1.308a8.04 8.04 0 0 1 1.073 1.52c.146.268.244.488.296.614-.052-.145-.15-.417-.256-.767a11.785 11.785 0 0 1-.422-1.952c-.081-.712-.073-1.42.13-1.94.215-.519.605-.884 1.353-.91 1.674-.09 2.99 1.166 3.904 2.459.452.651.797 1.315 1.02 1.817.195.444.305.76.33.832-.045-.183-.451-1.934-.44-3.174.017-.649.13-1.196.545-1.297.414-.104 1.126.231 2.353 1.226-.05-.447-.504-.805-1.049-1.144-.544-.332-1.194-.678-1.657-1.032-.464-.357-.752-.737-.634-1.173.057-.224.22-.444.504-.704.28-.265.69-.548 1.251-.88 1.439-.886 2.401-.081 3.417.753 1.003.83 2.052 1.68 3.624.574-1.503-.455-2.45-1.326-2.6-2.373-.07-.514.036-1.1.378-1.714.179-.302.402-.625.687-.965.292-.331.65-.67 1.06-1.046.585-.507 1.3-.641 2.109-.548.804.093 1.686.414 2.494.79.809.38 1.556.827 2.093 1.18.504.336.825.585.865.615-.032-.04-.325-.387-.727-.92-.43-.57-.995-1.34-1.544-2.172-.553-.838-1.089-1.725-1.418-2.53-.333-.808-.48-1.541-.158-2.078.58-1.102 1.759-.2 3.368.768.808.48 1.726.98 2.823 1.2 1.11.226 2.353.148 3.885-.567-1.528.018-2.73-.365-3.71-.946-.979-.589-1.714-1.363-2.311-2.206-1.13-1.676-1.699-3.52-1.163-4.82.2-.533 1.354.1 2.593.95 1.23.838 2.53 1.922 3.425 1.982-1.406-1.498-2.068-2.384-2.1-2.958-.029-.57.483-.834 1.259-.95.768-.116 1.763-.082 2.564-.019.8.064 1.405.16 1.405.16s-.5-.137-1.251-.383c-.752-.242-1.767-.6-2.791-1.02-1.028-.422-2.072-.906-2.881-1.42-.8-.518-1.434-1.07-1.528-1.658-.15-.782.362-1.315 1.292-1.74" fill="#000" mask="url(#b)"/></g><g stroke="#000" stroke-linecap="round" stroke-linejoin="round" stroke-width="5.725"><path d="M114.183 61.754l1.93 1.021M110.946 60.093l1.93 1.021M117.45 63.352l1.93 1.022M120.719 64.95l1.93 1.022M123.987 66.548l1.93 1.022M109.058 59.142l1.93 1.022M127.328 68.464l1.93 1.022M118.727 69.222l-2.012-.85M122.06 70.68l-2.011-.85M115.422 67.7l-2.012-.848M112.117 66.18l-2.011-.85M108.813 64.659l-2.012-.85M125.525 72.092l-2.012-.849"/></g><g transform="translate(0 10)"><mask id="d" fill="#fff"><use xlink:href="#c"/></mask><path d="M126.304 61.355l.885-1.864c.434-.914-.396-1.511-1.517-2.044L96.016 42.668l-2.457 5.176 30.202 13.628c1.12.532 2.108.797 2.542-.117" fill="#000" mask="url(#d)"/><path d="M126.304 61.355l.885-1.864c.434-.914-.396-1.511-1.518-2.044L96.017 42.668l-2.457 5.176 30.202 13.628c1.12.532 2.108.798 2.542-.117z" stroke="#000" stroke-width="2.464" mask="url(#d)"/><path d="M110.288 49.78c-.238.465-.538.86-.852 1.241-.318.376-.66.727-1.02 1.056-.36.33-.742.636-1.147.918-.407.277-.83.538-1.315.731.238-.464.537-.86.852-1.24a11.313 11.313 0 0 1 2.168-1.972c.408-.278.83-.54 1.314-.733M109.536 55.053c.211-.439.484-.81.771-1.166a9.697 9.697 0 0 1 2.004-1.826c.38-.253.776-.489 1.234-.657-.21.44-.483.812-.77 1.167-.291.352-.605.678-.94.981a9.698 9.698 0 0 1-1.066.842c-.38.253-.776.49-1.233.659M116.802 53.027c-.203.43-.465.795-.743 1.14a9.156 9.156 0 0 1-1.947 1.774c-.37.246-.759.471-1.206.632.201-.43.463-.796.742-1.14a9.2 9.2 0 0 1 1.949-1.773c.37-.245.758-.472 1.205-.633M120.058 54.65c-.202.43-.464.795-.743 1.14a9.13 9.13 0 0 1-.91.957c-.324.297-.67.57-1.037.818-.37.246-.76.471-1.207.632.202-.43.463-.796.743-1.141a9.165 9.165 0 0 1 1.95-1.773 5.66 5.66 0 0 1 1.204-.633M123.315 56.273a5.07 5.07 0 0 1-.687 1.09 8.108 8.108 0 0 1-.853.904 7.93 7.93 0 0 1-.981.766 5.02 5.02 0 0 1-1.15.581c.183-.413.426-.761.686-1.09.263-.326.548-.626.855-.904.306-.278.632-.534.982-.765.351-.228.72-.438 1.148-.582M126.536 57.929a5.12 5.12 0 0 1-.692 1.094 8.238 8.238 0 0 1-1.846 1.681c-.353.23-.724.44-1.155.586.185-.415.43-.765.692-1.095a8.272 8.272 0 0 1 1.847-1.68c.353-.23.724-.44 1.154-.586M125.635 62.765l2.223-4.684a.554.554 0 0 1 .738-.263l1.877.891c.276.131.394.462.263.738l-2.223 4.684a.554.554 0 0 1-.738.263l-1.877-.891a.554.554 0 0 1-.263-.738" fill="#FFF" mask="url(#d)"/><path d="M125.635 62.765l2.223-4.684a.554.554 0 0 1 .738-.263l1.877.891c.276.131.394.462.263.738l-2.223 4.684a.554.554 0 0 1-.738.263l-1.877-.891a.554.554 0 0 1-.263-.738z" stroke="#000" stroke-width="1.883" mask="url(#d)"/><path d="M102.224 54.88l4.722-9.95S19.771 5.952 15.741 4.04C11.71 2.127 1.418 1.644 1.418 1.644s6.623 7.545 10.913 9.58c4.29 2.036 89.893 43.657 89.893 43.657" fill="#FFF" mask="url(#d)"/><path d="M102.367 55.287l-51.71-24.92L24.78 17.87 11.83 11.6c-1.119-.578-2.109-1.296-3.063-2.047a46.011 46.011 0 0 1-2.74-2.37A80.18 80.18 0 0 1 .981 2.028L.049.986l1.396.078c2.407.135 4.79.356 7.176.683 1.192.165 2.382.36 3.567.615 1.186.257 2.37.558 3.533 1.055 4.353 1.994 8.693 3.946 13.047 5.91l26.112 11.75 52.242 23.46.402.18-.189.398a528.246 528.246 0 0 1-4.968 10.172zm-.286-.813a479.446 479.446 0 0 1 4.476-9.728l.214.578L54.44 22.059 28.283 10.406C23.93 8.462 19.555 6.515 15.226 4.55c-1.02-.432-2.158-.724-3.299-.965a47.813 47.813 0 0 0-3.478-.586 88.45 88.45 0 0 0-7.064-.646l.567-1.178a79.063 79.063 0 0 0 4.934 5.084 44.677 44.677 0 0 0 2.657 2.314c.912.725 1.86 1.411 2.849 1.926l12.782 6.255L50.78 29.3l51.302 25.175z" fill="#000" mask="url(#d)"/><path d="M104.907 50.634c-1.161-.19-2.246-.541-3.309-.941-.53-.202-1.053-.42-1.568-.656a12.817 12.817 0 0 1-1.507-.784c-.972-.592-1.874-1.337-2.859-1.902-.49-.288-1.005-.524-1.516-.768l-1.532-.73-12.262-5.845c-8.166-3.915-16.374-7.739-24.563-11.604L31.2 15.862l-12.286-5.793C14.82 8.136 10.714 6.226 6.69 4.145c4.178 1.755 8.276 3.679 12.385 5.581l12.324 5.711 24.627 11.467c8.217 3.805 16.415 7.65 24.656 11.405l12.348 5.66 1.544.707c.514.235 1.025.479 1.56.67 1.066.394 2.216.608 3.293.975.54.181 1.061.403 1.57.653.51.244 1.013.505 1.508.783.988.559 1.953 1.165 2.843 1.934l-.44.943z" fill="#000" mask="url(#d)"/><path d="M95.615 59.256c.278-1.07 4.431-1.188 5.26-1.394.349-.087.622-.376.728-.732.56-1.89 1.577-4.476 2.9-7.263 1.323-2.788 2.684-5.211 3.793-6.84.209-.308.26-.702.106-1.027-.364-.772-2.898-4.064-2.245-4.956.578-.788 6.38 4.81 5.812 6.009-.289.607-.365-.029-1.032.141-.358.09-.637.387-.746.752-.561 1.888-.915 4.78-2.234 7.56-1.32 2.779-3.337 4.882-4.444 6.511-.214.315-.267.718-.111 1.053.29.624.831.281.543.889-.57 1.2-8.575.243-8.33-.703" fill="#FFF" mask="url(#d)"/><path d="M95.615 59.256c.278-1.07 4.431-1.188 5.26-1.394.348-.087.622-.376.728-.732.56-1.89 1.577-4.476 2.9-7.263 1.323-2.788 2.684-5.211 3.793-6.84.209-.308.26-.702.106-1.027-.364-.772-2.898-4.064-2.245-4.956.578-.789 6.38 4.81 5.812 6.009-.289.607-.365-.029-1.032.141-.358.09-.637.387-.746.752-.561 1.888-.915 4.78-2.234 7.56-1.32 2.779-3.337 4.882-4.444 6.511-.214.315-.267.718-.111 1.053.29.624.831.281.543.889-.57 1.2-8.575.243-8.33-.703z" stroke="#000" stroke-width="1.766" mask="url(#d)"/><g mask="url(#d)"><path d="M128.872 63.374c1.073.51 2.28.213 2.695-.663.416-.875-.117-1.998-1.19-2.507" fill="#FFF"/><path d="M128.872 63.374c1.073.51 2.28.213 2.695-.663.416-.875-.117-1.998-1.19-2.507" stroke="#000" stroke-width="1.883"/></g><path d="M18.944 51.754l-1.93 1.021M22.18 50.093l-1.93 1.021M15.675 53.352l-1.93 1.022M12.408 54.95l-1.93 1.022M9.14 56.548L7.21 57.57M24.068 49.142l-1.93 1.022M5.798 58.464l-1.93 1.022M14.4 59.222l2.011-.85M11.066 60.68l2.012-.85M17.704 57.7l2.012-.848M21.009 56.18l2.012-.85M24.313 54.658l2.012-.849M7.601 62.092l2.012-.849" stroke="#000" stroke-width="5.725" stroke-linecap="round" stroke-linejoin="round" mask="url(#d)"/><path d="M6.822 61.355l-.885-1.864c-.434-.914.397-1.511 1.518-2.044l29.654-14.779 2.457 5.176L9.365 61.472c-1.122.532-2.109.797-2.543-.117" fill="#000" mask="url(#d)"/><path d="M6.822 61.355l-.884-1.864c-.435-.914.396-1.511 1.517-2.044l29.654-14.779 2.457 5.176L9.365 61.472c-1.121.532-2.109.798-2.543-.117z" stroke="#000" stroke-width="2.464" mask="url(#d)"/><path d="M22.838 49.78c.484.195.906.456 1.314.733a11.313 11.313 0 0 1 2.169 1.972c.314.38.614.777.851 1.241-.485-.193-.907-.454-1.315-.731a11.094 11.094 0 0 1-1.146-.918c-.361-.329-.702-.68-1.02-1.056-.315-.38-.615-.776-.853-1.24M23.59 55.053c-.456-.17-.852-.406-1.233-.659a9.698 9.698 0 0 1-2.005-1.823c-.288-.355-.56-.727-.77-1.167.457.168.853.404 1.233.657a9.697 9.697 0 0 1 2.004 1.826c.287.355.56.727.771 1.166M16.325 53.027c.447.161.834.387 1.205.633a9.209 9.209 0 0 1 1.949 1.772c.279.345.54.711.742 1.141a5.577 5.577 0 0 1-1.206-.632 9.145 9.145 0 0 1-1.947-1.774 5.653 5.653 0 0 1-.744-1.14M13.068 54.65a5.66 5.66 0 0 1 1.205.633 9.165 9.165 0 0 1 1.95 1.773c.279.345.54.71.742 1.141a5.594 5.594 0 0 1-1.206-.632 8.981 8.981 0 0 1-1.037-.818 9.13 9.13 0 0 1-.91-.956 5.668 5.668 0 0 1-.744-1.141M9.811 56.273a5.07 5.07 0 0 1 1.149.581c.35.232.675.488.981.766.307.278.592.578.855.904.26.328.503.677.686 1.09a5.025 5.025 0 0 1-1.15-.58 7.93 7.93 0 0 1-.98-.767 8.098 8.098 0 0 1-.854-.905 5.066 5.066 0 0 1-.687-1.089M6.59 57.929c.43.146.801.356 1.155.586a8.264 8.264 0 0 1 1.846 1.68c.263.33.507.68.692 1.095a5.077 5.077 0 0 1-1.155-.586 8.247 8.247 0 0 1-1.846-1.681 5.12 5.12 0 0 1-.691-1.094M7.491 62.765l-2.223-4.684a.554.554 0 0 0-.738-.263l-1.876.891a.554.554 0 0 0-.264.738l2.223 4.684a.554.554 0 0 0 .738.263l1.878-.891a.554.554 0 0 0 .262-.738" fill="#FFF" mask="url(#d)"/><path d="M7.491 62.765l-2.223-4.684a.554.554 0 0 0-.738-.263l-1.876.891a.554.554 0 0 0-.264.738l2.223 4.684a.554.554 0 0 0 .738.263l1.878-.891a.554.554 0 0 0 .262-.738z" stroke="#000" stroke-width="1.883" mask="url(#d)"/><path d="M30.902 54.88l-4.722-9.95s87.176-38.978 91.206-40.89c4.03-1.913 14.322-2.396 14.322-2.396s-6.623 7.545-10.912 9.58c-4.29 2.036-89.894 43.657-89.894 43.657" fill="#FFF" mask="url(#d)"/><path d="M31.045 54.474l51.31-25.11 25.63-12.518 12.8-6.246c1.002-.52 1.955-1.208 2.871-1.934a44.64 44.64 0 0 0 2.667-2.318 79.118 79.118 0 0 0 4.95-5.087l.463.962a88.73 88.73 0 0 0-7.075.655c-1.172.16-2.339.348-3.487.592-1.145.243-2.286.537-3.32.976-4.329 1.97-8.7 3.922-13.05 5.872L78.66 22 26.355 45.324l.214-.578c1.535 3.222 3 6.441 4.476 9.728zm-.286.813a529.978 529.978 0 0 1-4.968-10.172l-.189-.398.402-.18 52.216-23.52 26.098-11.779c4.353-1.97 8.688-3.925 13.041-5.925 1.177-.504 2.365-.807 3.554-1.067a49.34 49.34 0 0 1 3.576-.62c2.39-.33 4.773-.554 7.186-.692l1.714-.098-1.147 1.276a80.438 80.438 0 0 1-5.058 5.161 46.199 46.199 0 0 1-2.75 2.373c-.959.751-1.953 1.472-3.086 2.056l-12.968 6.26-25.904 12.47-51.717 24.855z" fill="#000" mask="url(#d)"/><path d="M27.779 49.691c.89-.769 1.855-1.376 2.844-1.934.495-.278.998-.54 1.508-.783.508-.25 1.03-.471 1.569-.653 1.078-.367 2.228-.58 3.293-.974.535-.192 1.046-.436 1.561-.671l1.543-.708 12.349-5.66c8.24-3.754 16.438-7.6 24.656-11.404l24.627-11.467 12.324-5.711c4.108-1.902 8.207-3.826 12.384-5.58-4.025 2.08-8.13 3.99-12.224 5.923l-12.286 5.793-24.592 11.542c-8.189 3.865-16.397 7.689-24.563 11.604l-12.261 5.845-1.533.73c-.51.244-1.025.48-1.516.767-.985.566-1.886 1.31-2.859 1.902-.486.298-.99.556-1.507.785-.515.236-1.038.454-1.568.656-1.063.4-2.147.752-3.308.941l-.441-.943z" fill="#000" mask="url(#d)"/><path d="M37.51 59.256c-.277-1.07-4.43-1.188-5.258-1.394-.35-.087-.622-.376-.728-.732-.561-1.89-1.578-4.476-2.9-7.263-1.324-2.788-2.684-5.211-3.793-6.84-.21-.308-.26-.702-.107-1.027.364-.772 2.898-4.064 2.245-4.956-.577-.788-6.38 4.81-5.811 6.009.288.607.364-.029 1.032.141.357.09.636.387.745.752.562 1.888.916 4.78 2.234 7.56 1.32 2.779 3.337 4.882 4.444 6.511.214.315.267.718.111 1.053-.29.624-.83.281-.543.889.57 1.2 8.575.243 8.33-.703" fill="#FFF" mask="url(#d)"/><path d="M37.51 59.256c-.277-1.07-4.43-1.188-5.258-1.394-.35-.087-.622-.376-.728-.732-.561-1.89-1.578-4.476-2.9-7.263-1.324-2.788-2.684-5.211-3.793-6.84-.21-.308-.26-.702-.107-1.027.364-.772 2.898-4.064 2.245-4.956-.577-.789-6.38 4.81-5.811 6.009.288.607.364-.029 1.032.141.357.09.636.387.745.752.562 1.888.916 4.78 2.234 7.56 1.32 2.779 3.337 4.882 4.444 6.511.214.315.267.718.111 1.053-.29.624-.83.281-.543.889.57 1.2 8.575.243 8.33-.703z" stroke="#000" stroke-width="1.766" mask="url(#d)"/><g mask="url(#d)"><path d="M4.254 63.374c-1.073.51-2.28.213-2.695-.663-.415-.875.118-1.998 1.19-2.507" fill="#FFF"/><path d="M4.254 63.374c-1.073.51-2.28.213-2.695-.663-.415-.875.118-1.998 1.19-2.507" stroke="#000" stroke-width="1.883"/></g><path d="M46.181 58.274c4.531-.96 14.873-1.5 20.724-1.537 6.412-.04 13.91.105 20.705 1.537l.114-5.087-41.639-.919.096 6.006z" fill="#000" mask="url(#d)"/><path d="M91.65 40.193c-.06.253-.11.422-.164.622l-.153.567c-.1.375-.194.747-.28 1.117-.087.37-.163.737-.226 1.096a8.092 8.092 0 0 0-.125 1.016c-.008.083 0 .139-.004.21-.002.028 0 .075.003.127l.008.15.032.596.062 1.193.126 2.386.126 2.386.062 1.175c.021.336.085.736.123 1.17.018.22.031.45.026.698-.01.251-.019.5-.122.847-.205.602-.529.982-.863 1.33a5.125 5.125 0 0 1-1.131.854c-.426.222-.875.437-1.521.438a.712.712 0 0 1-.699-.565l-.03-.148v-.004a4.86 4.86 0 0 0-.834-1.983c-.405-.559-.925-.97-1.451-1.162l2.015-.554-.002.004c-1.068 1.896-2.25 3.765-3.664 5.484-1.41 1.714-3.071 3.285-5.024 4.434l-.05.03a.877.877 0 0 1-1.234-.372l-.002-.004c-.776-1.633-1.708-3.2-2.82-4.626-1.11-1.422-2.408-2.71-3.922-3.682l.74-.423v.006l.019.98.01.49.004.244.013.216c.024.303.07.636.088.991.009.179.012.364-.005.566-.01.101-.024.207-.05.319-.019.065-.02.097-.057.19-.03.081-.071.156-.117.223-.19.267-.391.378-.53.476l-.183.123-.195.143-.791.58-.778.571-.363.308c-.074.06-.154.122-.254.186-.112.059-.197.146-.51.19-.327.01-.46-.083-.58-.132a2.684 2.684 0 0 1-.286-.17 6.403 6.403 0 0 1-.437-.332l-.373-.304c-.064-.051-.234-.16-.36-.245l-.822-.544-.417-.287-.21-.151c-.075-.061-.147-.096-.302-.265a.995.995 0 0 1-.204-.383c-.034-.135-.037-.222-.04-.287l-.006-.268-.01-.49-.018-.98-.039-1.962 1.202.687-.004.002c-1.516.882-2.856 2.097-4.023 3.464-1.168 1.37-2.17 2.897-3.02 4.503a.736.736 0 0 1-1.043.278l-.005-.003c-1.947-1.112-3.619-2.653-5.047-4.345-1.431-1.697-2.636-3.55-3.73-5.433l2.016.554-.002.002c-.511.218-.999.643-1.37 1.203a4.747 4.747 0 0 0-.734 1.948l-.022.15a.864.864 0 0 1-.886.738h-.008c-.61-.004-1.066-.173-1.496-.37a4.914 4.914 0 0 1-1.165-.777c-.35-.325-.692-.703-.92-1.284a2.263 2.263 0 0 1-.125-.48l-.015-.132-.007-.09-.009-.171a7.123 7.123 0 0 1 .004-.654c.02-.421.063-.814.101-1.187l.052-.538.034-.536.13-2.251.26-4.504.033-.562c.01-.174.01-.308.008-.467a7.33 7.33 0 0 0-.089-.941c-.1-.641-.28-1.307-.491-1.996l2.777-.502v.006c.03.288.046.517.072.68a1.429 1.429 0 1 1-2.822.453l-.013-.085c-.08-.502-.2-1.056-.33-1.689a5.753 5.753 0 0 1-.09-.614 6.82 6.82 0 0 1-.022-.573l.019-.923v-.036a1.419 1.419 0 0 1 2.663-.654l.34.62-2.656.688.148-5.885c.014-.517.042-1 .046-1.448v-.316a2.483 2.483 0 0 0-.02-.256l-.107-.725a4.395 4.395 0 0 1-.031-1c.029-.313.083-.618.169-.927.086-.31.202-.623.383-.943.089-.158.197-.32.329-.476a2.064 2.064 0 0 1 .604-.497c.196-.101.264-.13.244-.117 0 0-.008.006-.003.004l.083-.059c.082-.048.127-.092.343-.172.065-.021.125-.038.202-.05.079-.005.135-.034-.136.035-.393.135-.521.377-.551.406-.063.095-.039.061-.06.099l.02-.038.063-.127c.016-.033.031-.072.047-.11.031-.08.062-.167.09-.264.119-.388.199-.863.344-1.41l.06-.21.058-.181.114-.359.24-.714c.163-.475.334-.947.515-1.417a34.526 34.526 0 0 1 2.631-5.433c1.024-1.74 2.236-3.39 3.683-4.83 1.447-1.435 3.126-2.67 4.981-3.553a16.57 16.57 0 0 1 5.169-1.497c.19-.016.297-.015.427-.02l.355-.01c.113-.004.223-.01.317-.02a1.53 1.53 0 0 0 .115-.017c.022 0 .046-.024-.064.035a.606.606 0 0 0-.157.135c-.025.029-.024.027-.035.045-.013.028-.03.05-.036.079-.017.042-.012.074-.013.052.004-.03-.02-.169-.016-.383a1.35 1.35 0 0 1 .383-.924 1.45 1.45 0 0 1 .46-.314c.418-.171.74-.172 1.055-.167.16.008.302.02.493.058.18.04.433.114.673.324.243.213.357.498.405.687a2.195 2.195 0 0 1 .067.444l-.001.138-.008.178c-.002.039.003.068-.003.029a.498.498 0 0 0-.06-.155.654.654 0 0 0-.248-.238c-.053-.027-.04-.021-.066-.032l-.043-.014.047.007c.173.02.417.028.641.028.228-.001.463-.01.68-.026.1-.007.23-.023.253-.03l-.026.008a.874.874 0 0 0-.123.057.468.468 0 0 0-.104.088.415.415 0 0 0-.093.17c-.005.038.002-.058-.004-.19.002-.137-.011-.322.062-.59.063-.265.305-.596.561-.73.252-.15.47-.185.644-.213.33-.04.614-.045.969.01.171.032.39.079.625.226.175.105.412.301.547.6.07.145.098.288.115.41.013.113.014.216.014.279-.003.142.007.174.004.153-.002-.002-.002-.012-.006-.019-.004-.007.003.01-.009-.017a.607.607 0 0 0-.11-.153c-.103-.096-.136-.094-.143-.1-.004 0 .082.017.172.022.093.007.204.01.326.013.126.004.251.003.439.023a16.345 16.345 0 0 1 2.281.43c1 .265 1.974.63 2.902 1.084 1.859.905 3.54 2.155 4.977 3.6.73.715 1.394 1.489 2.03 2.284.614.808 1.211 1.633 1.734 2.5 1.078 1.719 1.95 3.548 2.704 5.416.363.94.709 1.886 1.004 2.848.08.239.148.48.218.722l.106.362c.034.121.071.227.112.409l.076.348c.01.04.018.07.025.088l.036.083c.02.047.04.096.061.16.005.016.034.099-.001-.002a1.102 1.102 0 0 0-.242-.37c-.107-.1-.122-.1-.128-.107l.167.116c.06.043.134.086.259.163a2.385 2.385 0 0 1 .89.904c.185.335.291.63.378.948.083.311.131.62.157.923.012.14.02.334.012.503-.006.171-.024.33-.044.477l-.117.732a2.464 2.464 0 0 0-.025.257l-.012.351c-.015.477-.014.955-.01 1.435.01 1.924.15 3.874.288 5.87l-2.655-.688c.104-.212.201-.427.31-.636a1.446 1.446 0 0 1 2.727.683v.023c-.003.246.025.54.01.879a6.044 6.044 0 0 1-.135 1.15m-2.778-.562c.019-.148.022-.347.01-.593-.014-.245-.014-.535-.016-.874l2.725.707c-.119.203-.25.4-.376.6a1.44 1.44 0 0 1-2.65-.635l-.005-.054a62.146 62.146 0 0 1-.2-2.915c-.064-.983-.067-1.978-.063-2.986.005-.503.009-1.011.041-1.52l.024-.39a5.21 5.21 0 0 1 .062-.517l.135-.716c.014-.084.024-.154.028-.208.003-.057.005-.079.001-.177a2.64 2.64 0 0 0-.058-.446 1.73 1.73 0 0 0-.052-.184l-.03-.08a2.755 2.755 0 0 0-.021-.05c-.005-.01.019.024.053.055.034.03.05.031-.032-.022-.074-.05-.224-.142-.377-.255l-.082-.062-.006-.005-.038-.027c-.023-.02-.06-.03-.224-.185-.162-.144-.35-.474-.37-.567-.034-.094-.035-.103-.038-.114l.001.005.009.02-.044-.11a3.131 3.131 0 0 1-.144-.49l-.072-.378c-.003-.032-.04-.165-.07-.279l-.09-.343c-.06-.228-.118-.457-.186-.684a40.337 40.337 0 0 0-.868-2.695c-.656-1.765-1.428-3.487-2.362-5.107-.456-.818-.978-1.59-1.514-2.35a23.183 23.183 0 0 0-1.775-2.142c-1.264-1.356-2.705-2.512-4.323-3.358a13.924 13.924 0 0 0-3.86-1.346 14.2 14.2 0 0 0-.678-.114 3.152 3.152 0 0 0-.276-.02c-.124-.007-.261-.013-.419-.028-.16-.019-.33-.032-.596-.12-.137-.054-.307-.109-.533-.326a1.223 1.223 0 0 1-.226-.313c-.023-.048-.02-.044-.03-.07a1.552 1.552 0 0 1-.075-.217c-.076-.29-.059-.53-.058-.627.003-.06 0-.07.004-.067a.426.426 0 0 0 .036.111c.055.115.135.16.12.147.06.028.054.016-.001.003a1.64 1.64 0 0 0-.448-.017c-.055.004-.066.016.004-.023.07-.032.19-.196.19-.255.01-.06-.005-.007-.003.097-.007.11.016.268-.048.577-.034.152-.114.369-.282.558a1.202 1.202 0 0 1-.513.34l-.077.022-.05.011c-.236.045-.35.045-.498.055a11.13 11.13 0 0 1-.8.01c-.268-.004-.516-.008-.841-.047l-.142-.022c-.061-.014-.11-.02-.24-.067-.044-.02-.046-.016-.123-.057a.962.962 0 0 1-.386-.38c-.052-.09-.067-.139-.094-.213a1.396 1.396 0 0 1-.037-.153c-.028-.175-.022-.274-.02-.36l.009-.19.001-.04c-.001-.016.005.036 0 .001a.704.704 0 0 0-.011-.076c-.01-.037.008.037.085.105.077.064.11.055.06.046a1.373 1.373 0 0 0-.22-.027 1.057 1.057 0 0 0-.347.027c-.007 0 .012-.007.026-.02.004-.001.006-.005.007-.01a.072.072 0 0 0 .023-.027c.04-.05.058-.152.05-.127-.005.021.012.124.014.35 0 .106-.014.27-.07.44-.034.09-.07.18-.125.261-.03.046-.046.073-.093.13a.998.998 0 0 1-.248.21c-.236.128-.337.131-.44.157a2.713 2.713 0 0 1-.254.036c-.154.016-.29.022-.423.026l-.381.008a7.073 7.073 0 0 0-.302.008 15.173 15.173 0 0 0-2.045.374 15.188 15.188 0 0 0-5.046 2.344 17.01 17.01 0 0 0-2.117 1.854c-1.312 1.352-2.422 2.906-3.356 4.565a32.671 32.671 0 0 0-2.248 5.262c-.152.454-.293.911-.427 1.37l-.19.694-.091.348-.044.172-.033.146c-.087.408-.142.907-.275 1.466a4.533 4.533 0 0 1-.207.671l-.088.208c-.014.032-.021.053-.059.128-.03.05-.012.031-.082.138-.038.041-.176.295-.582.433-.283.073-.243.044-.18.043a.958.958 0 0 0 .156-.039c.157-.06.151-.069.181-.084l.009-.004-.078.057c-.221.153-.38.219-.4.238-.012.01.002.004.021-.01.017-.009.05-.046.027-.014a.9.9 0 0 0-.076.136 1.975 1.975 0 0 0-.138.43 3.015 3.015 0 0 0-.061.521c-.004.136.014.266.05.463.038.195.093.433.144.725.026.145.048.304.06.475l.024.42c.02.532.015 1.03.026 1.494l.14 5.881a1.409 1.409 0 0 1-2.635.727l-.021-.038-.347-.616 2.663-.69-.008.904a4.057 4.057 0 0 0 .034.477c.008.048.012.066.03.15.115.56.285 1.191.36 1.899l-2.835.367c-.038-.326-.043-.59-.058-.794v-.004l-.006-.083a1.412 1.412 0 0 1 2.783-.419c.185.76.36 1.56.444 2.411.042.425.061.862.046 1.307a9.004 9.004 0 0 1-.05.659l-.064.56-.514 4.481-.257 2.24-.07.587-.09.58c-.059.372-.117.724-.151 1.053-.035.312-.041.71-.023.707.03.129.174.355.364.545.192.195.43.375.676.511.24.136.51.224.657.232h.002l-.908.888a6.822 6.822 0 0 1 .469-2.944c.378-.953 1.013-1.88 1.94-2.564l.005-.004a1.329 1.329 0 0 1 1.967.458l.048.096c.945 1.844 1.977 3.62 3.19 5.217 1.212 1.595 2.612 3.01 4.225 4.044l.004.002-2.022.539c.906-1.736 1.977-3.395 3.257-4.917 1.282-1.517 2.781-2.908 4.567-3.965l.004-.003a1.398 1.398 0 0 1 2.136 1.182v3.473l-.001.2c-.002-.006.004-.055-.033-.202a1.204 1.204 0 0 0-.227-.438c-.069-.08-.095-.095-.088-.091l.05.038.175.132.372.267.798.55.208.144.116.082c.076.055.124.094.168.13l.389.33c.11.093.213.176.284.225.036.027.058.037.045.031a.585.585 0 0 0-.103-.042l-.048-.012a1.002 1.002 0 0 0-.377-.032c-.242.028-.29.063-.35.085-.04.018-.057.029-.057.029l.072-.053.153-.125c.065-.053.12-.103.255-.205l.83-.586.803-.564.207-.146c.109-.075.196-.128.256-.166.126-.069.118-.114-.031.075a.878.878 0 0 0-.097.18l-.018.051-.002.005-.002.007.007-.048a2.31 2.31 0 0 0 .005-.295c-.007-.253-.041-.556-.066-.941a6.428 6.428 0 0 1-.012-.324v-1.729a1.415 1.415 0 0 1 2.136-1.219c1.787 1.056 3.288 2.448 4.57 3.965 1.281 1.523 2.352 3.18 3.259 4.917l.002.005-2.021-.539c1.614-1.033 3.013-2.448 4.225-4.042 1.213-1.598 2.246-3.373 3.19-5.217l.002-.004.072-.135a1.298 1.298 0 0 1 1.944-.419c.912.71 1.516 1.65 1.864 2.602a6.67 6.67 0 0 1 .372 2.909v.005l-.73-.713c.157-.013.46-.142.715-.32.263-.177.512-.406.715-.648.2-.237.357-.52.383-.684.005-.037.013-.191 0-.336a5.02 5.02 0 0 0-.063-.493c-.059-.356-.145-.738-.209-1.194l-.145-1.204-.284-2.373-.284-2.372-.143-1.186-.071-.593-.018-.148a3.056 3.056 0 0 1-.016-.17c-.008-.128-.024-.27-.022-.387-.012-.493.024-.931.07-1.362.045-.43.104-.848.172-1.258.067-.411.141-.818.22-1.218l.118-.596c.037-.187.083-.405.105-.541" fill="#000" mask="url(#d)"/><path d="M90.26 39.911c.116-.568.06-1.169.06-1.747l-.343.618c0-2.558-.13-5.15 0-7.704.03-.58.231-1.115.204-1.713-.022-.5-.123-1.017-.35-1.468-.243-.486-.525-.535-.905-.821-.192-.144-.08-.016-.197-.28-.103-.233-.131-.537-.197-.784-1.462-5.49-4.123-11.097-8.409-14.933-1.354-1.212-2.887-2.228-4.56-2.94A15.057 15.057 0 0 0 71.46 7.04c-.381-.046-1.169.027-1.299-.25-.186-.397.135-.798-.395-1.108-.266-.156-.794-.155-1.096-.109-.958.148-.284 1.09-.733 1.346-.187.107-1.97.133-2.127 0-.124-.105-.04-.451-.064-.65-.056-.456-.217-.636-.68-.696-.335-.043-.833-.038-1.105.172-.47.362-.064.836-.315 1.149-.142.177-1.224.13-1.515.167a15.898 15.898 0 0 0-7.486 2.966c-3.233 2.367-5.513 5.815-7.121 9.438a38.957 38.957 0 0 0-1.834 5.102c-.2.701-.271 1.592-.58 2.247-.15.32-.032.092-.265.268-.199.15-.415.183-.599.392-.408.464-.587 1.206-.624 1.807-.04.627.185 1.21.211 1.83.026.607 0 1.22 0 1.828v5.842l-.343-.618c0 .578-.056 1.18.06 1.747.129.637.276 1.224.36 1.867-.032-.245-.043-.496-.066-.742.342 1.245.623 2.535.511 3.831l-.288 3.35-.37 4.294c-.076.874-.288 1.845-.235 2.722.063 1.052 1.672 2.21 2.719 2.21.037-1.67.82-3.428 2.26-4.334 1.895 3.705 4.343 7.52 7.914 9.811 1.67-3.207 4.145-6.465 7.291-8.318v3.422c0 .432-.036.423.291.671.537.407 1.107.778 1.658 1.165.26.183.961.89 1.284.902.225.008.66-.427.852-.562l1.77-1.245c.262-.184.57-.313.66-.59.181-.557 0-1.473 0-2.055V54.6c3.148 1.853 5.624 5.112 7.293 8.32 3.572-2.29 6.02-6.106 7.915-9.81 1.44.905 2.223 2.663 2.26 4.332 1 0 2.563-1.307 2.702-2.314.098-.7-.137-1.595-.197-2.294l-.678-7.86c-.127-1.47.675-4.425.805-5.063" fill="#FFF" mask="url(#d)"/><path d="M88.808 42.677l1.098 12.73s-.65 2.017-2.277 2.017c0 0 0-4.098-3.772-4.944l4.951-9.803z" fill="#000" mask="url(#d)"/><path d="M88.808 42.677l1.098 12.73s-.65 2.017-2.277 2.017c0 0 0-4.098-3.772-4.944l4.951-9.803z" stroke="#000" stroke-width=".797" stroke-linecap="round" stroke-linejoin="round" mask="url(#d)"/><g mask="url(#d)"><path fill="#000" d="M83.06 52.268H49.953v-11.38H83.06z"/><path stroke="#000" stroke-width=".797" stroke-linecap="round" stroke-linejoin="round" d="M83.06 52.268H49.953v-11.38H83.06z"/></g><path d="M43.622 29.264s.575-2.217 1.4-2.217c.823 0-.585 2.814-.585 2.814l-.815-.597z" fill="#000" mask="url(#d)"/><path d="M43.622 29.264s.575-2.217 1.399-2.217c.824 0-.584 2.814-.584 2.814l-.815-.597z" stroke="#000" stroke-width=".797" stroke-linecap="round" stroke-linejoin="round" mask="url(#d)"/><path d="M69.384 6.902h-4.959c-18.014 0-20.153 24.78-20.153 24.78" fill="#FFF" mask="url(#d)"/><path d="M69.384 7.043c-.835.082-1.67.139-2.504.192-.834.054-1.67.117-2.502.155-1.628.107-3.225.38-4.745.874-3.056.972-5.696 2.94-7.76 5.41-2.067 2.479-3.605 5.407-4.817 8.463-.608 1.53-1.086 3.113-1.546 4.703a49.202 49.202 0 0 0-1.097 4.854l-.003.016a.142.142 0 0 1-.28-.04 43.738 43.738 0 0 1 2.266-9.77c1.132-3.146 2.66-6.19 4.802-8.786 2.126-2.583 4.944-4.697 8.2-5.628 1.615-.479 3.296-.703 4.978-.724l5.008-.002a.141.141 0 1 1 .014.282l-.014.001z" fill="#000" mask="url(#d)"/><path d="M64.427 6.902h4.958c18.014 0 20.153 24.78 20.153 24.78" fill="#FFF" mask="url(#d)"/><path d="M64.427 6.76l5.007.002c1.682.02 3.363.246 4.978.724 3.256.931 6.074 3.045 8.2 5.628 2.141 2.597 3.67 5.64 4.802 8.786a43.724 43.724 0 0 1 2.266 9.77.141.141 0 0 1-.278.046l-.005-.022c-.354-1.626-.733-3.244-1.233-4.822a55.148 55.148 0 0 0-1.613-4.663c-.622-1.513-1.288-3.003-2.09-4.41-.79-1.41-1.67-2.764-2.698-3.982-1.01-1.232-2.155-2.344-3.436-3.263-.326-.22-.64-.46-.976-.666l-1.024-.59-1.075-.496c-.36-.162-.738-.282-1.108-.427-.366-.158-.76-.227-1.143-.341-.192-.052-.384-.109-.578-.156l-.59-.108c-.785-.182-1.592-.232-2.4-.318l-2.503-.189-1.252-.094-1.251-.126-.015-.001a.141.141 0 0 1 .014-.282M45.002 42.677l-1.098 12.73s.65 2.017 2.277 2.017c0 0 0-4.098 3.772-4.944l-4.951-9.803z" fill="#000" mask="url(#d)"/><path d="M45.002 42.677l-1.098 12.73s.65 2.017 2.277 2.017c0 0 0-4.098 3.772-4.944l-4.951-9.803z" stroke="#000" stroke-width=".797" stroke-linecap="round" stroke-linejoin="round" mask="url(#d)"/><path d="M45.098 43.058L44 55.788l-.555-1.125s.92-8.932.484-13.393l1.168 1.788z" fill="#FFF" mask="url(#d)"/><path d="M45.098 43.058L44 55.788l-.555-1.125s.92-8.932.484-13.393l1.168 1.788z" stroke="#FFF" stroke-width=".797" mask="url(#d)"/><path d="M88.712 43.058l1.097 12.73.556-1.125s-.921-8.932-.485-13.393l-1.168 1.788z" fill="#FFF" mask="url(#d)"/><path d="M88.712 43.058l1.097 12.73.555-1.125s-.92-8.932-.484-13.393l-1.168 1.788z" stroke="#FFF" stroke-width=".797" mask="url(#d)"/><path d="M73.738 50.036c-3.526 0-5.337-3.43-5.337-3.43l-1.496 4.425-1.496-4.426s-1.81 3.43-5.337 3.43c-3.836 0-8.243-4.327-9.96-8.48 0 0 9.935 1.32 16.793 1.32 6.858 0 16.156-1.13 16.156-1.13-1.717 4.152-5.488 8.29-9.323 8.29zm16.239-11.273v-8.014c.547-1.366-.02-3.702-1.188-3.702l.57 2.997c-.198.592-.31 1.222-.672 1.806-1.444 2.322-10.747 2.944-21.782 2.944-11.053 0-20.793-.753-21.777-2.933-.285-.631-.478-1.221-.677-1.817l.57-2.997c-1.169 0-1.735 2.336-1.188 3.702v8.014l-.343-.618v1.412c0 .062.007.123.022.183.332 1.376 4.446 17.776 12.843 23.161 0 0 4.47-8.755 10.55-9.477 6.08.722 10.55 9.477 10.55 9.477 8.397-5.385 12.51-21.785 12.843-23.16a.78.78 0 0 0 .022-.184v-1.412l-.343.618z" fill="#FFF" mask="url(#d)"/><path d="M90.012 38.626c.036-.108.058-.211.082-.298.024-.088.06-.164.11-.248v-.003a.133.133 0 0 1 .25.068l-.01.894-.005.447c0 .07 0 .163-.02.245l-.056.222c-.155.577-.301 1.156-.465 1.73a72.204 72.204 0 0 1-2.286 6.786 61.425 61.425 0 0 1-1.37 3.314c-.985 2.18-2.11 4.308-3.482 6.294-1.37 1.976-2.995 3.837-5.05 5.222a.462.462 0 0 1-.642-.125l-.02-.032-.014-.026a27.354 27.354 0 0 0-1.963-3.004 23.504 23.504 0 0 0-2.343-2.702c-.844-.83-1.763-1.577-2.756-2.16-.982-.6-2.055-1.008-3.148-1.14h.162c-1.091.147-2.154.57-3.124 1.18-.977.6-1.862 1.375-2.69 2.208a23.333 23.333 0 0 0-2.297 2.712 26.844 26.844 0 0 0-1.91 3.002l-.01.018a.68.68 0 0 1-.968.247c-2.112-1.374-3.756-3.265-5.14-5.255-1.384-2-2.519-4.14-3.51-6.33a64.148 64.148 0 0 1-2.558-6.723 71.85 71.85 0 0 1-1.01-3.445c-.154-.578-.3-1.158-.436-1.742l-.05-.23a1.198 1.198 0 0 1-.016-.266l.008-.447.017-.894v-.007a.197.197 0 0 1 .371-.09l.332.625-.347.09.037-2.003c.013-.668.009-1.336.014-2.004l.017-4.007.009.044a3.338 3.338 0 0 1-.21-1.103 4.305 4.305 0 0 1 .108-1.109c.085-.362.214-.72.429-1.036.107-.157.239-.304.402-.416.163-.112.364-.18.567-.184a.1.1 0 0 1 .1.117v.004l-.543 3.002-.013.072a.011.011 0 0 1-.013.01.012.012 0 0 1-.01-.014l.032-.133c.434.39.692.826.922 1.251l.16.323c.034.065.03.058.052.094a.782.782 0 0 0 .062.081c.1.114.26.236.44.341.755.426 1.733.675 2.684.88 1.93.393 3.933.589 5.932.738 4.005.282 8.04.331 12.073.304 4.033.011 8.07-.027 12.072-.313 1.996-.151 3.996-.352 5.913-.768.945-.213 1.906-.482 2.647-.918.18-.11.343-.23.459-.353.064-.065.1-.115.147-.189.055-.081.104-.17.161-.258.23-.345.465-.816.966-1.204l.025.103a.02.02 0 0 1-.015.023.02.02 0 0 1-.023-.015v-.007l.01-.054-.578-2.995a.108.108 0 0 1 .106-.129c.205.001.409.07.573.183.164.114.296.261.404.42.214.317.343.676.428 1.038.083.364.12.738.107 1.111a3.346 3.346 0 0 1-.213 1.104l.009-.045c.004 1.317.002 2.621-.017 3.927l-.068 3.95zm-.07.274l-.077-4.057a239.28 239.28 0 0 1-.03-4.094c0-.017.003-.034.009-.05l.001-.003c.245-.64.249-1.38.1-2.06-.079-.34-.2-.673-.389-.954-.185-.28-.46-.496-.767-.494l.14-.168.57 2.997-.04-.073.035.145c-.156.468-.264.973-.483 1.453-.109.234-.24.476-.432.674a2.96 2.96 0 0 1-.623.492c-.902.532-1.9.8-2.889 1.034-1.988.442-4.01.653-6.029.818-4.041.308-8.092.37-12.14.376-4.047-.005-8.098-.087-12.138-.404-2.019-.167-4.04-.38-6.03-.803-.99-.226-1.992-.472-2.905-.992a2.529 2.529 0 0 1-.623-.504 1.416 1.416 0 0 1-.22-.354l-.152-.353c-.193-.474-.354-.958-.514-1.437l.035-.145-.04.073.57-2.997.14.168c-.308-.002-.582.214-.767.494a2.85 2.85 0 0 0-.388.954c-.15.68-.146 1.42.099 2.06v.003c.007.016.01.034.01.05v8.014a.141.141 0 0 1-.266.069l-.343-.618.265-.069v1.341c0 .08 0 .133.013.195l.05.21c.145.576.301 1.15.464 1.722a71.777 71.777 0 0 0 1.067 3.404 63.515 63.515 0 0 0 2.657 6.617c1.02 2.146 2.173 4.234 3.558 6.162 1.382 1.92 3.007 3.701 4.992 4.986l-.203.055a27.609 27.609 0 0 1 1.958-3.123c.72-.995 1.499-1.95 2.363-2.827.862-.877 1.809-1.683 2.866-2.328 1.051-.65 2.232-1.118 3.472-1.276a.155.155 0 0 1 .034 0c1.24.158 2.42.627 3.472 1.276 1.057.645 2.004 1.451 2.866 2.328a24.229 24.229 0 0 1 2.363 2.827c.717 1 1.377 2.032 1.958 3.123l-.203-.055c1.985-1.285 3.61-3.067 4.992-4.986 1.385-1.928 2.539-4.016 3.558-6.162a63.67 63.67 0 0 0 2.657-6.617c.384-1.126.74-2.26 1.067-3.404.163-.572.32-1.146.463-1.721l.052-.211c.012-.062.012-.114.012-.195v-1.341l.265.07a2.828 2.828 0 0 1-.24.37c-.091.117-.184.218-.263.315z" fill="#000" mask="url(#d)"/><path d="M73.738 49.894c1.067-.003 2.123-.326 3.066-.842a10.139 10.139 0 0 0 2.535-1.994c.737-.79 1.385-1.66 1.948-2.576a15.752 15.752 0 0 0 1.394-2.894l.429.564c-1.368.224-2.733.423-4.104.6-1.37.183-2.742.356-4.12.464-1.379.115-2.758.235-4.144.289a84.785 84.785 0 0 1-4.166.04c-2.786-.094-5.537-.392-8.278-.744l-4.105-.546-4.094-.6.107-.139a12.84 12.84 0 0 0 1.146 2.252c.23.353.475.699.745 1.022l.401.489c.072.077.14.159.217.231a.707.707 0 0 0 .316.143c.261.05.525.086.65.248.145.145.285.293.433.434.305.271.598.555.92.8.628.515 1.303.962 2.008 1.322 1.402.742 2.952 1.066 4.338.613.69-.223 1.338-.6 1.908-1.098a7.076 7.076 0 0 0 1.441-1.726l.014-.025a.767.767 0 0 1 1.394.138c.246.738.498 1.476.73 2.219l.711 2.225h-1.346l.785-2.2.098-.275c.035-.09.054-.188.126-.266.133-.16.454-.257.625-.405a.49.49 0 0 0 .16-.254l.1-.275.197-.55a.083.083 0 0 1 .151-.012c.26.475.581.931.958 1.33.373.4.788.764 1.243 1.066.45.31.951.537 1.466.7.514.178 1.06.215 1.597.232m0 .284c-.566-.027-1.14-.077-1.676-.273a5.727 5.727 0 0 1-1.517-.754 7.49 7.49 0 0 1-1.27-1.114 7.725 7.725 0 0 1-1-1.365l.26-.021-1.496 4.425a.142.142 0 0 1-.268 0l-1.496-4.425.26.02a7.847 7.847 0 0 1-1.643 1.994 6.078 6.078 0 0 1-2.248 1.272 5.503 5.503 0 0 1-2.58.138c-.43-.065-.84-.205-1.25-.338-.396-.169-.797-.33-1.17-.546-.755-.408-1.463-.9-2.113-1.457a15.608 15.608 0 0 1-1.822-1.802c-.57-.638-1.064-1.339-1.534-2.052a16.307 16.307 0 0 1-1.193-2.27.14.14 0 0 1 .074-.185.14.14 0 0 1 .072-.01h.003c2.73.349 5.469.641 8.21.879 2.742.23 5.491.415 8.24.435 2.748.01 5.498-.14 8.243-.34 2.744-.205 5.487-.466 8.22-.785a.141.141 0 0 1 .147.195 17.3 17.3 0 0 1-3.63 5.48c-.781.78-1.653 1.48-2.63 2.009-.972.528-2.066.881-3.193.89" fill="#000" mask="url(#d)"/><path d="M43.833 30.75v8.013c1.023 3.88 4.985 17.114 12.432 21.889 0 0 2.815-6.263 11.4-8.165l-1.827-3.658S62.96 52.7 59.434 52.7c-6.088 0-14.154-14.51-15.6-21.95" fill="#FFF" mask="url(#d)"/><path d="M43.82 30.608c.05.082.155.204.195.35.042.154.049.207.073.308l.129.54c.093.36.191.717.3 1.073.213.711.456 1.415.715 2.111A47.466 47.466 0 0 0 47 39.09c1.309 2.672 2.821 5.254 4.607 7.633.895 1.186 1.863 2.322 2.948 3.33.542.505 1.117.974 1.73 1.382.617.396 1.267.762 1.974.936a4.93 4.93 0 0 0 2.14.061c.71-.137 1.396-.414 2.036-.772 1.271-.734 2.377-1.768 3.29-2.914a.142.142 0 0 1 .24.02l1.827 3.658v.001a.141.141 0 0 1-.096.202c-1.168.26-2.314.624-3.415 1.09a17.212 17.212 0 0 0-3.135 1.732 16.276 16.276 0 0 0-2.696 2.354c-.8.881-1.532 1.854-2.055 2.907l-.001.003a.141.141 0 0 1-.188.069l-.017-.01c-1.821-1.175-3.33-2.759-4.632-4.464-1.304-1.71-2.395-3.57-3.366-5.481-.97-1.913-1.805-3.892-2.55-5.9a68.34 68.34 0 0 1-1.945-6.127.18.18 0 0 1-.004-.036c0-1.358.006-2.733.036-4.102l.092-4.053zm.027.282c.011.39.027.76.05 1.126.022.369.054.735.085 1.081.066.704.15 1.364.219 1.993.074.632.12 1.23.147 1.835.026.604.021 1.214.02 1.838l-.018-.136a67.545 67.545 0 0 0 1.893 6.075c.363.997.75 1.986 1.163 2.962.41.978.836 1.949 1.3 2.9.927 1.905 1.98 3.75 3.224 5.46 1.231 1.713 2.678 3.288 4.412 4.508l-.206.062c-.081-.218.004-.352.082-.486.077-.136.157-.268.239-.4a13.397 13.397 0 0 1 1.706-2.17c.85-.881 1.79-1.67 2.806-2.342 1.018-.668 2.078-1.272 3.202-1.735a22.48 22.48 0 0 1 3.465-1.112l-.097.202-1.828-3.659.24.021v.001a7.657 7.657 0 0 1-1.266 1.966 8.439 8.439 0 0 1-1.8 1.558 5.788 5.788 0 0 1-2.321.823 5.52 5.52 0 0 1-1.262.023c-.43-.04-.831-.192-1.203-.353l-.279-.117c-.093-.035-.178-.092-.282-.099-.105-.002-.224.022-.316-.018-.093-.04-.18-.087-.27-.13a9.393 9.393 0 0 1-1.017-.603 14.234 14.234 0 0 1-1.793-1.466c-1.109-1.058-2.08-2.228-2.974-3.444-1.784-2.439-3.275-5.062-4.562-7.774a43.189 43.189 0 0 1-1.719-4.16 35.06 35.06 0 0 1-.682-2.148 28.44 28.44 0 0 1-.283-1.09l-.121-.552c-.014-.081-.05-.211-.041-.238.005-.036.074-.099.087-.202z" fill="#000" mask="url(#d)"/><path d="M89.977 30.75v8.013c-1.023 3.88-4.985 17.114-12.432 21.889 0 0-2.814-6.263-11.4-8.165l1.827-3.658s2.88 3.871 6.404 3.871c6.088 0 11.97-12.783 15.6-21.95" fill="#FFF" mask="url(#d)"/><path d="M89.95 30.888c-.044.18-.062.35-.092.493-.031.146-.085.272-.16.458l-.416 1.036a135.549 135.549 0 0 1-2.666 6.145c-1.26 2.699-2.634 5.355-4.292 7.854-.84 1.24-1.746 2.447-2.814 3.527a11.961 11.961 0 0 1-1.747 1.482c-.635.435-1.333.813-2.107 1.02-.192.05-.391.083-.587.124-.198.033-.401.036-.602.054-.4-.001-.805-.006-1.2-.071l-.3-.037-.293-.066c-.196-.044-.395-.086-.58-.16-.186-.069-.384-.122-.563-.207-.177-.09-.36-.17-.531-.27-.684-.401-1.277-.92-1.81-1.476a8.06 8.06 0 0 1-1.332-1.88l.24-.022-1.827 3.659-.096-.202c.586.155 1.182.28 1.762.46.573.202 1.163.36 1.716.619l.84.359.812.42c.275.133.535.291.794.454.257.165.527.309.773.49a16.574 16.574 0 0 1 2.784 2.38c.103.114.266.174.345.31l.279.368c.192.24.352.505.528.755.332.519.637 1.047.866 1.63l-.206-.062c1.76-1.184 3.213-2.766 4.462-4.47 1.26-1.703 2.323-3.549 3.263-5.452a61.47 61.47 0 0 0 2.49-5.865c.73-1.996 1.37-4.03 1.907-6.084l-.013.102c-.002-.636-.004-1.26.024-1.887.022-.627.055-1.252.094-1.887.102-1.285.21-2.645.255-4.1m.053-.279l.083 4.056c.026 1.366.033 2.74.033 4.097a.132.132 0 0 1-.005.036 68.209 68.209 0 0 1-1.945 6.126c-.745 2.01-1.58 3.988-2.55 5.9-.971 1.912-2.062 3.771-3.366 5.482-1.302 1.705-2.81 3.289-4.632 4.464a.141.141 0 0 1-.195-.042l-.009-.015-.002-.004c-.526-1.052-1.254-2.027-2.058-2.905a16.166 16.166 0 0 0-2.694-2.354c-.238-.181-.502-.325-.751-.489a7.984 7.984 0 0 0-.773-.454l-.792-.42-.821-.362c-.54-.26-1.12-.422-1.68-.628-.57-.184-1.156-.313-1.733-.472l-.007-.002a.14.14 0 0 1-.089-.2l1.828-3.658a.142.142 0 0 1 .24-.023v.001h.001c.907 1.143 2.011 2.168 3.272 2.91a6.828 6.828 0 0 0 2.023.792 4.58 4.58 0 0 0 2.144-.043c.702-.18 1.357-.523 1.963-.93a11.469 11.469 0 0 0 1.69-1.407c1.049-1.037 1.953-2.216 2.795-3.433 1.664-2.452 3.06-5.08 4.343-7.756a112.35 112.35 0 0 0 1.833-4.06c.293-.682.58-1.367.862-2.054l.42-1.031c.066-.16.147-.378.253-.577.106-.203.225-.379.319-.545" fill="#000" mask="url(#d)"/></g><g transform="translate(63 15)"><mask id="f" fill="#fff"><use xlink:href="#e"/></mask><path d="M7.161 1.355v52.117l-3.256 2.29-3.259-2.29V1.355c0-.442.357-.8.8-.8h.71c.32 0 .581.259.587.576l.062 3.622 1.1.02 1.1-.02.062-3.622A.587.587 0 0 1 5.65.556h.714c.439 0 .796.357.796.8" fill="#000" mask="url(#f)"/><path d="M7.02 1.355A.66.66 0 0 0 6.392.7l-.4-.001c-.128 0-.285-.003-.39.003a.443.443 0 0 0-.393.408l-.008.399-.056 3.247a.142.142 0 0 1-.139.14h-.002l-1.101.02-1.1-.02a.142.142 0 0 1-.14-.14v-.002L2.599 1.1a.45.45 0 0 0-.492-.403h-.682a.655.655 0 0 0-.633.587c-.008.275-.003.602-.004.9V53.473l-.06-.116 3.259 2.29h-.163l3.256-2.29-.06.116V1.355zm.283 0l.071 13.03.018 3.257c0 .543.031 1.085-.069 1.628-.01.272.017.543.03.815.017.271.01.543.016.814.017 1.086.014 2.171.045 3.258l.038 1.628c.01.543.02 1.086.121 1.629.233 1.085.106 2.171.11 3.257-.023 1.086-.032 2.172-.066 3.257l-.212 6.515c-.043 1.086-.048 2.171-.07 3.257 0 1.086-.138 2.172.192 3.258-.058.543-.137 1.086-.163 1.629-.029.542-.033 1.085-.05 1.628a69.49 69.49 0 0 0-.011 3.257c0 .043-.018.08-.048.106l-.012.01-3.063 2.564a.428.428 0 0 1-.549 0L.565 53.59l-.008-.007a.147.147 0 0 1-.053-.11l-.13-7.326-.075-7.327-.076-7.327C.1 29.05.44 26.608.404 24.166c.014-2.442.037-4.885-.076-7.327a49.96 49.96 0 0 1-.048-1.831c-.013-.611-.003-1.222.033-1.832.034-.611.092-1.222.104-1.832.003-.153.017-.305.009-.458-.01-.153-.049-.305-.073-.458-.048-.305-.013-.61-.02-.916l.071-7.326.004-.458.002-.23c.002-.076 0-.145.009-.252a1.03 1.03 0 0 1 .994-.911h.236l.458.005a.824.824 0 0 1 .561.19.786.786 0 0 1 .276.538l-.001 3.68v.002l-.135-.135 1.096.02 1.095-.02h.003l-.135.135.054-3.247.009-.414A.725.725 0 0 1 5.573.42c.165-.009.279-.003.42-.005l.412.002c.16.006.317.054.453.139.273.165.446.48.445.8z" fill="#000" mask="url(#f)"/><path fill="#000" mask="url(#f)" d="M5.005 2.058l1.197 51.17-2.297 1.522-2.297-1.522 1.197-51.17z"/><path d="M4.906 2.16c-.71.023-1.4.04-2.1.04l.141-.139c-.216 1.062-.18 2.13-.204 3.195l-.023 1.6c-.017.533.117 1.069.087 1.602l-.039 6.399c-.004 4.266-.115 8.53-.175 12.795-.034 2.133-.123 4.264-.183 6.396l-.267 6.393-.137 3.197-.109 3.197-.053 1.599-.027.8c-.042.265.116.536.17.803-.013 1.067-.055 2.133-.237 3.195l-.063-.122 2.296 1.522h-.156l2.296-1.522-.063.122c-.073-1.063-.11-2.125-.15-3.187l-.06-1.592a4.566 4.566 0 0 1 .027-.801c.033-.27.017-.535.008-.8l-.234-6.363a1509.6 1509.6 0 0 1-.413-12.687l-.137-6.357c-.051-2.116-.055-4.26-.087-6.392-.016-2.144-.085-4.243-.009-6.472.075-2.23.051-4.398-.1-6.422m.199-.202l.63 25.63.382 12.804.194 6.412c.053 1.067.04 2.141.039 3.212l-.006 3.21v.004a.144.144 0 0 1-.063.118l-2.297 1.521a.142.142 0 0 1-.156 0L1.53 53.347a.142.142 0 0 1-.063-.117v-.005l-.004-3.2.087-3.197.173-6.397.345-12.791.328-12.792.164-6.396c.078-2.131.026-4.266.104-6.397a.145.145 0 0 1 .141-.14c.767 0 1.543.017 2.299.041" fill="#000" mask="url(#f)"/></g><mask id="h" fill="#fff"><use xlink:href="#g"/></mask><path d="M63.646 52.804h6.515M63.646 52.662h6.803a.409.409 0 1 1-.288.699.83.83 0 0 0-.407-.225c-.136-.03-.272-.045-.407.015-.136.053-.272.154-.407.187-.136.027-.272.017-.408.023-.543-.007-1.085-.094-1.628-.1-.543-.006-1.087.075-1.63.056-.135-.01-.27.007-.406-.03-.136-.04-.272-.147-.407-.191a.813.813 0 0 0-.408-.007.917.917 0 0 0-.407.19.349.349 0 1 1-.224-.617h.224zM63.119 61.546l.323 2.31.204-.014v-2.68zM90.546 49.568s-1.724 5.257-2.139 6.392c-.414 1.134 0 1.63 0 1.63s2.139-5.844 2.139-8.022" fill="#000" mask="url(#h)"/><path d="M90.546 49.568s-1.724 5.257-2.139 6.392c-.414 1.134 0 1.63 0 1.63s2.139-5.844 2.139-8.022z" stroke="#000" stroke-width=".797" stroke-linecap="round" stroke-linejoin="round" mask="url(#h)"/><path d="M43.264 49.568s1.724 5.257 2.139 6.392c.414 1.134 0 1.63 0 1.63s-2.139-5.844-2.139-8.022" fill="#000" mask="url(#h)"/><path d="M43.264 49.568s1.724 5.257 2.139 6.392c.414 1.134 0 1.63 0 1.63s-2.139-5.844-2.139-8.022z" stroke="#000" stroke-width=".797" stroke-linecap="round" stroke-linejoin="round" mask="url(#h)"/><path d="M46.086 34.915s-2.464 3.49-1.777 5.129c.687 1.638 1.184 2.485 1.184 2.485s-.572-4.238.593-7.614M87.725 34.915s2.244 3.49 1.763 5.129c-.48 1.638-1.287 2.55-1.287 2.55s.688-4.303-.476-7.679M83.612 49.805s-7.68 1.084-16.707 1.084c-9.028 0-17.796-1.752-17.796-1.752s-.952-1.178-2.543-4.474c0 0 11.194 1.515 20.34 1.515 9.144 0 20.151-1.186 20.151-1.186-1.806 3.182-3.445 4.813-3.445 4.813" fill="#000" mask="url(#h)"/><path d="M83.55 49.678c-.047.022.01-.026.018-.044l.055-.073.11-.146.22-.294.428-.598c.287-.396.559-.803.824-1.214.273-.405.54-.814.793-1.232.282-.404.403-.893.936-1.155l.138.21-.003.001c-.836.152-1.674.287-2.514.404l-2.52.353c-1.683.196-3.37.37-5.06.53-1.688.176-3.383.258-5.079.36-1.697.08-3.397.117-5.1.13-1.706-.019-3.408-.07-5.106-.17-1.695-.12-3.39-.233-5.077-.434-1.687-.19-3.371-.395-5.05-.63l-2.513-.408a57.012 57.012 0 0 1-2.503-.465l.146-.202.003.002c.242.12.335.312.422.507l.28.575c.19.382.385.762.584 1.139.19.381.389.758.597 1.13.2.373.414.748.633 1.1l-.076-.047h.001c.35.08.707.14 1.062.2.354.068.712.112 1.07.152.36.039.715.094 1.072.15l1.07.151c1.429.196 2.86.363 4.295.505 2.869.282 5.748.448 8.626.475 2.881.032 5.763-.113 8.642-.24.182.023.366.062.547.075.182.008.36-.013.541-.021l1.08-.075c.72-.054 1.44-.106 2.157-.175.718-.071 1.436-.15 2.152-.234l1.073-.145.535-.078.267-.04c.084-.01.198-.037.223-.029m.126.254c-.153.035-.218.034-.313.05l-.269.034-.538.067-1.077.124a141.554 141.554 0 0 1-6.48.558c-2.886.176-5.777.283-8.669.259-2.894-.023-5.783-.212-8.66-.51-2.876-.303-5.74-.7-8.586-1.237h-.001l-.003-.001a.133.133 0 0 1-.08-.05c-.27-.355-.499-.715-.727-1.084a27.962 27.962 0 0 1-.65-1.12 46.2 46.2 0 0 1-1.183-2.296v-.002a.141.141 0 0 1 .146-.202c3.35.435 6.717.78 10.086 1.051 3.37.266 6.748.45 10.126.462 3.38-.003 6.759-.143 10.133-.352 3.374-.212 6.746-.485 10.108-.832h.004a.142.142 0 0 1 .138.21 31.412 31.412 0 0 1-1.592 2.519c-.288.405-.584.804-.894 1.193-.156.194-.313.387-.476.575l-.247.281-.127.139-.065.068-.033.035-.02.021a.319.319 0 0 1-.05.04M68.406 44.45h-3.107v-.556h3.107z" fill="#000" mask="url(#h)"/><g><g transform="translate(45 42)"><mask id="j" fill="#fff"><use xlink:href="#i"/></mask><path d="M10.528 1.86A142.014 142.014 0 0 1 .098.537V.259a142.41 142.41 0 0 0 10.42 1.322l.01.28M10.597 3.478a140.46 140.46 0 0 1-10.5-1.356V1.93c3.469.578 6.988 1.037 10.49 1.351l.01.197M11.11 8.988C7.432 8.586 3.73 8.015.098 7.306v-.192C3.727 7.82 7.425 8.39 11.1 8.79l.01.197M11.18 10.688C7.477 10.28 3.752 9.698.098 8.977V8.7c3.65.72 7.372 1.3 11.072 1.708l.01.28M4.1 6.069c.132.075.2.114.333.194.882.138 1.323.203 2.206.327.127-.042.19-.062.316-.1-.59-.305-.882-.434-1.464-.68a13.87 13.87 0 0 0-1.392.259m1.548-.28c.58.24.87.365 1.457.658.353-.1.53-.141.88-.216-.572-.24-.856-.347-1.421-.565L6.4 5.604c-.387-.15-.58-.223-.963-.38a15.199 15.199 0 0 1-1.586-.718 8 8 0 0 1-.877.191c.55.246.828.355 1.385.577l.16.064c.385.152.578.227.965.385l.162.067M3.999 4.465c.568.303.855.43 1.43.671a9.27 9.27 0 0 0 1.36-.292 10.032 10.032 0 0 1-.33-.186c-.861-.11-1.291-.168-2.15-.29a6.104 6.104 0 0 1-.31.097m5.163 3.438c-.358-.282-.536-.41-.892-.645-.306.15-.459.233-.768.426a123.33 123.33 0 0 1-3.845-.583 10.147 10.147 0 0 0-.809-.655c-.339.127-.508.2-.85.372-.76-.134-1.14-.203-1.9-.346v-.146c.72.136 1.081.202 1.802.329 1.394-.647 2.079-.723 3.431-.911-.387-.16-.58-.237-.964-.39-1.205.132-1.815.154-3.052.485-.487-.086-.73-.13-1.217-.22v-.095c.448.083.672.123 1.12.203a9.58 9.58 0 0 1 .396-.088 12.384 12.384 0 0 0-.42-.233A131.13 131.13 0 0 1 .097 5.21v-.072c.477.088.716.13 1.193.213.192.099.287.15.48.258.376-.073.564-.1.937-.15a25.784 25.784 0 0 0-.83-.376c-.712-.12-1.069-.181-1.78-.309V4.72c.75.134 1.127.199 1.88.324.352.153.53.23.885.395.54-.067.81-.09 1.344-.148-.555-.222-.83-.329-1.378-.57-.343.055-.515.075-.86.113-.75-.122-1.123-.186-1.871-.317v-.055c.707.124 1.06.184 1.77.3.945-.108 1.412-.165 2.339-.505.936.133 1.404.197 2.344.315.155.096.233.14.389.229a6.64 6.64 0 0 0 .9-.335 8.74 8.74 0 0 1-.743-.554 128.63 128.63 0 0 1-3.5-.46c-.922.542-1.387.667-2.33.843C.8 4.218.566 4.178.098 4.098v-.071c.43.073.643.11 1.072.18.164-.034.245-.052.407-.094a10.477 10.477 0 0 1-.387-.22c-.437-.07-.655-.106-1.091-.18v-.094c.472.079.708.118 1.182.194.176.109.265.16.442.26.352-.098.527-.158.876-.31a9.217 9.217 0 0 1-.776-.576C1.13 3.08.785 3.025.097 2.91v-.145c.724.119 1.086.177 1.813.288.331.283.498.41.832.645.302-.14.452-.22.752-.41 1.472.212 2.211.31 3.694.485.32.274.48.397.803.623a6.13 6.13 0 0 0 .802-.44c.735.078 1.104.116 1.84.185l.01.151c-.7-.066-1.05-.102-1.748-.177-1.31.773-1.97.886-3.308 1.087.385.158.578.232.965.381 1.194-.159 1.784-.219 2.955-.669.478.05.717.075 1.195.122l.01.1c-.441-.043-.662-.065-1.103-.112-.15.054-.226.079-.376.125.172.09.259.132.431.215.434.046.652.068 1.086.111l.01.078c-.474-.047-.711-.072-1.185-.123-.197-.09-.296-.138-.491-.237-.36.104-.54.145-.903.218.34.149.51.218.851.353.715.082 1.072.12 1.787.194l.01.06a117.09 117.09 0 0 1-1.887-.205 25.901 25.901 0 0 1-.911-.372c-.524.099-.787.133-1.317.204.563.216.845.32 1.414.555.34-.07.51-.1.847-.161.756.09 1.134.131 1.892.21l.01.061c-.719-.075-1.077-.115-1.795-.2-.927.174-1.394.247-2.338.592-.963-.135-1.445-.207-2.408-.358a11.17 11.17 0 0 0-.393-.238 8.329 8.329 0 0 0-.938.282c.299.213.45.329.75.582 1.455.238 2.182.348 3.637.55.946-.552 1.414-.695 2.344-.939.48.056.72.083 1.2.134l.01.078c-.441-.048-.661-.072-1.102-.123-.16.045-.24.07-.401.12.166.083.25.126.416.215.45.053.675.078 1.124.127l.01.1c-.488-.053-.732-.08-1.22-.138-.19-.107-.286-.158-.475-.255-.35.119-.527.187-.88.35.332.211.499.325.833.575.72.09 1.08.132 1.801.212l.01.151c-.76-.084-1.14-.13-1.9-.225" fill="#000" mask="url(#j)"/><path d="M21.215 2.42c-3.553-.024-7.15-.217-10.687-.559l-.01-.28c3.536.34 7.131.534 10.683.558l.014.282M21.314 4.05c-3.564-.026-7.171-.223-10.717-.571l-.01-.197c3.545.347 7.15.543 10.713.569l.014.199M22.046 9.737a110.273 110.273 0 0 1-10.936-.75c-.003-.08-.005-.12-.01-.196 3.61.425 7.298.684 10.932.747l.014.2M22.145 11.448a109.124 109.124 0 0 1-10.965-.76l-.01-.28c3.619.432 7.316.695 10.96.76.007.11.01.165.015.28M14.983 7.356c.138.068.208.104.346.177.883.066 1.323.095 2.205.146.123-.057.184-.084.306-.136-.605-.268-.908-.38-1.51-.593-.538.14-.806.215-1.347.406m1.498-.444c.6.207.9.315 1.503.572.341-.139.512-.2.853-.313-.587-.206-.88-.296-1.465-.481l-.167-.054c-.401-.128-.601-.191-1-.326l-.167-.057a15.506 15.506 0 0 1-1.492-.581c-.34.13-.51.185-.851.283.578.22.868.316 1.45.51l.167.055c.4.132.6.197 1.002.334.067.022.1.034.167.058M14.69 5.616c.597.274.896.386 1.496.597.534-.143.8-.223 1.332-.434a10.21 10.21 0 0 1-.345-.168c-.874-.043-1.31-.068-2.182-.125-.12.055-.18.08-.301.13m5.404 3.194a10.23 10.23 0 0 0-.908-.582 7.44 7.44 0 0 0-.74.508 101.69 101.69 0 0 1-3.827-.26 9.86 9.86 0 0 0-.841-.61 7.795 7.795 0 0 0-.815.46c-.76-.073-1.14-.113-1.9-.198l-.01-.15c.722.08 1.082.117 1.803.187 1.335-.79 1.995-.94 3.308-1.274-.401-.14-.602-.205-1.002-.338-1.17.26-1.758.348-2.947.808-.488-.049-.733-.074-1.22-.127l-.01-.101c.45.049.674.072 1.124.117.152-.054.229-.08.38-.129a12.44 12.44 0 0 0-.441-.214c-.44-.043-.661-.066-1.102-.114-.003-.031-.005-.047-.01-.077.48.051.72.076 1.2.123.202.09.303.137.504.235.363-.112.543-.16.904-.248a26.38 26.38 0 0 0-.87-.34c-.72-.065-1.078-.1-1.796-.175a1.971 1.971 0 0 1-.01-.06c.758.078 1.137.115 1.896.183.371.137.557.206.93.355.522-.125.782-.177 1.301-.292-.579-.192-.867-.287-1.442-.502-.332.091-.498.13-.83.205a113.04 113.04 0 0 1-1.893-.18l-.01-.061c.716.073 1.074.107 1.79.17.913-.21 1.367-.316 2.27-.751.95.062 1.426.09 2.379.134.162.087.244.128.407.207.354-.148.532-.231.886-.427a8.59 8.59 0 0 1-.776-.51 109.577 109.577 0 0 1-3.563-.196c-.902.634-1.354.806-2.265 1.08-.475-.042-.713-.065-1.187-.112l-.01-.078c.435.043.653.064 1.088.104.158-.051.236-.078.394-.137a11.81 11.81 0 0 1-.41-.202c-.445-.04-.666-.06-1.11-.104l-.01-.1c.48.046.722.069 1.203.111.187.101.281.149.469.24.341-.135.511-.212.851-.398a9.29 9.29 0 0 1-.823-.54c-.704-.059-1.056-.09-1.758-.157l-.01-.15c.739.07 1.109.102 1.85.162.352.267.528.387.882.605.294-.169.44-.264.734-.483 1.5.103 2.254.145 3.763.205.335.256.502.369.838.576.318-.184.477-.287.794-.521.748.02 1.122.027 1.872.036l.014.154c-.712-.009-1.067-.016-1.777-.034-1.299.903-1.948 1.086-3.254 1.428.4.138.6.201 1.002.33 1.165-.288 1.744-.412 2.902-.984.484.011.727.016 1.21.022l.015.104a98.57 98.57 0 0 1-1.116-.02c-.149.07-.223.102-.371.165.177.079.267.116.445.188.438.01.657.014 1.096.02l.014.082c-.478-.007-.718-.012-1.196-.023-.203-.08-.305-.12-.507-.208-.355.142-.533.203-.888.314.35.13.526.188.878.303.719.023 1.078.031 1.797.042a4.7 4.7 0 0 1 .014.066 96.763 96.763 0 0 1-1.896-.046 24.577 24.577 0 0 1-.941-.32c-.514.156-.772.22-1.288.347.581.184.873.272 1.457.472.33-.108.495-.157.825-.255.758.025 1.138.034 1.897.047l.014.065a97.26 97.26 0 0 1-1.798-.045c-.904.277-1.358.403-2.269.85a101.62 101.62 0 0 1-2.405-.16 11.39 11.39 0 0 0-.41-.216c-.36.133-.54.207-.903.381.312.198.468.305.78.54 1.45.12 2.175.17 3.622.246.912-.653 1.364-.848 2.27-1.196.479.014.718.02 1.197.029l.014.082c-.439-.009-.659-.014-1.099-.026a9.691 9.691 0 0 0-.39.165c.17.072.254.109.424.186.448.013.672.019 1.12.028l.013.104a93.42 93.42 0 0 1-1.215-.03c-.193-.095-.29-.139-.483-.224-.34.158-.51.245-.851.447.338.189.508.291.847.518.715.026 1.073.037 1.787.052l.014.154a93.095 93.095 0 0 1-1.885-.057" fill="#000" mask="url(#j)"/><path d="M32.125 2.038c-3.607.316-7.29.441-10.91.383l-.014-.282c3.621.059 7.305-.066 10.913-.38l.011.279M32.204 3.663c-3.6.32-7.278.446-10.89.387l-.014-.2c3.613.06 7.292-.066 10.893-.386l.01.199M32.79 9.411a91.35 91.35 0 0 1-10.744.326l-.014-.199c3.559.1 7.2-.003 10.746-.325l.011.198M32.868 11.117a89.713 89.713 0 0 1-10.723.331 97.01 97.01 0 0 0-.014-.28c3.551.1 7.188-.004 10.726-.33l.01.279M25.835 7.697c.14.057.208.087.347.15.875-.018 1.312-.031 2.184-.067.121-.07.181-.104.302-.17a16.5 16.5 0 0 0-1.503-.473c-.532.203-.798.307-1.33.56m1.48-.615c.6.16.9.244 1.496.452.338-.179.508-.26.847-.412-.58-.158-.872-.224-1.456-.364l-.167-.04c-.4-.096-.602-.144-1.003-.25l-.168-.044a14.785 14.785 0 0 1-1.508-.47c-.34.168-.509.242-.848.378.587.18.88.254 1.467.404l.167.043c.403.103.605.152 1.006.258l.168.045m-1.816-1.2c.605.23.908.32 1.512.486.533-.203.8-.313 1.336-.583a8.646 8.646 0 0 1-.347-.14c-.88.038-1.32.053-2.2.075-.12.067-.18.1-.301.162m5.386 2.797a8.96 8.96 0 0 0-.89-.5 8.616 8.616 0 0 0-.73.592 84.633 84.633 0 0 1-3.772.113 8.928 8.928 0 0 0-.84-.544c-.318.199-.477.307-.796.55a90.134 90.134 0 0 1-1.88-.024 12.718 12.718 0 0 0-.014-.153c.715.015 1.072.02 1.786.023 1.3-.937 1.948-1.162 3.25-1.644-.401-.11-.603-.16-1.006-.263-1.16.393-1.74.547-2.9 1.139-.485-.005-.728-.008-1.214-.018l-.014-.104c.448.008.672.012 1.119.016.148-.071.223-.106.372-.171a12.324 12.324 0 0 0-.447-.183 93.654 93.654 0 0 1-1.098-.016l-.014-.081c.48.009.719.012 1.198.016.203.076.305.116.509.2.354-.152.532-.22.887-.35a27.848 27.848 0 0 0-.88-.278 95.398 95.398 0 0 1-1.798-.017l-.014-.065c.76.013 1.14.016 1.9.016.376.113.564.169.94.291.514-.184.771-.265 1.287-.438-.584-.15-.876-.223-1.46-.399a17.66 17.66 0 0 1-.822.299c-.76 0-1.14-.002-1.899-.015a3.255 3.255 0 0 1-.014-.065c.719.012 1.078.014 1.797.014.903-.312 1.354-.47 2.259-1.003a90.486 90.486 0 0 0 2.4-.083c.163.075.245.11.409.176.358-.187.537-.29.896-.524a7.72 7.72 0 0 1-.78-.448 92.943 92.943 0 0 1-3.61.126c-.906.728-1.357.95-2.259 1.325a95.418 95.418 0 0 1-1.196-.011 3.799 3.799 0 0 0-.014-.082c.439.006.658.008 1.097.01.156-.068.234-.103.39-.18a10.727 10.727 0 0 1-.42-.173c-.448-.002-.673-.004-1.121-.01l-.014-.104c.486.006.73.008 1.216.01.192.088.288.13.48.208.34-.172.509-.268.848-.49a8.928 8.928 0 0 1-.844-.483c-.714.003-1.071 0-1.784-.007l-.014-.154c.75.009 1.126.01 1.88.007.36.242.541.35.903.542.294-.2.441-.31.736-.56a94.012 94.012 0 0 0 3.814-.133c.338.228.507.328.845.507.323-.219.484-.338.808-.605.757-.051 1.135-.08 1.893-.144l.011.154c-.719.061-1.078.088-1.796.137-1.324 1.04-1.979 1.297-3.284 1.786.402.107.604.155 1.005.251 1.163-.42 1.746-.61 2.924-1.31.487-.036.731-.055 1.219-.096l.01.105c-.448.039-.673.056-1.122.09-.151.086-.226.126-.377.205.177.065.266.095.443.152.44-.033.66-.05 1.1-.088l.011.083c-.48.04-.719.06-1.199.095a10.434 10.434 0 0 1-.505-.165c-.36.181-.539.262-.896.413.35.101.525.146.873.232a82.465 82.465 0 0 0 1.794-.136l.011.066c-.756.065-1.134.093-1.891.144-.374-.091-.562-.138-.937-.243-.517.213-.776.306-1.29.492.58.139.87.203 1.448.354.33-.146.495-.214.826-.351.756-.05 1.133-.079 1.887-.143l.012.067c-.715.06-1.073.088-1.788.136-.907.383-1.358.562-2.258 1.114-.95.04-1.427.054-2.382.073a10.33 10.33 0 0 0-.408-.186 9.646 9.646 0 0 0-.886.482 9 9 0 0 1 .78.479 84.374 84.374 0 0 0 3.57-.107c.899-.756 1.348-1.004 2.253-1.458.475-.035.712-.053 1.186-.094.005.033.007.05.01.083-.433.037-.65.054-1.085.086-.156.082-.234.124-.39.212.166.056.25.086.415.148.442-.032.663-.05 1.104-.087l.012.105c-.479.041-.719.06-1.198.095-.19-.077-.284-.112-.474-.18a9.131 9.131 0 0 0-.845.545c.332.16.498.246.83.442a82.21 82.21 0 0 0 1.754-.133c.005.06.007.09.01.154-.737.063-1.107.09-1.848.139" fill="#000" mask="url(#j)"/><path d="M43.223.536c-3.64.711-7.399 1.217-11.098 1.502-.004-.11-.007-.165-.01-.28A97.83 97.83 0 0 0 43.222.26v.277zM43.223 2.145a94.718 94.718 0 0 1-11.02 1.518l-.01-.2a95.142 95.142 0 0 0 11.03-1.515v.197zM43.223 7.867A76.508 76.508 0 0 1 32.79 9.41a23.859 23.859 0 0 0-.01-.198A76.837 76.837 0 0 0 43.222 7.67v.197zM43.223 9.555a74.353 74.353 0 0 1-10.355 1.562l-.011-.28a74.624 74.624 0 0 0 10.366-1.559v.277zM36.561 6.938c.133.044.2.067.331.115.86-.113 1.289-.175 2.144-.308.123-.086.185-.127.309-.208a14.495 14.495 0 0 0-1.434-.319c-.543.267-.813.404-1.35.72m1.504-.793c.575.101.86.154 1.425.299.347-.22.52-.321.87-.516-.55-.096-.828-.133-1.388-.213l-.16-.024c-.384-.056-.578-.084-.966-.15l-.162-.028a12.939 12.939 0 0 1-1.466-.325c-.351.207-.525.3-.873.476.574.126.86.172 1.427.266l.163.027c.39.064.583.094.969.16l.16.028M36.366 5.1c.592.172.887.234 1.472.34.548-.266.824-.407 1.381-.74-.134-.04-.2-.06-.335-.106-.883.134-1.323.195-2.206.309-.125.081-.187.12-.312.197m5.063 2.263a7.076 7.076 0 0 0-.83-.4 10.06 10.06 0 0 0-.744.681 71.05 71.05 0 0 1-3.679.538 7.282 7.282 0 0 0-.803-.46 10.32 10.32 0 0 0-.796.643c-.734.078-1.103.113-1.841.176a12.252 12.252 0 0 0-.011-.154c.701-.06 1.051-.093 1.75-.166 1.298-1.087 1.95-1.391 3.279-2.03-.386-.07-.58-.1-.97-.165-1.185.531-1.77.756-2.931 1.483-.478.047-.717.069-1.195.11l-.012-.106c.442-.038.662-.057 1.103-.1.149-.09.223-.132.373-.215a10.73 10.73 0 0 0-.434-.142c-.434.042-.65.061-1.085.098a4.737 4.737 0 0 0-.011-.083c.474-.04.71-.062 1.184-.108.198.058.297.088.494.153.357-.194.536-.283.894-.454-.34-.085-.511-.123-.855-.198-.713.074-1.07.107-1.784.168l-.012-.067a81.61 81.61 0 0 0 1.887-.178c.367.078.55.117.914.204.52-.245.782-.357 1.308-.592-.565-.094-.849-.14-1.42-.261a21.73 21.73 0 0 1-.84.395c-.756.08-1.134.115-1.892.18l-.01-.067a81.233 81.233 0 0 0 1.791-.17c.919-.419 1.382-.63 2.319-1.266.963-.123 1.445-.19 2.408-.337.159.058.238.085.396.134.372-.228.559-.351.935-.626a6.66 6.66 0 0 1-.755-.367 84.982 84.982 0 0 1-3.639.504c-.94.827-1.404 1.1-2.325 1.58-.479.046-.719.068-1.198.109l-.011-.083c.44-.038.66-.058 1.1-.1.159-.086.239-.13.4-.224a9.624 9.624 0 0 1-.416-.137c-.451.044-.676.064-1.127.102a6.003 6.003 0 0 1-.011-.105c.489-.042.733-.064 1.222-.112.19.071.286.104.476.166.347-.211.521-.326.871-.586a8.007 8.007 0 0 1-.834-.404c-.722.073-1.082.107-1.803.168l-.011-.154c.76-.064 1.14-.1 1.9-.178.359.208.538.298.894.458.304-.234.456-.36.762-.642a85.266 85.266 0 0 0 3.848-.532c.328.193.492.275.816.42.34-.256.509-.393.85-.697a81.49 81.49 0 0 0 1.906-.353v.154c-.723.14-1.084.208-1.807.336-1.395 1.188-2.076 1.521-3.42 2.166.39.067.583.095.968.151 1.197-.56 1.803-.82 3.04-1.657.488-.09.732-.137 1.219-.233v.105c-.449.089-.673.132-1.123.215-.158.104-.237.154-.395.25.17.046.254.067.422.104.438-.082.658-.125 1.096-.212v.083c-.477.095-.716.142-1.194.23a9.006 9.006 0 0 1-.48-.111c-.377.224-.564.326-.935.52.334.066.5.092.83.142a74.88 74.88 0 0 0 1.779-.342v.067c-.748.152-1.124.223-1.874.36a18.824 18.824 0 0 1-.89-.146c-.538.275-.804.399-1.334.648.557.08.833.114 1.38.204.34-.187.51-.275.854-.453.747-.136 1.12-.208 1.864-.36v.067c-.704.144-1.057.213-1.764.342-.94.495-1.404.73-2.32 1.392a74.51 74.51 0 0 1-2.336.337 8.429 8.429 0 0 0-.391-.145c-.358.216-.536.331-.892.587.3.143.449.222.746.4 1.4-.175 2.098-.276 3.485-.508.912-.864 1.373-1.167 2.309-1.734.465-.09.699-.136 1.163-.232v.083a72.7 72.7 0 0 1-1.065.214c-.161.1-.242.152-.402.26.156.037.233.058.388.101a64.53 64.53 0 0 0 1.079-.217v.105c-.466.098-.7.145-1.169.236a8.668 8.668 0 0 0-.443-.127c-.35.239-.523.367-.868.649.312.122.467.19.776.347.684-.13 1.025-.197 1.704-.341v.153c-.715.151-1.074.223-1.795.36" fill="#000" mask="url(#j)"/></g><mask id="l" fill="#fff"><use xlink:href="#k"/></mask><path d="M57.764 48.42a110.51 110.51 0 0 1-3.789-.394c-.337.063-.508.094-.845.162-.57-.233-.853-.337-1.414-.555.528-.069.791-.105 1.315-.205.363.156.547.23.913.375.753.087 1.13.127 1.887.204.756.079 1.134.113 1.89.181.334-.077.499-.113.83-.204.576.215.865.309 1.445.502-.52.113-.779.167-1.303.291-.371-.15-.558-.218-.93-.357m10.834.502a109.748 109.748 0 0 1-3.794-.065c-.329.099-.496.147-.825.255-.584-.199-.875-.286-1.456-.47.516-.128.774-.193 1.286-.347.377.134.564.196.941.318.76.026 1.14.034 1.896.045.76.014 1.14.017 1.898.014.33-.11.494-.17.825-.297.584.176.876.25 1.46.4-.516.172-.774.252-1.29.436a27.062 27.062 0 0 0-.94-.289m10.802-.55c-.754.08-1.133.116-1.887.179-.754.065-1.134.093-1.888.144-.331.136-.495.204-.824.351-.579-.15-.87-.215-1.451-.354.516-.187.774-.278 1.292-.493.374.105.561.153.935.244.757-.051 1.137-.08 1.894-.144a72.73 72.73 0 0 0 1.89-.18c.334-.15.504-.229.841-.396.57.122.853.167 1.42.264-.527.232-.788.345-1.31.589-.362-.085-.546-.124-.912-.204m4.483-1.79c.133.045.202.064.335.107-.556.331-.833.473-1.38.74a12.3 12.3 0 0 1-1.474-.343c.125-.077.187-.114.312-.196a81.818 81.818 0 0 0 2.207-.309m-5.418.669c.164.06.25.085.414.136-.159.093-.241.139-.4.224-.44.042-.66.062-1.1.102-.438.036-.66.054-1.1.088-.175-.06-.265-.088-.441-.153.15-.08.224-.12.377-.205.448-.033.672-.05 1.122-.09.451-.037.674-.06 1.128-.102m-5.464.383c.14.059.207.087.346.141-.536.27-.802.38-1.335.581a13.847 13.847 0 0 1-1.513-.484c.122-.063.181-.097.303-.165.879-.02 1.318-.034 2.2-.073m-5.402.107c.17.074.252.108.422.176-.156.074-.235.11-.39.178-.44-.002-.659-.005-1.098-.01-.439-.007-.657-.01-1.096-.02a9.79 9.79 0 0 1-.445-.188c.147-.062.224-.096.371-.164.445.008.669.014 1.117.02.447.005.671.005 1.119.008m-5.427-.142c.14.071.207.102.346.168-.533.212-.8.291-1.332.436-.6-.212-.901-.326-1.496-.598.119-.05.181-.076.3-.13.873.057 1.31.082 2.182.125m-5.35-.369c.164.082.246.125.41.201-.158.06-.237.085-.393.137-.436-.04-.655-.06-1.088-.103l-1.086-.113a8.643 8.643 0 0 1-.43-.215c.15-.046.223-.071.374-.125.442.048.663.07 1.105.113.442.043.663.066 1.108.105m-5.364-.584c.133.077.197.114.33.187a9.916 9.916 0 0 1-1.36.292 14.714 14.714 0 0 1-1.43-.672c.124-.036.186-.056.308-.096.86.122 1.29.179 2.151.29m-2.026 1.603c-.133-.079-.198-.118-.332-.193.559-.133.837-.178 1.392-.257.581.243.873.374 1.462.677-.124.04-.19.06-.315.102a112.22 112.22 0 0 1-2.207-.329m5.427.743c-.164-.088-.25-.13-.414-.213.159-.05.241-.076.4-.122.442.051.66.077 1.102.122.44.048.66.07 1.1.116.178.082.266.125.442.213-.15.048-.227.074-.38.13-.45-.045-.674-.07-1.125-.119-.45-.048-.674-.074-1.125-.127m5.47.527a10.61 10.61 0 0 0-.346-.176c.54-.193.81-.266 1.346-.408.603.215.907.326 1.51.595-.122.051-.181.08-.306.136a96.44 96.44 0 0 1-2.205-.147m5.419.286c-.17-.076-.256-.116-.422-.187.155-.068.232-.102.388-.164.44.011.66.017 1.099.025.44.009.66.012 1.097.015.181.07.27.107.448.184a6.746 6.746 0 0 0-.371.172c-.449-.005-.672-.008-1.12-.017a73.35 73.35 0 0 1-1.12-.028m5.436.028c-.139-.062-.207-.093-.346-.15.53-.252.797-.357 1.33-.558.603.164.903.252 1.501.47-.119.068-.18.102-.3.173-.873.034-1.31.048-2.185.065m5.359-.246c-.164-.063-.25-.093-.414-.15a8.71 8.71 0 0 1 .388-.21c.437-.034.652-.051 1.088-.088.434-.037.65-.057 1.083-.096.176.054.26.08.434.141-.148.083-.224.125-.372.216-.442.042-.663.062-1.102.1-.442.036-.663.053-1.105.087m5.35-.547c-.13-.048-.198-.071-.328-.116.535-.315.804-.451 1.348-.72.579.108.864.164 1.434.32-.124.08-.187.122-.309.207-.855.133-1.284.196-2.145.31" fill="#000" mask="url(#l)"/><path d="M57.764 48.42a110.39 110.39 0 0 1-3.789-.394c-.338.063-.508.094-.845.162-.57-.233-.853-.337-1.414-.555.528-.069.791-.105 1.315-.205.363.156.547.23.913.375.753.087 1.13.127 1.887.204.756.079 1.134.113 1.89.181.334-.077.499-.113.83-.204.576.215.865.309 1.445.502-.52.113-.779.167-1.303.291-.371-.15-.558-.218-.93-.357zm10.833.502a109.526 109.526 0 0 1-3.794-.065c-.329.099-.496.147-.825.255-.584-.199-.875-.286-1.456-.47a23.24 23.24 0 0 0 1.286-.347c.377.134.564.196.941.318.76.026 1.14.034 1.896.045.76.014 1.14.017 1.898.014.33-.11.494-.17.825-.297.584.176.876.25 1.46.4-.516.172-.774.252-1.29.436a27.332 27.332 0 0 0-.94-.29zm10.803-.55c-.754.08-1.133.116-1.887.179-.754.065-1.134.093-1.888.144-.331.136-.495.204-.824.351-.579-.15-.87-.215-1.451-.354.515-.187.774-.277 1.292-.493.374.105.561.153.935.244.757-.051 1.137-.08 1.893-.144.757-.063 1.134-.1 1.89-.18.335-.15.505-.229.842-.396.57.122.853.167 1.42.264-.527.232-.788.345-1.31.589-.362-.085-.546-.125-.912-.204zm4.483-1.79c.133.045.202.064.335.107a15.33 15.33 0 0 1-1.38.74c-.587-.108-.882-.17-1.474-.343.125-.077.187-.114.312-.196a82.164 82.164 0 0 0 2.207-.309zm-5.418.668c.164.06.25.085.414.136a9.4 9.4 0 0 1-.4.224c-.44.042-.66.062-1.1.102-.438.036-.66.054-1.1.088-.175-.06-.265-.088-.441-.153.15-.08.224-.12.377-.205.448-.033.672-.05 1.122-.09.45-.037.674-.06 1.128-.102zm-5.464.383c.139.059.207.087.346.141-.536.27-.802.38-1.335.581a13.834 13.834 0 0 1-1.513-.485c.122-.062.181-.096.303-.164.879-.02 1.318-.034 2.2-.073zm-5.401.107c.17.074.252.108.422.176-.156.074-.235.11-.39.178-.44-.002-.659-.005-1.098-.01-.439-.007-.657-.01-1.096-.02a9.868 9.868 0 0 1-.445-.188c.147-.062.224-.096.371-.164.445.008.669.014 1.117.02.447.005.67.005 1.119.008zm-5.427-.142c.139.071.207.102.346.168-.533.212-.8.291-1.332.436-.601-.212-.901-.326-1.496-.598.119-.05.181-.076.3-.13.873.057 1.31.082 2.182.124zm-5.35-.368c.164.082.246.125.41.201-.158.06-.237.085-.393.136-.436-.04-.655-.06-1.088-.102l-1.086-.113a8.681 8.681 0 0 1-.43-.215c.15-.046.223-.071.374-.125.442.048.663.07 1.105.113.442.043.663.066 1.108.105zm-5.365-.584c.134.077.198.114.332.187a9.91 9.91 0 0 1-1.36.292 14.713 14.713 0 0 1-1.431-.672 9.18 9.18 0 0 0 .308-.096c.86.122 1.29.179 2.151.29zm-2.026 1.604c-.133-.08-.198-.119-.331-.193.558-.133.835-.178 1.39-.257.582.243.874.374 1.463.677-.124.04-.19.06-.315.102-.884-.125-1.326-.19-2.207-.329zm5.427.743c-.164-.088-.25-.13-.414-.213.159-.05.241-.076.4-.122.442.051.66.077 1.102.122.44.048.66.07 1.1.116.178.082.266.125.442.213-.15.048-.227.074-.38.13-.45-.045-.674-.07-1.125-.119-.45-.048-.674-.074-1.125-.127zm5.47.527a10.538 10.538 0 0 0-.346-.176c.54-.193.81-.266 1.345-.408.604.215.908.326 1.511.595-.122.051-.181.08-.306.136-.881-.051-1.32-.079-2.205-.147zm5.418.286c-.17-.077-.256-.116-.422-.187.155-.068.232-.102.388-.164.439.011.66.017 1.099.025.44.009.66.012 1.097.014.181.071.27.108.448.185a6.81 6.81 0 0 0-.372.172 146.6 146.6 0 0 1-1.119-.017 73.487 73.487 0 0 1-1.12-.028zm5.435.028c-.139-.062-.207-.093-.346-.15.53-.252.797-.357 1.33-.558.603.164.903.252 1.501.47-.119.068-.181.102-.3.173-.873.034-1.31.048-2.185.065zm5.359-.246c-.164-.063-.25-.094-.414-.15.156-.088.233-.13.388-.21.437-.034.652-.051 1.088-.088.434-.037.65-.057 1.083-.096.176.054.26.08.434.141-.148.083-.224.125-.372.216-.442.042-.663.062-1.102.1-.442.036-.663.053-1.105.087zm5.35-.547c-.13-.048-.198-.071-.328-.116.535-.315.804-.451 1.348-.72.578.107.864.164 1.434.32-.124.08-.187.122-.309.207-.855.133-1.284.196-2.145.31z" stroke="#000" stroke-width=".398" mask="url(#l)"/><path d="M85.208 47.867c-.547-.088-.526-.158-1.084-.237.53-.25.796-.371 1.335-.647.357.066.088.7-.251.884" fill="#000" mask="url(#l)"/><path d="M85.208 47.867c-.547-.088-.526-.158-1.084-.237.53-.25.796-.371 1.335-.647.357.066.089.7-.251.884z" stroke="#000" stroke-width=".398" mask="url(#l)"/><path d="M49.208 47.278c-.535.057-.805.082-1.346.148l-.034-.717c.547.24.825.348 1.38.57" fill="#000" mask="url(#l)"/><path d="M49.208 47.278c-.535.057-.805.082-1.346.148l-.034-.717c.547.24.825.348 1.38.57z" stroke="#000" stroke-width=".398" mask="url(#l)"/><path d="M84.345 48.525c-.124.08-.187.122-.309.207-.855.133-1.283.196-2.145.309-.13-.048-.198-.071-.329-.116.536-.315.805-.451 1.35-.72.578.107.863.164 1.433.32" fill="#000" mask="url(#l)"/><path d="M84.345 48.525c-.124.08-.187.122-.309.207-.855.133-1.283.196-2.145.31-.13-.05-.198-.072-.328-.117.535-.315.804-.451 1.348-.72.578.107.864.164 1.434.32z" stroke="#000" stroke-width=".398" mask="url(#l)"/><path d="M84.218 46.689c-.556.332-.834.473-1.38.74-.587-.108-.882-.17-1.474-.343.125-.077.187-.114.312-.196a82.39 82.39 0 0 0 2.208-.309c.133.046.2.065.334.108" fill="#000" mask="url(#l)"/><path d="M84.218 46.689a15.24 15.24 0 0 1-1.38.74c-.587-.108-.882-.17-1.474-.343.125-.077.187-.114.312-.196a82.364 82.364 0 0 0 2.208-.309c.133.046.2.065.334.108z" stroke="#000" stroke-width=".398" mask="url(#l)"/><path d="M79.12 49.185a8.487 8.487 0 0 0-.372.216 80.78 80.78 0 0 1-1.102.1c-.442.036-.663.053-1.105.087-.165-.062-.25-.094-.414-.15.156-.088.233-.13.389-.21.435-.034.651-.051 1.087-.088.434-.037.65-.057 1.083-.096.176.053.261.08.433.141" fill="#000" mask="url(#l)"/><path d="M79.12 49.185a8.528 8.528 0 0 0-.372.216c-.442.042-.663.062-1.102.1-.442.036-.663.053-1.105.087-.165-.062-.25-.094-.414-.15.156-.088.232-.13.389-.21.435-.034.651-.051 1.087-.088.434-.037.65-.057 1.083-.096.176.054.261.08.433.141z" stroke="#000" stroke-width=".398" mask="url(#l)"/><path d="M78.879 47.386c-.159.093-.241.139-.4.224-.439.042-.66.062-1.1.102-.438.037-.66.054-1.1.088-.175-.06-.266-.088-.441-.153.15-.08.224-.12.377-.204.448-.034.671-.051 1.122-.091.45-.037.675-.06 1.128-.102.164.06.25.085.414.136" fill="#000" mask="url(#l)"/><path d="M78.879 47.386a9.015 9.015 0 0 1-.4.224c-.439.042-.66.062-1.1.102-.438.037-.66.054-1.1.088-.175-.06-.265-.088-.441-.153.15-.08.224-.12.377-.205.448-.033.672-.05 1.122-.09.451-.037.675-.06 1.128-.102.164.06.25.085.414.136z" stroke="#000" stroke-width=".398" mask="url(#l)"/><path d="M81.622 47.987c-.527.232-.788.345-1.31.59-.362-.086-.546-.126-.912-.205-.754.08-1.134.116-1.887.179-.754.065-1.134.093-1.887.144-.332.136-.497.204-.825.351-.579-.15-.87-.215-1.451-.354.516-.187.774-.277 1.292-.493.374.105.561.153.935.244a84.82 84.82 0 0 0 1.893-.145c.757-.062 1.134-.099 1.89-.178.335-.15.505-.23.842-.397.57.122.853.167 1.42.264" fill="#000" mask="url(#l)"/><path d="M81.622 47.987c-.527.232-.788.345-1.31.59-.362-.086-.546-.126-.912-.205-.754.08-1.134.116-1.887.179-.754.065-1.134.093-1.887.144a23.13 23.13 0 0 0-.825.351c-.579-.15-.87-.215-1.451-.354.516-.187.774-.277 1.292-.493.374.105.561.153.935.244.757-.05 1.137-.08 1.893-.144.757-.063 1.134-.1 1.89-.179.335-.15.505-.23.842-.397.57.122.853.167 1.42.264z" stroke="#000" stroke-width=".398" mask="url(#l)"/><path d="M73.667 49.596c-.119.068-.181.102-.3.173-.873.034-1.31.049-2.185.065-.139-.062-.207-.093-.346-.15a14.5 14.5 0 0 1 1.33-.558c.603.164.903.252 1.501.47" fill="#000" mask="url(#l)"/><path d="M73.667 49.596c-.119.068-.181.102-.3.173a90.94 90.94 0 0 1-2.185.065c-.139-.062-.207-.093-.346-.15.53-.252.797-.357 1.33-.558.603.164.903.252 1.501.47z" stroke="#000" stroke-width=".398" mask="url(#l)"/><path d="M73.347 47.774c-.536.27-.802.38-1.335.581a13.824 13.824 0 0 1-1.513-.484c.122-.063.182-.097.303-.165.878-.02 1.318-.034 2.2-.073.138.059.206.087.345.141" fill="#000" mask="url(#l)"/><path d="M73.347 47.774c-.536.27-.802.38-1.335.581a13.81 13.81 0 0 1-1.513-.484c.122-.063.182-.097.303-.165a82.96 82.96 0 0 0 2.2-.073c.138.06.206.088.345.141z" stroke="#000" stroke-width=".398" mask="url(#l)"/><path d="M68.357 49.678c-.148.066-.224.1-.371.173-.449-.005-.672-.008-1.12-.017a73.348 73.348 0 0 1-1.12-.028c-.17-.076-.255-.116-.421-.187.155-.068.232-.102.388-.164.44.01.66.017 1.099.025.44.009.66.011 1.097.014.181.071.27.108.448.184" fill="#000" mask="url(#l)"/><path d="M68.357 49.678c-.148.066-.224.1-.372.173a146.605 146.605 0 0 1-2.238-.045c-.17-.076-.256-.116-.422-.187.155-.068.232-.102.388-.164.44.01.66.017 1.099.025.44.009.66.011 1.097.014.181.071.27.108.448.184z" stroke="#000" stroke-width=".398" mask="url(#l)"/><path d="M68.022 47.916c-.155.074-.235.11-.39.178-.44-.002-.658-.005-1.098-.011-.439-.005-.657-.009-1.096-.02a10.398 10.398 0 0 1-.445-.187c.147-.062.224-.096.371-.164.445.008.669.014 1.117.02.448.005.671.005 1.12.008.169.074.251.108.421.176" fill="#000" mask="url(#l)"/><path d="M68.022 47.916c-.155.074-.235.11-.39.178-.44-.003-.658-.005-1.098-.011-.439-.005-.657-.009-1.096-.02a10.297 10.297 0 0 1-.445-.187c.147-.062.224-.096.37-.164.446.008.67.014 1.117.02.449.005.672.005 1.12.008.17.074.252.108.422.176z" stroke="#000" stroke-width=".398" mask="url(#l)"/><path d="M70.828 48.775c-.516.172-.774.252-1.29.436a27.49 27.49 0 0 0-.94-.29c-.757 0-1.14-.002-1.899-.016-.757-.014-1.137-.023-1.896-.048-.328.099-.496.147-.825.255-.583-.199-.875-.287-1.456-.47.516-.128.773-.194 1.287-.346.376.133.563.195.94.317.76.025 1.14.034 1.896.045.76.014 1.139.017 1.898.014.33-.11.494-.17.825-.297.584.175.876.25 1.46.4" fill="#000" mask="url(#l)"/><path d="M70.828 48.775c-.516.172-.774.252-1.29.436a27.575 27.575 0 0 0-.94-.29c-.757 0-1.14-.002-1.899-.016-.757-.014-1.137-.023-1.896-.048-.328.099-.496.147-.825.255-.583-.199-.875-.287-1.456-.47a23.32 23.32 0 0 0 1.286-.346c.377.133.564.195.941.317.76.025 1.14.034 1.896.045.76.015 1.139.017 1.899.015.328-.111.493-.17.824-.298.584.176.876.25 1.46.4z" stroke="#000" stroke-width=".398" mask="url(#l)"/><path d="M62.84 49.531c-.123.051-.183.08-.307.136-.882-.05-1.32-.079-2.205-.147a10.589 10.589 0 0 0-.345-.176c.54-.193.81-.266 1.346-.408.603.215.907.326 1.51.595" fill="#000" mask="url(#l)"/><path d="M62.84 49.531c-.123.051-.183.08-.307.136-.881-.05-1.32-.079-2.205-.147a10.523 10.523 0 0 0-.345-.176 13.9 13.9 0 0 1 1.346-.408c.603.215.907.326 1.51.595z" stroke="#000" stroke-width=".398" mask="url(#l)"/><path d="M62.519 47.766c-.533.212-.8.292-1.332.436-.6-.212-.901-.326-1.496-.598.119-.051.181-.076.3-.13.873.056 1.31.082 2.182.125.14.07.207.102.346.167" fill="#000" mask="url(#l)"/><path d="M62.519 47.766c-.533.212-.8.292-1.332.436-.601-.212-.901-.326-1.496-.598.119-.051.181-.076.3-.13.873.056 1.31.082 2.182.124.139.071.207.103.346.168z" stroke="#000" stroke-width=".398" mask="url(#l)"/><path d="M57.489 49.109c-.15.048-.227.074-.38.13-.45-.045-.675-.07-1.125-.119a81.2 81.2 0 0 1-1.125-.127c-.164-.088-.25-.13-.414-.213.16-.05.241-.076.4-.122.442.051.66.077 1.102.122.44.048.66.07 1.1.116.178.082.266.125.442.213" fill="#000" mask="url(#l)"/><path d="M57.489 49.109c-.15.048-.227.074-.38.13-.45-.045-.675-.07-1.125-.119a80.69 80.69 0 0 1-1.125-.127c-.164-.088-.25-.13-.414-.213.16-.05.241-.076.4-.122.442.051.66.077 1.102.122.44.048.66.07 1.1.116.178.082.266.125.442.213z" stroke="#000" stroke-width=".398" mask="url(#l)"/><path d="M59.997 48.486c-.522.113-.78.167-1.304.291-.37-.15-.558-.218-.93-.357a110.677 110.677 0 0 1-3.79-.394c-.335.063-.505.094-.843.162-.57-.232-.852-.337-1.414-.556.527-.067.791-.104 1.315-.204.363.156.547.23.913.374.754.088 1.13.128 1.887.205.757.079 1.134.113 1.89.18.334-.076.5-.113.83-.203.576.215.865.309 1.446.502" fill="#000" mask="url(#l)"/><path d="M59.997 48.486c-.522.113-.78.167-1.304.291-.37-.15-.558-.218-.93-.357a110.438 110.438 0 0 1-3.79-.394c-.335.063-.505.094-.843.162-.57-.232-.853-.337-1.414-.556.527-.067.791-.104 1.315-.204.363.156.547.23.913.374.754.088 1.13.128 1.887.205.757.079 1.134.113 1.89.18.334-.076.5-.113.83-.203.576.215.865.309 1.446.502z" stroke="#000" stroke-width=".398" mask="url(#l)"/><path d="M57.234 47.431c-.159.06-.238.085-.394.136-.437-.04-.655-.06-1.088-.102l-1.086-.113a8.643 8.643 0 0 1-.43-.216c.15-.045.223-.07.374-.124.442.048.663.07 1.105.113.442.043.663.066 1.108.105.164.083.246.125.41.201" fill="#000" mask="url(#l)"/><path d="M57.234 47.431c-.159.06-.238.085-.394.136-.436-.04-.655-.06-1.088-.102l-1.086-.113a8.68 8.68 0 0 1-.43-.216c.15-.045.223-.07.374-.124.442.048.663.07 1.105.113.442.043.663.065 1.108.105.164.082.246.125.41.201z" stroke="#000" stroke-width=".398" mask="url(#l)"/><path d="M51.954 48.477c-.125.04-.19.06-.315.102-.884-.125-1.326-.19-2.207-.329-.133-.08-.198-.119-.331-.193.558-.133.836-.178 1.391-.257.58.244.873.374 1.462.677" fill="#000" mask="url(#l)"/><path d="M51.954 48.477c-.125.04-.19.06-.314.102-.884-.125-1.326-.19-2.208-.329-.133-.08-.198-.119-.331-.193.558-.133.836-.178 1.391-.257.58.244.873.374 1.462.677z" stroke="#000" stroke-width=".398" mask="url(#l)"/><path d="M51.79 46.833a9.914 9.914 0 0 1-1.36.292 14.765 14.765 0 0 1-1.431-.672c.124-.036.187-.056.309-.096.858.122 1.289.179 2.15.29.134.076.199.113.332.186" fill="#000" mask="url(#l)"/><path d="M51.79 46.833a9.91 9.91 0 0 1-1.36.292 14.757 14.757 0 0 1-1.431-.671 8.95 8.95 0 0 0 .309-.097c.858.122 1.289.179 2.15.29.133.076.199.113.332.186z" stroke="#000" stroke-width=".398" mask="url(#l)"/><path d="M45.34 40.04c.159.129.415.288.649.411.238.133.491.248.744.362.51.223 1.038.418 1.574.59 1.074.343 2.175.621 3.289.844.556.116 1.118.207 1.678.308.563.081 1.125.173 1.69.246.566.066 1.132.14 1.699.199l1.704.159-1.711-.066c-.57-.027-1.14-.072-1.71-.106-.571-.042-1.14-.103-1.71-.154-.568-.071-1.138-.132-1.704-.218a30.706 30.706 0 0 1-3.383-.675 16.814 16.814 0 0 1-1.662-.522 10.014 10.014 0 0 1-.815-.343c-.135-.06-.269-.132-.402-.204-.138-.078-.256-.144-.415-.264a.374.374 0 0 1 .45-.596l.01.007.025.022zM46.17 38.041c.229.074.23.109.301.142l.17.1c.114.064.227.127.343.187.231.12.471.23.712.337.488.204.986.395 1.496.555 1.018.325 2.06.597 3.118.805.526.116 1.06.196 1.59.296l1.604.237 1.611.191 1.617.153-1.623-.06-1.624-.099-1.621-.145c-.54-.07-1.08-.118-1.618-.206a28.636 28.636 0 0 1-3.212-.634 18.076 18.076 0 0 1-1.58-.486c-.259-.098-.519-.198-.774-.313-.129-.057-.255-.12-.382-.18l-.186-.096c-.046-.032-.161-.068-.058-.046a.374.374 0 1 1 .116-.738M46.617 36.129c.058.015.116.034.172.055l.1.048.178.09.337.17c.225.108.452.212.684.309.461.195.936.367 1.417.523.962.31 1.95.56 2.95.763.998.212 2.008.367 3.021.512l1.525.183 1.53.147-1.537-.054-1.537-.09a45.983 45.983 0 0 1-3.067-.33 27.416 27.416 0 0 1-3.041-.593 17.933 17.933 0 0 1-1.497-.452 14.09 14.09 0 0 1-.735-.28l-.616-.264-.12-.05a.364.364 0 0 1 .236-.688M47.419 34.215c.193.047.303.103.42.152l.333.15a19.53 19.53 0 0 0 1.997.77c.908.294 1.842.524 2.783.72.94.203 1.895.35 2.85.49l1.438.176 1.443.14-1.45-.047-1.45-.084a43.374 43.374 0 0 1-2.896-.307 27.452 27.452 0 0 1-2.873-.55 20.238 20.238 0 0 1-2.11-.66l-.337-.128a2.22 2.22 0 0 0-.264-.084l-.04-.007a.373.373 0 0 1 .138-.734l.018.003M48.22 32.302c.31.07.489.165.712.249l.628.252c.418.16.84.313 1.27.446.856.273 1.732.492 2.617.68.885.192 1.781.333 2.68.464l1.352.17 1.357.136-1.364-.042-1.365-.078c-.909-.07-1.82-.15-2.724-.282-.906-.128-1.81-.29-2.705-.508a22.158 22.158 0 0 1-1.334-.369l-.654-.212c-.205-.066-.446-.151-.586-.168l-.01-.001a.373.373 0 1 1 .127-.737M48.81 30.39c.494.116.859.282 1.265.422.398.145.796.281 1.199.405.804.25 1.625.458 2.454.636.83.172 1.667.319 2.51.437a53.9 53.9 0 0 0 2.538.294 53.98 53.98 0 0 1-2.558-.108 39.618 39.618 0 0 1-2.554-.255 28.845 28.845 0 0 1-2.537-.463c-.42-.096-.838-.206-1.252-.324-.406-.11-.84-.255-1.182-.307l-.026-.004a.374.374 0 1 1 .142-.734M49.753 28.476c.438.095.806.232 1.187.355.376.126.75.246 1.128.36.754.227 1.52.421 2.294.584.774.16 1.554.305 2.34.413.786.116 1.577.202 2.368.28a49.73 49.73 0 0 1-2.387-.094c-.796-.047-1.59-.13-2.385-.231a28.046 28.046 0 0 1-2.37-.41 40.032 40.032 0 0 1-1.17-.275c-.385-.093-.776-.199-1.121-.244l-.011-.001a.374.374 0 1 1 .127-.737M50.767 26.563c.773.17 1.449.414 2.161.608.706.2 1.417.378 2.136.53 1.438.306 2.901.507 4.372.653a39.881 39.881 0 0 1-4.434-.285 32.21 32.21 0 0 1-2.204-.353c-.727-.135-1.465-.327-2.147-.415l-.012-.002a.374.374 0 1 1 .128-.736M52.064 24.65c.695.148 1.344.341 2.003.512.657.173 1.316.33 1.98.469 1.33.276 2.68.47 4.038.607A39.543 39.543 0 0 1 55.987 26a38.99 38.99 0 0 1-2.038-.29c-.676-.111-1.351-.246-2.002-.322h-.005a.374.374 0 1 1 .121-.738M53.574 22.737c1.245.27 2.44.592 3.666.83 1.222.245 2.46.426 3.705.556a40.11 40.11 0 0 1-3.76-.187c-1.25-.115-2.503-.321-3.727-.461h-.005a.374.374 0 1 1 .121-.738M55.297 20.824c1.118.24 2.226.486 3.344.69 1.118.205 2.244.37 3.378.495-1.14 0-2.284-.041-3.425-.125-1.142-.08-2.282-.205-3.413-.322a.374.374 0 1 1 .116-.738M56.311 18.911c1.994.44 4.028.749 6.073.982-2.058.015-4.123-.045-6.19-.244a.374.374 0 1 1 .117-.738M88.948 40.607c-.159.12-.277.186-.415.264a10.019 10.019 0 0 1-1.217.547c-.548.204-1.102.376-1.662.522a30.772 30.772 0 0 1-3.382.675c-.567.086-1.138.147-1.705.218-.57.05-1.139.112-1.709.154-.57.035-1.14.08-1.711.106l-1.711.066L77.14 43c.568-.058 1.133-.133 1.699-.199.565-.073 1.127-.165 1.69-.246.56-.101 1.122-.192 1.678-.308 1.114-.223 2.215-.5 3.289-.845a16.253 16.253 0 0 0 1.574-.59c.253-.113.506-.228.744-.36.234-.123.49-.283.649-.413l.024-.02a.374.374 0 0 1 .472.58l-.011.008M87.75 38.78c.102-.023-.013.013-.06.045l-.186.095c-.126.062-.253.124-.38.18a14.19 14.19 0 0 1-.775.314c-.523.184-1.049.352-1.58.486a28.57 28.57 0 0 1-3.212.635c-.537.087-1.079.135-1.617.206l-1.622.145-1.624.098-1.623.06 1.617-.153 1.61-.191 1.604-.237c.53-.1 1.065-.18 1.59-.296 1.058-.208 2.101-.48 3.12-.804.51-.16 1.007-.352 1.495-.556.24-.108.48-.216.712-.337.116-.06.229-.123.343-.187l.17-.1c.072-.033.072-.069.3-.141a.373.373 0 1 1 .117.737M87.302 36.866l-.615.264c-.243.1-.489.194-.736.28a17.85 17.85 0 0 1-1.496.452c-1.006.258-2.022.45-3.043.592a45.94 45.94 0 0 1-3.066.33l-1.537.091-1.537.054 1.53-.147 1.525-.183c1.013-.145 2.023-.3 3.02-.512 1-.202 1.989-.452 2.951-.763.481-.156.956-.328 1.417-.523.231-.097.459-.201.684-.31l.337-.17.179-.09.098-.047c.057-.021.115-.04.173-.055a.364.364 0 0 1 .236.686l-.12.051zM86.5 34.953a2.186 2.186 0 0 0-.264.084l-.338.128a20.247 20.247 0 0 1-2.11.66c-.95.241-1.91.413-2.873.55-.961.144-1.929.229-2.895.307l-1.45.084-1.45.048 1.443-.141 1.438-.177c.955-.14 1.91-.286 2.85-.489a26.965 26.965 0 0 0 2.783-.72 19.62 19.62 0 0 0 1.997-.77l.332-.15c.118-.05.228-.105.421-.151a.373.373 0 1 1 .174.726l-.016.004-.042.007zM85.699 33.04c-.14.017-.38.102-.586.168l-.654.212c-.442.135-.886.262-1.334.369-.895.219-1.8.38-2.705.508a40.21 40.21 0 0 1-2.724.282l-1.365.078-1.364.042 1.357-.135 1.352-.17a40.07 40.07 0 0 0 2.68-.465 27.373 27.373 0 0 0 2.617-.68c.43-.133.851-.286 1.27-.446l.628-.252c.223-.084.403-.18.712-.249a.374.374 0 1 1 .126.737l-.01.001zM85.11 31.127c-.342.052-.775.196-1.182.307a25.22 25.22 0 0 1-1.252.324c-.84.195-1.688.344-2.537.463-.85.112-1.702.198-2.554.255-.853.06-1.706.088-2.558.108a53.954 53.954 0 0 0 2.538-.294c.843-.118 1.68-.265 2.51-.437a28.423 28.423 0 0 0 2.454-.636c.403-.124.8-.26 1.199-.405.406-.14.77-.306 1.265-.423a.374.374 0 1 1 .171.729l-.028.005-.026.004zM84.166 29.214c-.345.045-.737.15-1.12.244-.387.097-.78.19-1.171.275-.785.171-1.577.307-2.37.41-.795.1-1.589.184-2.385.231-.796.055-1.593.078-2.388.095a50.152 50.152 0 0 0 2.368-.28 35.612 35.612 0 0 0 2.341-.414c.775-.163 1.54-.357 2.294-.584.378-.114.752-.234 1.129-.36.38-.123.747-.26 1.186-.355a.374.374 0 1 1 .128.737l-.011.001zM83.152 27.301c-.682.088-1.42.28-2.148.415-.73.142-1.466.261-2.204.353-1.474.187-2.956.263-4.433.285a39.677 39.677 0 0 0 4.372-.654c.719-.151 1.43-.328 2.136-.53.712-.193 1.389-.438 2.161-.607a.374.374 0 1 1 .128.737l-.012.001zM81.855 25.388c-.651.076-1.327.21-2.002.321-.676.114-1.357.213-2.038.29a39.63 39.63 0 0 1-4.097.24 39.502 39.502 0 0 0 4.038-.608 38.62 38.62 0 0 0 1.98-.47c.659-.17 1.308-.364 2.003-.51a.374.374 0 1 1 .154.731l-.033.005-.005.001zM80.345 23.475c-1.224.14-2.476.346-3.728.46a39.972 39.972 0 0 1-3.76.188 39.89 39.89 0 0 0 3.706-.557c1.226-.237 2.421-.56 3.666-.829a.374.374 0 1 1 .122.737l-.006.001zM78.622 21.562c-1.132.117-2.272.242-3.413.322a46.964 46.964 0 0 1-3.425.124 46.939 46.939 0 0 0 3.378-.494c1.118-.203 2.226-.45 3.344-.69a.374.374 0 1 1 .116.738M77.608 19.649c-2.066.2-4.131.26-6.19.244 2.045-.233 4.08-.542 6.074-.982a.374.374 0 1 1 .116.738M88.266 52.34l.374-6.774.374 6.774a.374.374 0 1 1-.748 0M86.825 56.091l.326-6.774.326 6.774a.326.326 0 1 1-.652.032v-.032M85.436 59.842l.227-6.774.226 6.774a.227.227 0 1 1-.453 0M84.003 62.742l.17-6.774.17 6.774a.17.17 0 0 1-.34.01v-.01zM44.797 52.34l.373-6.774.374 6.774a.374.374 0 1 1-.747 0M46.333 56.091l.326-6.774.326 6.774a.326.326 0 1 1-.652 0M47.92 59.842l.228-6.774.226 6.774a.227.227 0 1 1-.453.015v-.015zM49.466 62.742l.17-6.774.17 6.774a.17.17 0 1 1-.34.01v-.01zM65.202 53.46c.52-.07 1.04-.08 1.555-.05.515.028 1.026.09 1.529.19-1.017-.098-2.054-.081-3.032.139h-.002a.142.142 0 1 1-.05-.279M65.202 54.358c.52-.07 1.04-.08 1.555-.05.515.028 1.026.09 1.529.19-1.017-.098-2.054-.081-3.032.139h-.002a.142.142 0 0 1-.062-.277l.012-.002M65.06 55.256c.52-.07 1.04-.08 1.556-.05.514.028 1.025.09 1.528.19-1.017-.098-2.054-.081-3.032.139h-.001a.142.142 0 1 1-.05-.279M65.06 56.154c.52-.07 1.04-.08 1.556-.051.514.029 1.025.09 1.528.19-1.017-.097-2.054-.08-3.032.14h-.001a.142.142 0 0 1-.063-.277l.013-.002" fill="#000" mask="url(#l)"/></g></g></svg>
