<svg xmlns="http://www.w3.org/2000/svg" xmlns:xlink="http://www.w3.org/1999/xlink" viewBox="0 0 154 56.7"><style>.st2,.st3{clip-path:url(#SVGID_6_)}.st3{fill:#fff}.st6{clip-path:url(#SVGID_10_)}.st10{clip-path:url(#SVGID_17_)}.st11{enable-background:new}.st15{clip-path:url(#SVGID_23_)}.st18{clip-path:url(#SVGID_27_)}.st19{clip-path:url(#SVGID_30_)}.st23{clip-path:url(#SVGID_36_)}</style><defs><path id="SVGID_1_" d="M30.8 34.8h100.6v18.4H30.8z"/></defs><clipPath id="SVGID_2_"><use xlink:href="#SVGID_1_" overflow="visible"/></clipPath><path clip-path="url(#SVGID_2_)" d="M31.8 35.8h98.6v16.4H31.8z"/><defs><path id="SVGID_3_" d="M0 0h154v55.9H0z"/></defs><clipPath id="SVGID_4_"><use xlink:href="#SVGID_3_" overflow="visible"/></clipPath><g clip-path="url(#SVGID_4_)"><defs><path id="SVGID_5_" d="M0 0h154v55.9H0z"/></defs><clipPath id="SVGID_6_"><use xlink:href="#SVGID_5_" overflow="visible"/></clipPath><path class="st2" d="M42.2 33.8c.5-.9 1.3-2.1 1.9-3.2-.1 1.1-.2 2.5-.3 3.5-.5-.1-1-.2-1.6-.3M45.5 30.9c.1 1.1.3 2.3.4 3.3-.5 0-1.1 0-1.6-.1.4-.9.8-2.2 1.2-3.2M46.8 30.9c.4 1 .8 2.3 1.1 3.2-.5.1-1 .1-1.6.1.2-1 .4-2.2.5-3.3M48.1 30.6c.6 1 1.4 2.3 1.9 3.2-.5.1-1.1.2-1.7.3 0-1-.1-2.4-.2-3.5"/><path class="st2" d="M60.9 26.5c-.2.3-.4.6-.7.9-.1-.1-.1-.2-.2-.3l-.1-.1c-.1-.1-.1-.2-.2-.2-.1-.1-.1-.2-.2-.3l-.1-.1-.3-.3c-.1.4-.2.9-.3 1.4-.1.2-.1.4-.2.6-.1.2-.1.4-.2.6-.1.4-.3.7-.5 1 0 .1-.1.1-.1.2 0 0 0 .1-.1.1-.1.1-.2.1-.3.2 0-.1.1-.1.1-.2s.1-.1.1-.2.1-.1.1-.2c.1-.3.2-.6.3-1 0-.2.1-.4.1-.6 0-.2 0-.4.1-.6.1-.8 0-1.6 0-2.2v-.1l-.4-.4c-.1.7-.2 1.6-.4 2.5-.1.2-.1.5-.2.7-.1.2-.1.4-.2.7-.1.2-.1.4-.2.6 0 .1-.1.2-.1.3 0 .1-.1.2-.1.3-.1.2-.2.3-.2.4 0 .1-.1.1-.1.2l-.1.1-.2.2-.1.1v-.1s.1-.1.1-.2c0 0 0-.1.1-.1 0-.1.1-.1.1-.2.1-.1.1-.3.2-.4 0-.1 0-.2.1-.3 0-.1 0-.2.1-.3 0-.2.1-.4.1-.6 0-.2.1-.4.1-.7v-.7-2.5c0-.3 0-.6-.1-.8-.2-.2-.4-.3-.6-.4 0 .1 0 .2.1.3 0 .1 0 .3.1.4V27.8c0 .2-.1.3-.1.4-.2.5-.3 1.1-.6 1.6V30.1c-.6-.2-.6-.1-.6-.1v.1c0 .1-.1.1-.1.2v.1l-.1.1v.1c0 .1-.1.1-.1.1v.1c0 .1-.1.1-.1.2-.1.2-.3.4-.4.6 0 .1-.1.1-.1.2s-.1.1-.1.2l-.1.1c0 .1-.1.1-.1.2-.1.1-.2.3-.4.4-.1.1-.3.2-.4.4l-.2.2c-.1 0-.2.1-.3.1-.6.2-1.2.4-1.8.5-.3-1-.7-2.4-1.1-3.6.9 1 2.1 2.2 2.8 2.9l.2-.2c-.5-.9-1.3-2.4-1.9-3.5 1.1.7 2.4 1.6 3.2 2.2.1-.1.1-.2.2-.3-.7-.8-1.7-2-2.5-3 1.1.5 2.5 1.1 3.5 1.4.1-.1.1-.2.2-.3-.8-.6-2-1.5-3-2.3 1.1.2 2.5.5 3.6.7 0-.1.1-.3.1-.4-.9-.4-2.2-1.1-3.2-1.5 1.1 0 2.4-.1 3.4-.1v-.5c-1-.2-2.2-.5-3.3-.8 1-.2 2.2-.5 3.2-.8 0-.1 0-.3-.1-.4-1 0-2.2-.1-3.2-.1.8-.4 1.6-.8 2.4-1.1-.1 0-.2-.1-.2-.1-.1 0-.2-.1-.2-.1l-.6-.3c-.6.1-1.2.2-1.7.3.3-.2.5-.4.8-.6-.2 0-.3-.1-.5-.1-.1 0-.2 0-.3-.1-.1 0-.2 0-.3-.1-.2 0-.3-.1-.5-.1-.1 0-.2 0-.3-.1h-.2c-.2 0-.4-.1-.6-.1H49.1c-.2 0-.4 0-.5-.1 1.4.8 2.4 2.3 2.4 4.1 0 2.6-2.1 4.7-4.7 4.7s-4.7-2.1-4.7-4.7c0-1.8 1-3.3 2.4-4.1-.2 0-.4 0-.5.1h-1.4-.1c-.2 0-.4.1-.6.1h-.2c-.1 0-.2 0-.3.1-.2 0-.3.1-.5.1-.1 0-.2 0-.3.1-.1 0-.2 0-.3.1-.2 0-.3.1-.5.1.3.2.6.4.8.6-.5-.1-1.1-.2-1.7-.3-.2.1-.4.2-.7.3-.1 0-.2.1-.2.1-.1 0-.2.1-.2.1.8.4 1.6.8 2.4 1.1-1.1 0-2.4.1-3.4.1v.4c1 .2 2.3.6 3.4.8-1.1.3-2.5.6-3.5.8v.4c1 0 2.5.1 3.6.1-1.1.5-2.5 1.2-3.4 1.6 0 .1.1.2.1.3 1-.2 2.5-.5 3.7-.7-1 .8-2.3 1.8-3.1 2.4 0 0 0 .1.1.1 0 0 0 .1.1.1 1-.4 2.5-1 3.6-1.5-.9 1-2 2.3-2.6 3.1l.2.2c.9-.6 2.2-1.5 3.4-2.3-.7 1.2-1.5 2.8-2 3.7l.2.2c.7-.7 1.9-2 2.9-3-.4 1.2-.8 2.6-1.1 3.6-.6-.2-1.2-.3-1.8-.6-.1 0-.2-.1-.4-.1-.6-.5-1.1-1-1.5-1.5-.4-.5-.8-1.1-1.1-1.8-.3-.7-.6-1.4-.8-2.2-.2-.7-.2-1.4-.2-2.1 0-.6.1-1.3.2-1.9v-.1l-.9.6v.6c0 .7-.1 1.6 0 2.5v.7c0 .2 0 .4.1.7 0 .2.1.4.1.6 0 .1 0 .2.1.3 0 .1 0 .2.1.3.1.2.1.3.2.4 0 .1.1.1.1.2s.1.1.1.1c0 .1.1.2.1.2v.1l-.1-.1-.2-.2-.1-.1c0-.1-.1-.1-.1-.2-.1-.1-.2-.3-.2-.4 0-.1-.1-.2-.1-.3 0-.1-.1-.2-.1-.3-.1-.2-.2-.4-.2-.6-.1-.2-.1-.4-.2-.7-.1-.2-.1-.5-.2-.7-.2-.8-.3-1.6-.4-2.3-.2.1-.3.3-.5.5v2c0 .2 0 .4.1.6 0 .2.1.4.1.6.1.4.2.7.3 1 0 .1.1.1.1.2-.1-.1-.3-.2-.4-.4-.1-.2-.2-.5-.3-.7-.1-.2-.1-.4-.2-.6-.1-.2-.1-.4-.2-.6-.1-.4-.2-.8-.3-1.1-.3.3-.6.7-.9 1.1-.2-.3-.4-.6-.7-.9.4-.6.8-1.1 1.3-1.6.2-.3.5-.5.7-.8.2-.3.5-.5.8-.7.9-.8 1.8-1.5 2.8-2.1 2.7-1.6 5.8-2.5 9.2-2.5 3.3 0 6.4.9 9.1 2.5 1.3.8 2.6 1.7 3.7 2.8l.5.5c.3.6.8 1.2 1.3 1.9"/><path class="st3" d="M55.9 25.8c-1 0-2.3.1-3.4.1 1.1.5 2.3 1.1 3.2 1.5 0 .1-.1.3-.1.4-1-.2-2.4-.4-3.6-.7 1 .7 2.2 1.6 3 2.3-.1.1-.1.2-.2.3-1-.4-2.4-1-3.5-1.4.8 1 1.9 2.2 2.5 3-.1.1-.1.2-.2.3-.9-.6-2.2-1.5-3.2-2.2.7 1.2 1.4 2.6 1.9 3.5l-.2.2c-.7-.7-1.9-1.9-2.8-2.9.4 1.2.8 2.6 1.1 3.6-.1 0-.2.1-.4.1-.6-.9-1.3-2.1-1.9-3.2.1 1.1.2 2.5.3 3.5H48c-.3-.9-.8-2.2-1.1-3.2-.1 1.1-.3 2.3-.4 3.3h-.4c-.1-1-.3-2.3-.4-3.3-.4 1-.8 2.3-1.1 3.2h-.4c.1-1 .2-2.4.3-3.5-.6 1-1.4 2.3-1.9 3.2-.1 0-.2-.1-.4-.1.3-1 .7-2.5 1.1-3.6-1 1-2.2 2.3-2.9 3-.1 0-.1-.1-.2-.2.5-.9 1.3-2.4 2-3.7-1.1.8-2.5 1.7-3.4 2.3l-.2-.2c.7-.8 1.7-2.1 2.6-3.1-1.2.5-2.7 1.1-3.6 1.5 0 0 0-.1-.1-.1 0 0 0-.1-.1-.1.8-.6 2.1-1.6 3.1-2.4-1.2.2-2.7.5-3.7.7 0-.1-.1-.2-.1-.3.9-.5 2.3-1.1 3.4-1.6-1.2 0-2.6-.1-3.6-.1v-.4c1-.3 2.4-.6 3.5-.8-1.1-.2-2.4-.6-3.4-.8v-.2-.2c1 0 2.3-.1 3.4-.1-.8-.4-1.6-.8-2.4-1.1.1 0 .2-.1.2-.1.1 0 .2-.1.2-.1.2-.1.4-.2.7-.3.6.1 1.2.2 1.7.3-.3-.2-.5-.4-.8-.6.2 0 .3-.1.5-.1.1 0 .2 0 .3-.1.1 0 .2 0 .3-.1.2 0 .3-.1.5-.1.1 0 .2 0 .3-.1h.2c.2 0 .4-.1.6-.1H43.8c.2 0 .4 0 .5-.1-1.4.8-2.4 2.3-2.4 4.1 0 2.6 2.1 4.7 4.7 4.7s4.7-2.1 4.7-4.7c0-1.8-1-3.3-2.4-4.1.2 0 .4 0 .5.1h1.5c.2 0 .4.1.6.1h.2c.1 0 .2 0 .3.1.2 0 .3.1.5.1.1 0 .2 0 .3.1.1 0 .2 0 .3.1.2 0 .3.1.5.1-.3.2-.6.4-.8.6.5-.1 1.1-.2 1.7-.3l.6.3c.1 0 .2.1.2.1.1 0 .2.1.2.1-.8.4-1.6.8-2.4 1.1 1 0 2.3 0 3.2.1 0 .1.1.3.1.4-1 .2-2.2.5-3.2.8 1.1.2 2.3.5 3.3.8-.6 0-.6.1-.6.3"/><path class="st3" d="M47.2 21.7c0 .6-.5 1.1-1.1 1.1-.6 0-1.1-.5-1.1-1.1 0-.6.5-1.1 1.1-1.1.6 0 1.1.5 1.1 1.1"/><path class="st3" d="M61.2 26.4c-.1.1.1-.2 0 0-3.3-4.7-8.8-7.9-15-7.9-6.2 0-11.7 3.1-15 7.9l-.1-.2c2.9-5.8 7.7-10.3 15.1-10.3 7.4 0 12.1 4.6 15 10.5M60.6 28.2c-3.4 4.4-8.6 8-14.5 8-6.2 0-11.7-4-15-8.7 3.3 4.7 8.8 7.9 15 7.9 5.9-.1 11.2-2.9 14.5-7.2"/><path class="st3" d="M33.3 28.1c-.1-.2-.1-.4-.2-.6-.1-.4-.2-.8-.3-1.1-.3.3-.6.7-.9 1.1.6.7 1.2 1.4 1.8 2-.1-.2-.2-.5-.3-.7.1-.3 0-.5-.1-.7M38.2 31.5c-.4-.5-.8-1.1-1.1-1.8-.3-.7-.6-1.4-.8-2.2-.2-.7-.2-1.4-.2-2.1 0-.6.1-1.3.2-1.9v-.1l-.9.6v.6c0 .7-.1 1.6 0 2.5v.7c0 .2 0 .4.1.7 0 .2.1.4.1.6 0 .1 0 .2.1.3 0 .1 0 .2.1.3 0 .2.1.3.2.4 0 .1.1.1.1.2s.1.1.1.1c0 .1.1.2.1.2v.1l-.1-.1-.2-.2-.1-.1c0-.1-.1-.1-.1-.2-.1-.1-.2-.3-.2-.4 0-.1-.1-.2-.1-.3 0-.1-.1-.2-.1-.3-.1-.2-.2-.4-.2-.6-.1-.2-.1-.4-.2-.7-.1-.2-.1-.5-.2-.7-.2-.8-.3-1.6-.4-2.3-.2.1-.3.3-.5.5v2c0 .2 0 .4.1.6 0 .2.1.4.1.6.1.4.2.7.3 1 0 .1.1.1.1.2 1.6 1.4 3.4 2.5 5.4 3.3-.8-.4-1.3-1-1.7-1.5M60.1 27.1c-.1 0-.1 0 0 0-.1-.1-.2-.2-.2-.3-.1-.1-.1-.2-.2-.3l-.1-.1-.3-.3c-.1.4-.2.9-.3 1.4-.1.2-.1.4-.2.6-.1.2-.1.4-.2.6-.1.4-.3.7-.5 1 0 .1-.1.1-.1.2 0 0 0 .1-.1.1.9-.8 1.7-1.6 2.5-2.6-.2-.1-.3-.2-.3-.3"/><path class="st3" d="M58.1 28.5c0-.2.1-.4.1-.6 0-.2 0-.4.1-.6.1-.8 0-1.6 0-2.2V25l-.4-.4c-.1.7-.2 1.6-.4 2.5-.1.2-.1.5-.2.7-.1.2-.1.4-.2.7-.1.2-.1.4-.2.6 0 .1-.1.2-.1.3 0 .1-.1.2-.1.3-.1.2-.2.3-.2.4 0 .1-.1.1-.1.2l-.1.1-.2.2-.1.1v-.1s.1-.1.1-.2c0 0 0-.1.1-.1 0-.1.1-.1.1-.2.1-.1.1-.3.2-.4 0-.1 0-.2.1-.3 0-.1 0-.2.1-.3 0-.2.1-.4.1-.6 0-.2.1-.4.1-.7v-.7-2.5c0-.3 0-.6-.1-.8-.2-.2-.4-.3-.6-.4 0 .1 0 .2.1.3 0 .1 0 .3.1.4V26.5c0 .2 0 .3-.1.5v.7c0 .2-.1.3-.1.4-.2.5-.3 1.1-.6 1.6V30c-.6-.1-.6 0-.6 0v.1c0 .1-.1.1-.1.2v.1l-.1.1v.1l-.1.1v.1c0 .1-.1.1-.1.2-.1.2-.3.4-.4.6-.2.2-.3.4-.5.6-.1.1-.2.3-.4.4-.1.1-.3.2-.4.4l-.2.2c1.8-.7 3.6-1.7 5.1-2.9 0-.1.1-.1.1-.2s.1-.1.1-.2.1-.1.1-.2c-.2-.4-.1-.8 0-1.2"/><path class="st2" d="M112.7 33.8c-.5-.9-1.3-2.1-1.9-3.2.1 1.1.2 2.5.3 3.5.5-.1 1-.2 1.6-.3M109.4 30.9c-.1 1.1-.3 2.3-.4 3.3.5 0 1.1 0 1.6-.1-.4-.9-.8-2.2-1.2-3.2M108.1 30.9c-.4 1-.8 2.3-1.1 3.2.5.1 1 .1 1.6.1-.2-1-.4-2.2-.5-3.3M106.8 30.6c-.6 1-1.4 2.3-1.9 3.2.5.1 1.1.2 1.7.3 0-1 .1-2.4.2-3.5"/><path class="st2" d="M94 26.5c.2.3.4.6.7.9.1-.1.1-.2.2-.3l.1-.1c.1-.1.1-.2.2-.2.1-.1.1-.2.2-.3l.1-.1.3-.3c.1.4.2.9.3 1.4.1.2.1.4.2.6.1.2.1.4.2.6.1.4.3.7.5 1 0 .1.1.1.1.2 0 0 0 .1.1.1.1.1.2.1.3.2 0-.1-.1-.1-.1-.2s-.1-.1-.1-.2-.1-.1-.1-.2c-.1-.3-.2-.6-.3-1 0-.2-.1-.4-.1-.6 0-.2 0-.4-.1-.6-.1-.8 0-1.6 0-2.2v-.1l.4-.4c.1.7.2 1.6.4 2.5.1.2.1.5.2.7.1.2.1.4.2.7.1.2.1.4.2.6 0 .1.1.2.1.3 0 .1.1.2.1.3.1.2.2.3.2.4 0 .1.1.1.1.2l.1.1.2.2.1.1v-.1s-.1-.1-.1-.2c0 0 0-.1-.1-.1 0-.1-.1-.1-.1-.2-.1-.1-.1-.3-.2-.4 0-.1 0-.2-.1-.3 0-.1 0-.2-.1-.3 0-.2-.1-.4-.1-.6 0-.2-.1-.4-.1-.7v-.7-2.5c0-.3 0-.6.1-.8.2-.2.4-.3.6-.4 0 .1 0 .2-.1.3 0 .1 0 .3-.1.4V27.8c0 .2.1.3.1.4.2.5.3 1.1.6 1.6V30.1c0 .1.1.1.1.2v.1c0 .1.1.1.1.2v.1l.1.1v.1c0 .1.1.1.1.1v.1c0 .1.1.1.1.2.1.2.3.4.4.6 0 .1.1.1.1.2s.1.1.1.2l.1.1c0 .1.1.1.1.2.1.1.2.3.4.4.1.1.3.2.4.4l.2.2c.1 0 .2.1.3.1.6.2 1.2.4 1.8.5.3-1 .7-2.4 1.1-3.6-.9 1-2.1 2.2-2.8 2.9l-.2-.2c.5-.9 1.3-2.4 1.9-3.5-1.1.7-2.4 1.6-3.2 2.2-.1-.1-.1-.2-.2-.3.7-.8 1.7-2 2.5-3-1.1.5-2.5 1.1-3.5 1.4-.1-.1-.1-.2-.2-.3.8-.6 2-1.5 3-2.3-1.1.2-2.5.5-3.6.7 0-.1-.1-.3-.1-.4.9-.4 2.2-1.1 3.2-1.5-1.1 0-2.4-.1-3.4-.1v-.5c1-.2 2.2-.5 3.3-.8-1-.2-2.2-.5-3.2-.8 0-.1 0-.3.1-.4 1 0 2.2-.1 3.2-.1-.8-.4-1.6-.8-2.4-1.1.1 0 .2-.1.2-.1.1 0 .2-.1.2-.1l.6-.3c.6.1 1.2.2 1.7.3-.3-.2-.5-.4-.8-.6.2 0 .3-.1.5-.1.1 0 .2 0 .3-.1.1 0 .2 0 .3-.1.2 0 .3-.1.5-.1.1 0 .2 0 .3-.1h.2c.2 0 .4-.1.6-.1H105.3c.2 0 .4 0 .5-.1-1.4.8-2.4 2.3-2.4 4.1 0 2.6 2.1 4.7 4.7 4.7s4.7-2.1 4.7-4.7c0-1.8-1-3.3-2.4-4.1.2 0 .4 0 .5.1h1.5c.2 0 .4.1.6.1h.2c.1 0 .2 0 .3.1.2 0 .3.1.5.1.1 0 .2 0 .3.1.1 0 .2 0 .3.1.2 0 .3.1.5.1-.3.2-.6.4-.8.6.5-.1 1.1-.2 1.7-.3.2.1.4.2.7.3.1 0 .2.1.2.1.1 0 .2.1.2.1-.8.4-1.6.8-2.4 1.1 1.1 0 2.4.1 3.4.1v.4c-1 .2-2.3.6-3.4.8 1.1.3 2.5.6 3.5.8v.4c-1 0-2.5.1-3.6.1 1.1.5 2.5 1.2 3.4 1.6 0 .1-.1.2-.1.3-1-.2-2.5-.5-3.7-.7 1 .8 2.3 1.8 3.1 2.4 0 0 0 .1-.1.1 0 0 0 .1-.1.1-1-.4-2.5-1-3.6-1.5.9 1 2 2.3 2.6 3.1l-.2.2c-.9-.6-2.2-1.5-3.4-2.3.7 1.2 1.5 2.8 2 3.7l-.2.2c-.7-.7-1.9-2-2.9-3 .4 1.2.8 2.6 1.1 3.6.6-.2 1.2-.3 1.8-.6.1 0 .2-.1.4-.1.6-.5 1.1-1 1.5-1.5.4-.5.8-1.1 1.1-1.8.3-.7.6-1.4.8-2.2.2-.7.2-1.4.2-2.1 0-.6-.1-1.3-.2-1.9v-.1l.9.6v.6c0 .7.1 1.6 0 2.5v.7c0 .2 0 .4-.1.7 0 .2-.1.4-.1.6 0 .1 0 .2-.1.3 0 .1 0 .2-.1.3 0 .2-.1.3-.2.4 0 .1-.1.1-.1.2s-.1.1-.1.1c0 .1-.1.2-.1.2v.1l.1-.1.2-.2.1-.1c0-.1.1-.1.1-.2.1-.1.2-.3.2-.4 0-.1.1-.2.1-.3 0-.1.1-.2.1-.3.1-.2.2-.4.2-.6.1-.2.1-.4.2-.7.1-.2.1-.5.2-.7.2-.8.3-1.6.4-2.3.2.1.3.3.5.5v2c0 .2 0 .4-.1.6 0 .2-.1.4-.1.6-.1.4-.2.7-.3 1 0 .1-.1.1-.1.2.1-.1.3-.2.4-.4.1-.2.2-.5.3-.7.1-.2.1-.4.2-.6.1-.2.1-.4.2-.6.1-.4.2-.8.3-1.1.3.3.6.7.9 1.1.2-.3.4-.6.7-.9-.4-.6-.8-1.1-1.3-1.6-.2-.3-.5-.5-.7-.8-.3-.3-.5-.5-.8-.7-.9-.8-1.8-1.5-2.8-2.1-2.7-1.6-5.8-2.5-9.2-2.5-3.3 0-6.4.9-9.1 2.5-.7.4-1.9 1.4-3 2.5l-.5.5c-.5.6-1 1.2-1.5 1.9"/><path class="st3" d="M99 25.8c1 0 2.3.1 3.4.1-1.1.5-2.3 1.1-3.2 1.5 0 .1.1.3.1.4 1-.2 2.4-.4 3.6-.7-1 .7-2.2 1.6-3 2.3.1.1.1.2.2.3 1-.4 2.4-1 3.5-1.4-.8 1-1.9 2.2-2.5 3 .1.1.1.2.2.3.9-.6 2.2-1.5 3.2-2.2-.7 1.2-1.4 2.6-1.9 3.5l.2.2c.7-.7 1.9-1.9 2.8-2.9-.4 1.2-.8 2.6-1.1 3.6.1 0 .2.1.4.1.6-.9 1.3-2.1 1.9-3.2-.1 1.1-.2 2.5-.3 3.5h.4c.3-.9.8-2.2 1.1-3.2.1 1.1.3 2.3.4 3.3h.4c.1-1 .3-2.3.4-3.3.4 1 .8 2.3 1.1 3.2h.4c-.1-1-.2-2.4-.3-3.5.6 1 1.4 2.3 1.9 3.2.1 0 .2-.1.4-.1-.3-1-.7-2.5-1.1-3.6 1 1 2.2 2.3 2.9 3 .1 0 .1-.1.2-.2-.5-.9-1.3-2.4-2-3.7 1.1.8 2.5 1.7 3.4 2.3l.2-.2c-.7-.8-1.7-2.1-2.6-3.1 1.2.5 2.7 1.1 3.6 1.5 0 0 0-.1.1-.1 0 0 0-.1.1-.1-.8-.6-2.1-1.6-3.1-2.4 1.2.2 2.7.5 3.7.7 0-.1.1-.2.1-.3-.9-.5-2.3-1.1-3.4-1.6 1.2 0 2.6-.1 3.6-.1v-.4c-1-.3-2.4-.6-3.5-.8 1.1-.2 2.4-.6 3.4-.8v-.2-.2c-1 0-2.3-.1-3.4-.1.8-.4 1.6-.8 2.4-1.1-.1 0-.2-.1-.2-.1-.1 0-.2-.1-.2-.1-.2-.1-.4-.2-.7-.3-.6.1-1.2.2-1.7.3.3-.2.5-.4.8-.6-.2 0-.3-.1-.5-.1-.1 0-.2 0-.3-.1-.1 0-.2 0-.3-.1-.2 0-.3-.1-.5-.1-.1 0-.2 0-.3-.1h-.2c-.2 0-.4-.1-.6-.1H111.1c-.2 0-.4 0-.5-.1 1.4.8 2.4 2.3 2.4 4.1 0 2.6-2.1 4.7-4.7 4.7s-4.7-2.1-4.7-4.7c0-1.8 1-3.3 2.4-4.1-.2 0-.4 0-.5.1h-1.4-.1c-.2 0-.4.1-.6.1h-.2c-.1 0-.2 0-.3.1-.2 0-.3.1-.5.1-.1 0-.2 0-.3.1-.1 0-.2 0-.3.1-.2 0-.3.1-.5.1.3.2.6.4.8.6-.5-.1-1.1-.2-1.7-.3l-.6.3c-.1 0-.2.1-.2.1-.1 0-.2.1-.2.1.8.4 1.6.8 2.4 1.1-1 0-2.3 0-3.2.1 0 .1-.1.3-.1.4 1 .2 2.2.5 3.2.8-1.1.2-2.3.5-3.3.8.6 0 .6.1.6.3"/><path class="st3" d="M107.7 21.7c0 .6.5 1.1 1.1 1.1.6 0 1.1-.5 1.1-1.1 0-.6-.5-1.1-1.1-1.1-.6 0-1.1.5-1.1 1.1"/><path class="st3" d="M93.7 26.4c.1.1-.1-.2 0 0 3.3-4.7 8.8-7.9 15-7.9 6.2 0 11.7 3.1 15 7.9l.1-.2c-2.9-5.8-7.7-10.3-15.1-10.3-7.4 0-12.1 4.6-15 10.5M94.3 28.2c3.4 4.4 8.6 8 14.5 8 6.2 0 11.7-4 15-8.7-3.3 4.7-8.8 7.9-15 7.9-5.9-.1-11.2-2.9-14.5-7.2"/><path class="st3" d="M121.6 28.1c.1-.2.1-.4.2-.6.1-.4.2-.8.3-1.1.3.3.6.7.9 1.1-.6.7-1.2 1.4-1.8 2 .1-.2.2-.5.3-.7-.1-.3 0-.5.1-.7M116.7 31.5c.4-.5.8-1.1 1.1-1.8.3-.7.6-1.4.8-2.2.2-.7.2-1.4.2-2.1 0-.6-.1-1.3-.2-1.9v-.1l.9.6v.6c0 .7.1 1.6 0 2.5v.7c0 .2 0 .4-.1.7 0 .2-.1.4-.1.6 0 .1 0 .2-.1.3 0 .1 0 .2-.1.3 0 .2-.1.3-.2.4 0 .1-.1.1-.1.2s-.1.1-.1.1c0 .1-.1.2-.1.2v.1l.1-.1.2-.2.1-.1c0-.1.1-.1.1-.2.1-.1.2-.3.2-.4 0-.1.1-.2.1-.3 0-.1.1-.2.1-.3.1-.2.2-.4.2-.6.1-.2.1-.4.2-.7.1-.2.1-.5.2-.7.2-.8.3-1.6.4-2.3.2.1.3.3.5.5v2c0 .2 0 .4-.1.6 0 .2-.1.4-.1.6-.1.4-.2.7-.3 1 0 .1-.1.1-.1.2-1.6 1.4-3.4 2.5-5.4 3.3.8-.4 1.3-1 1.7-1.5M94.8 27.1c.1 0 .1 0 0 0 .1-.1.2-.2.2-.3.1-.1.1-.2.2-.3l.1-.1.3-.3c.1.4.2.9.3 1.4.1.2.1.4.2.6.1.2.1.4.2.6.1.4.3.7.5 1 0 .1.1.1.1.2 0 0 0 .1.1.1-.9-.8-1.7-1.6-2.5-2.6.2-.1.3-.2.3-.3"/><path class="st3" d="M96.8 28.5c0-.2-.1-.4-.1-.6 0-.2 0-.4-.1-.6-.1-.8 0-1.6 0-2.2V25l.4-.4c.1.7.2 1.6.4 2.5.1.2.1.5.2.7.1.2.1.4.2.7.1.2.1.4.2.6 0 .1.1.2.1.3 0 .1.1.2.1.3.1.2.2.3.2.4 0 .1.1.1.1.2l.1.1.2.2.1.1v-.1s-.1-.1-.1-.2c0 0 0-.1-.1-.1 0-.1-.1-.1-.1-.2-.1-.1-.1-.3-.2-.4 0-.1 0-.2-.1-.3 0-.1 0-.2-.1-.3 0-.2-.1-.4-.1-.6 0-.2-.1-.4-.1-.7v-.7-2.5c0-.3 0-.6.1-.8.2-.2.4-.3.6-.4 0 .1 0 .2-.1.3 0 .1 0 .3-.1.4V26.5c0 .2 0 .3.1.5v.7c0 .2.1.3.1.4.2.5.3 1.1.6 1.6V30c0 .1.1.1.1.2v.1c0 .1.1.1.1.2v.1l.1.1v.1l.1.1v.1c0 .1.1.1.1.2.1.2.3.4.4.6.2.2.3.4.5.6.1.1.2.3.4.4.1.1.3.2.4.4l.2.2c-1.8-.7-3.6-1.7-5.1-2.9 0-.1-.1-.1-.1-.2s-.1-.1-.1-.2-.1-.1-.1-.2c.7-.6.6-1 .5-1.4"/></g><g><defs><path id="SVGID_7_" d="M0 0h154v55.9H0z"/></defs><clipPath id="SVGID_8_"><use xlink:href="#SVGID_7_" overflow="visible"/></clipPath><g clip-path="url(#SVGID_8_)"><defs><path id="SVGID_9_" d="M0 0h154v55.9H0z"/></defs><clipPath id="SVGID_10_"><use xlink:href="#SVGID_9_" overflow="visible"/></clipPath><path d="M151.3 9c-1-5.2-22.4-7.7-37.6-6.6-15.2 1.2-22.8 8.7-36.7 8.7S55.4 3.6 40.3 2.5C25.1 1.3 3.7 3.8 2.7 9S.4 43.4 20.5 51.1c10.9 4.1 23.9-2.9 33-6.2 6.8-2.5 13.8-6.1 23-6.1h1.1c9.2 0 14.7 3.1 23 6.1 7.3 2.6 22.1 10.3 33 6.2 20-7.7 18.7-36.9 17.7-42.1M57.6 30.4c-1.3 1-2.8 1.9-4.4 2.4-8.5 3.2-18.5-1-25.2-5.5 9.7-8.7 23.2-10.1 33.6-.5-1.5.6-2.7 2.6-4 3.6m44.8 2.5c-1.6-.6-3.1-1.4-4.4-2.4-1.3-1-2.4-3-3.9-3.7 10.4-9.6 23.9-8.2 33.6.5-6.8 4.5-16.8 8.7-25.3 5.6" clip-path="url(#SVGID_10_)" fill="#fff"/><path class="st6" d="M149.9 9.3c0-.1-.1-.3-.3-.6-.2-.2-.5-.5-.8-.7-.7-.4-1.5-.8-2.3-1.2-1.7-.7-3.5-1.1-5.3-1.5-3.7-.8-7.5-1.3-11.3-1.6-3.8-.3-7.6-.4-11.4-.4-3.8.1-7.6.3-11.3 1.1-1.9.4-3.7.9-5.5 1.4l-5.4 1.8c-1.8.7-3.6 1.3-5.5 1.9-.9.3-1.9.6-2.8.8-.9.3-1.9.5-2.9.7l-1.5.3-1.6.4-1.5.1c-.5 0-1 .1-1.5.1-1 0-2 .1-3 0h-1.5c-.5 0-1-.1-1.5-.1-2-.2-3.9-.6-5.8-1-1.9-.5-3.8-1-5.6-1.7-3.6-1.3-7.2-2.7-10.8-3.7-.5-.1-.9-.3-1.4-.4L48 4.7c-.9-.2-1.9-.4-2.8-.6l-1.4-.2c-.5-.1-.9-.2-1.4-.2-.9-.1-1.9-.2-2.8-.3-3.8-.3-7.6-.3-11.5-.1-3.8.1-7.6.5-11.4 1-1.9.3-3.8.6-5.6 1.1-1.8.5-3.6 1-5.2 1.8-.8.4-1.5.9-2 1.4-.1.1-.1.3-.2.4 0 .1 0 .1-.1.2 0 .1 0 .2-.1.3-.1.4-.1.9-.2 1.4-.2 1.9-.2 3.8-.2 5.7 0 3.8.4 7.6 1.2 11.3.8 3.7 2 7.3 3.7 10.6 1.8 3.3 4.1 6.3 7 8.5.7.6 1.5 1 2.3 1.5.8.4 1.6.9 2.5 1.2.9.4 1.7.7 2.6.9.4.1.9.2 1.3.3.5.1.9.2 1.4.2 3.6.4 7.4-.2 11-1.1 3.6-1 7.2-2.4 10.8-3.8 1.8-.7 3.6-1.5 5.4-2.2.9-.4 1.8-.7 2.7-1l2.7-1.1c3.6-1.4 7.2-3.1 11.1-4.1 2-.5 4-.9 6-1 .5 0 1-.1 1.5-.1h3l1.5.1c2 .2 4 .6 6 1.2 1.9.6 3.8 1.3 5.6 2.1l2.7 1.1c.9.4 1.8.8 2.7 1.1.9.4 1.8.7 2.7 1l1.4.5 1.4.5c3.6 1.5 7.1 3 10.7 4.1 1.8.6 3.6 1.1 5.4 1.5 1.8.4 3.7.7 5.5.8 1.8.1 3.7 0 5.4-.3l.7-.1c.2-.1.4-.1.6-.2.4-.1.8-.3 1.3-.4.4-.2.8-.4 1.3-.5l.6-.3.6-.3.6-.3.3-.2.3-.2 1.1-.7c.7-.5 1.5-1.1 2.1-1.7 1.4-1.2 2.6-2.6 3.6-4.1 1.1-1.5 2-3.1 2.7-4.8.8-1.7 1.4-3.4 1.9-5.2.5-1.8 1-3.6 1.3-5.5.3-1.9.5-3.7.7-5.6.1-1.9.2-3.8.2-5.6 0-.9-.1-1.9-.1-2.8.1-.8 0-1.8-.2-2.6m2.8-.5c.2 1.1.3 2 .4 3 .1 1 .1 2 .1 3 0 2 0 3.9-.2 5.9-.1 2-.4 3.9-.7 5.9-.3 1.9-.8 3.9-1.3 5.8-.6 1.9-1.3 3.8-2.1 5.6-.9 1.8-1.9 3.6-3 5.2-1.2 1.7-2.5 3.2-4.1 4.5-.7.7-1.6 1.3-2.4 1.9l-1.3.8-.3.2-.3.2-.7.4-.7.4c-.2.1-.5.2-.7.3-.5.2-.9.4-1.4.6-.5.2-1 .4-1.5.5-.3.1-.5.1-.8.2l-.8.2c-2 .4-4.1.5-6.1.4-4-.3-7.9-1.2-11.6-2.4-3.7-1.2-7.3-2.7-10.9-4.1l-1.3-.5-1.3-.5-2.8-1c-.9-.3-1.8-.7-2.7-1l-1.4-.5-1.4-.4c-1.8-.6-3.6-1-5.4-1.4-1.8-.3-3.6-.6-5.4-.7l-1.4-.1H75c-1.8 0-3.6.1-5.5.4-1.8.2-3.7.6-5.5 1.1-1.8.5-3.6 1.1-5.4 1.8l-2.7 1c-.9.3-1.8.7-2.7 1l-5.4 2.1c-3.6 1.4-7.3 2.8-11.1 3.8-1.9.5-3.9.9-5.8 1.1-2 .2-4 .2-6 0-.5 0-1-.2-1.5-.2-.5-.1-1-.2-1.5-.4-1-.3-1.9-.6-2.9-1-.9-.4-1.8-.9-2.7-1.3-.8-.5-1.7-1.1-2.5-1.7-1.6-1.2-3.1-2.6-4.3-4.2-1.3-1.6-2.3-3.2-3.3-5-1.8-3.5-3.1-7.3-3.8-11.2-.8-3.9-1.2-7.8-1.2-11.7 0-2 0-3.9.2-5.9.1-.5.1-1 .2-1.5 0-.1 0-.2.1-.4 0-.2.1-.3.2-.5.1-.5.3-.8.5-1.1.8-1 1.7-1.5 2.6-2 1.9-.9 3.8-1.5 5.7-2 1.9-.5 3.8-.8 5.8-1.1 3.9-.6 7.7-.9 11.6-1 3.9-.1 7.8-.1 11.7.2 1 .1 2 .2 2.9.3.5 0 1 .1 1.5.2l1.5.2c1 .2 1.9.4 2.9.6l1.4.4c.5.1.9.2 1.4.4 3.8 1.1 7.4 2.5 11 3.8 1.7.6 3.5 1.1 5.4 1.6 1.8.4 3.7.8 5.6 1 .5 0 .9.1 1.4.1h1.4c.9.1 1.9 0 2.8 0 .5 0 .9-.1 1.4-.1l1.4-.1 1.4-.2c.5-.1.9-.1 1.4-.3 3.7-.8 7.3-2.1 10.9-3.4 1.8-.7 3.6-1.3 5.5-2 1.9-.6 3.7-1.1 5.7-1.6l1.4-.3c.5-.1 1-.2 1.5-.2.5-.1 1-.2 1.5-.2l1.5-.2c1-.1 2-.2 2.9-.3 1-.1 1.9-.1 2.9-.1 3.8-.1 7.7-.1 11.6.1 3.9.2 7.8.7 11.7 1.4 1.9.4 3.9.9 5.8 1.6 1 .4 1.9.8 2.9 1.4.5.3.9.7 1.4 1.2.3.5.7 1.2.9 2"/><path class="st6" d="M58.5 31.6c-1.2.8-2.4 1.6-3.7 2.1-.3.1-.7.3-1 .4-.3.1-.7.2-1 .3-.3.1-.7.2-1 .2l-1 .2-.5.1h-.5l-1 .1h-2.1c-1.4-.1-2.8-.2-4.1-.4-2.7-.5-5.3-1.3-7.8-2.4-2.5-1.1-4.9-2.4-7.1-3.9l-1.1-.7 1-.9c2.4-2.1 5.1-3.9 8-5.3 1.5-.7 3-1.2 4.5-1.7l1.2-.3c.4-.1.8-.2 1.2-.2.4-.1.8-.1 1.2-.2.4-.1.8-.2 1.2-.4l.6-.2c.2-.1.4-.1.6-.2.4-.1.9-.2 1.3-.1.9 0 1.7.3 2.5.7l1.2.6c.4.2.8.3 1.2.4.4.1.8.2 1.2.4.4.1.8.3 1.1.5 3 1.3 5.8 3 8.2 5.2L64 27l-1.8 1c-.5.3-1 .8-1.6 1.5-.3.3-.6.7-.9 1-.4.3-.7.7-1.2 1.1m-1.7-2.3l.8-.8.9-1c.3-.3.7-.7 1-1.1.4-.4.8-.7 1.4-1l-.3 2.3c-2.1-2-4.6-3.8-7.3-4.8-.3-.1-.7-.2-1-.4-.3-.1-.7-.2-1-.3-.7-.2-1.5-.2-2.2-.1-.4 0-.7.1-1.1.1h-1c-.3-.1-.7-.1-1-.2l-1.1-.4c-.4-.1-.7-.2-1.1-.2-.4 0-.7 0-1.1.1-.4 0-.7.1-1.1.1l-1.1.2c-1.4.3-2.9.7-4.2 1.3-2.7 1.2-5.3 2.8-7.5 4.8l-.1-1.6c2.2 1.4 4.4 2.7 6.8 3.8 2.4 1.1 4.8 1.9 7.3 2.4 1.3.3 2.5.4 3.8.4h.9c.3 0 .6 0 .9-.1l.9-.1.5-.1.5-.1.9-.2.9-.3.9-.3c.3-.1.6-.3.8-.4 1-.6 2-1.2 3-2M101.9 34.2c-.9-.3-1.8-.8-2.6-1.3-.4-.2-.8-.5-1.2-.8-.2-.1-.4-.3-.6-.4l-.3-.2-.1-.1-.2-.1c-.8-.7-1.3-1.5-1.9-2.1-.5-.7-1.1-1.2-1.6-1.6l-1.3-.7 1.1-.9c1.2-1 2.5-2 3.8-2.9 1.3-.9 2.8-1.6 4.3-2.2 3-1.2 6.2-1.8 9.5-1.7 3.2.1 6.4.9 9.4 2.1 3 1.3 5.7 3 8.2 5.1l1.2 1-1.3 1c-.5.3-1 .6-1.4 1l-.6.6c-.2.2-.4.5-.6.7-.4.5-.8.9-1.3 1.2-.5.3-1.1.5-1.6.6l-1.8.3c-.6.1-1.1.3-1.7.5-.6.2-1.1.4-1.6.5l-1.7.5c-2.2.6-4.6 1-6.9 1.1-2.5 0-4.9-.3-7.2-1.2m1-2.7c1.9.7 4 1 6.1 1 2.1 0 4.2-.3 6.3-.9.5-.2 1-.3 1.5-.5l1.5-.6c.5-.2 1-.5 1.4-.8.4-.3.8-.7 1.3-1.1.8-.7 1.8-1.2 2.9-1.3.6-.1 1.1-.2 1.6-.4.3-.1.5-.3.7-.4l.7-.4-.1 1.9c-2.1-2.1-4.6-3.8-7.3-5-2.7-1.2-5.7-1.9-8.6-2-3-.1-5.9.4-8.7 1.5-1.4.5-2.7 1.2-4 2-1.3.8-2.5 1.7-3.5 2.8l-.2-1.6c1 .5 1.7 1.2 2.4 1.9.6.6 1.2 1.3 1.8 1.7l.1.1.1.1.3.2c.2.1.3.2.5.3.4.2.7.4 1.1.6.6.4 1.3.7 2.1.9"/></g></g><g><defs><path id="SVGID_11_" d="M0 0h154v55.9H0z"/></defs><clipPath id="SVGID_12_"><use xlink:href="#SVGID_11_" overflow="visible"/></clipPath><g clip-path="url(#SVGID_12_)"><defs><path id="SVGID_13_" d="M0 0h154v55.9H0z"/></defs><clipPath id="SVGID_14_"><use xlink:href="#SVGID_13_" overflow="visible"/></clipPath><defs><filter id="Adobe_OpacityMaskFilter" filterUnits="userSpaceOnUse" x="1.1" y="2.7" width="80" height="54"><feColorMatrix values="1 0 0 0 0 0 1 0 0 0 0 0 1 0 0 0 0 0 1 0"/></filter></defs><mask maskUnits="userSpaceOnUse" x="1.1" y="2.7" width="80" height="54" id="SVGID_15_"><g filter="url(#Adobe_OpacityMaskFilter)"><defs><path id="SVGID_16_" d="M1.7 3.5h78.8V56H1.7z"/></defs><clipPath id="SVGID_17_" clip-path="url(#SVGID_14_)"><use xlink:href="#SVGID_16_" overflow="visible"/></clipPath><path class="st10" d="M1.7 2.9h98.6V56H1.7z"/><g class="st11"><defs><path id="SVGID_18_" d="M1.7 2.9h98.6V56H1.7z"/></defs><clipPath id="SVGID_19_" class="st10"><use xlink:href="#SVGID_18_" overflow="visible"/></clipPath><path d="M151.3 9.2c-1-5.2-22.4-7.7-37.6-6.6-15.2 1.2-22.8 8.6-36.7 8.6-13.9 0-21.6-7.5-36.7-8.6C25.1 1.5 3.7 4 2.7 9.2c-1 5.2-2.3 34.4 17.8 42.1 10.9 4.1 23.9-2.9 33-6.2 6.8-2.5 13.8-6.1 23-6.1h1.1c9.2 0 14.7 3.1 23 6.1 7.3 2.6 22.1 10.3 33 6.2 20-7.7 18.7-36.9 17.7-42.1M24.7 27.9c19.1-19 37.1-1.3 37.1-1.3-13.4 19.6-37.1 1.3-37.1 1.3m67.5-1.3s18-17.7 37.1 1.3c0 0-23.7 18.3-37.1-1.3" clip-path="url(#SVGID_19_)" fill="#fff"/></g></g></mask><g clip-path="url(#SVGID_14_)" mask="url(#SVGID_15_)" enable-background="new"><defs><path id="SVGID_20_" d="M1.1 2.7h80v54h-80z"/></defs><clipPath id="SVGID_21_"><use xlink:href="#SVGID_20_" overflow="visible"/></clipPath><g clip-path="url(#SVGID_21_)"><defs><path id="SVGID_22_" d="M1.7 3.5h78.8V56H1.7z"/></defs><clipPath id="SVGID_23_"><use xlink:href="#SVGID_22_" overflow="visible"/></clipPath><path class="st15" d="M1.7 8.6C3.4 8 4.9 7.5 6.6 7c1.6-.5 3.2-1 4.9-1.4 3.3-.8 6.6-1.4 10-1.8 1.7-.2 3.4-.3 5.1-.3h2.5l2.5.1c3.3.1 6.7.3 10 .7 3.3.4 6.7.9 9.9 1.6 3.3.7 6.5 1.7 9.6 2.8 3.1 1.1 6.3 2.2 9.5 2.9 1.6.4 3.3.7 4.9.9 1.6.2 3.3.3 5 .4-1.7 0-3.3-.1-5-.2-1.7-.2-3.3-.4-5-.7-3.3-.6-6.5-1.6-9.7-2.6-3.2-1-6.4-1.8-9.6-2.4-3.2-.6-6.5-1-9.8-1.2-3.3-.2-6.6-.3-9.9-.3H29c-.8 0-1.6 0-2.4.1l-4.8.6c-3.2.5-6.4 1.3-9.6 2.2-1.6.5-3.1 1-4.7 1.5L3 11.7 1.7 8.6z"/><path class="st15" d="M2.3 11.6c.8-.3 1.6-.6 2.4-.8.8-.3 1.6-.5 2.4-.7 1.6-.5 3.2-.9 4.9-1.3 3.3-.8 6.6-1.4 9.9-1.7 1.7-.2 3.3-.3 5-.4 1.7-.1 3.3 0 5 0 3.3.1 6.6.2 9.9.5 3.3.3 6.6.7 9.9 1.3 3.3.6 6.5 1.4 9.7 2.3 3.2.9 6.3 1.8 9.5 2.5 1.6.3 3.2.6 4.9.8 1.6.2 3.3.4 4.9.5-1.6-.1-3.3-.2-4.9-.3-1.6-.2-3.3-.4-4.9-.7-3.3-.5-6.5-1.4-9.7-2.1-3.2-.8-6.4-1.5-9.6-1.9-3.2-.5-6.5-.7-9.8-.9-3.3-.1-6.5-.1-9.8-.1l-2.5.1c-.8 0-1.6.1-2.4.1-1.6.1-3.2.3-4.8.6-3.2.5-6.4 1.2-9.5 2.1-1.6.4-3.1.9-4.6 1.5-.8.3-1.5.5-2.3.8-.7.3-1.5.6-2.2.9l-1.4-3.1z"/><path class="st15" d="M2.8 14.5c.8-.3 1.6-.6 2.4-.8.8-.3 1.6-.5 2.4-.7 1.6-.5 3.2-.9 4.8-1.2 3.2-.7 6.5-1.3 9.8-1.7 1.6-.2 3.3-.3 5-.4.8 0 1.7-.1 2.5-.1h2.5c3.3 0 6.6.1 9.8.3 1.6.1 3.3.3 4.9.4 1.6.2 3.3.4 4.9.7 3.2.5 6.4 1.3 9.6 2.1 3.2.8 6.3 1.6 9.5 2.1s6.5.8 9.7 1c-3.3 0-6.5-.2-9.8-.6-3.2-.4-6.5-1-9.7-1.7-3.2-.7-6.4-1.3-9.6-1.7-1.6-.2-3.2-.4-4.8-.5-1.6-.1-3.2-.2-4.9-.2-3.2-.1-6.5 0-9.7.1l-2.4.1c-.8 0-1.6.1-2.4.2-1.6.1-3.2.3-4.8.6-3.2.5-6.3 1.2-9.4 2.1-1.5.4-3.1.9-4.6 1.4-.8.3-1.5.5-2.3.8-.7.3-1.5.6-2.2.9l-1.2-3.2z"/><path class="st15" d="M3.4 17.4c.8-.3 1.6-.5 2.4-.8.8-.2 1.6-.5 2.3-.7 1.6-.4 3.1-.8 4.7-1.2 3.2-.7 6.4-1.3 9.6-1.6.8-.1 1.6-.2 2.4-.2.8-.1 1.6-.1 2.4-.2l2.4-.1H32c3.2 0 6.4 0 9.7.2 3.2.2 6.4.5 9.6 1 3.2.5 6.3 1.1 9.5 1.9 3.1.7 6.2 1.5 9.4 2 3.1.5 6.3.8 9.5.9-3.2.1-6.4-.1-9.6-.5-3.2-.4-6.3-1-9.5-1.6-3.1-.6-6.3-1.1-9.4-1.5-3.2-.4-6.3-.5-9.5-.6-3.2 0-6.4 0-9.5.2-3.2.1-6.3.5-9.4 1-3.1.5-6.2 1.2-9.2 2-1.5.4-3 .9-4.5 1.4-.7.3-1.5.5-2.2.8-.9.2-1.6.5-2.3.7l-1.2-3.1z"/><path class="st15" d="M3.9 20.4c.8-.3 1.5-.5 2.2-.7.7-.2 1.5-.4 2.2-.6 1.5-.4 2.9-.8 4.4-1.1 3-.7 6-1.2 9-1.6 3-.4 6-.6 9.1-.7 1.5 0 3-.1 4.5-.1H42.2c.8 0 1.5.1 2.3.1l4.5.3c3 .3 6 .9 8.9 1.5 2.9.6 5.8 1.3 8.8 1.7 3 .5 5.9.7 8.9.9-3-.1-6-.2-9-.5s-6-.8-8.9-1.3c-2.9-.5-5.9-.9-8.9-1.1-1.5-.1-3-.2-4.5-.1h-2.2l-2.2.1c-.7 0-1.5 0-2.2.1l-2.2.1-4.5.3c-3 .2-5.9.6-8.8 1.1-2.9.5-5.8 1.2-8.6 2-1.4.4-2.8.8-4.2 1.3-.7.2-1.4.5-2.1.7-.7.2-1.4.5-2 .8l-1.4-3.2z"/><path class="st15" d="M4.5 23.3c1.4-.5 2.8-.8 4.2-1.2 1.4-.4 2.8-.7 4.2-1 2.8-.6 5.6-1.1 8.5-1.5 2.8-.4 5.7-.7 8.5-.8l4.3-.2c1.4-.1 2.8-.1 4.3-.1h4.3c1.4.1 2.9.1 4.3.2 2.8.2 5.7.5 8.5.9 2.8.5 5.6 1.1 8.4 1.5 2.8.4 5.6.7 8.4.8-2.8 0-5.7-.1-8.5-.4-2.8-.3-5.6-.8-8.4-1.1-2.8-.3-5.6-.5-8.4-.5h-4.2c-1.4.1-2.8.1-4.2.2l-4.2.3-4.2.4c-2.8.3-5.6.7-8.3 1.2-2.8.5-5.5 1.1-8.2 1.9-1.4.4-2.7.8-4 1.2-1.3.4-2.7.9-3.9 1.3l-1.4-3.1z"/><path class="st15" d="M5 26.2c1.4-.4 2.8-.8 4.1-1.1 1.4-.3 2.8-.7 4.1-.9 2.8-.6 5.5-1 8.3-1.4 2.8-.4 5.6-.7 8.4-.9.7-.1 1.4-.1 2.1-.2.3 0 .7 0 1.1.1.4.1.7.3 1.1.3 1.4-.1 2.8-.2 4.2-.2 5.6-.2 11.2-.2 16.7.4 2.8.3 5.5.7 8.3 1 2.8.3 5.6.4 8.3.4-2.8.1-5.6.1-8.4 0-2.8-.1-5.6-.4-8.3-.6-5.5-.4-11.1-.1-16.6.4-1.4.1-2.8.3-4.1.4-.7.1-1.4.4-2.1 0-.2-.1-.4-.2-.5-.2h-.5c-.3 0-.7.1-1 .1-2.7.3-5.5.7-8.2 1.2-1.4.2-2.7.5-4.1.8-1.3.3-2.7.6-4 1-1.3.3-2.6.8-4 1.2-.7.2-1.3.4-1.9.7-.6.2-1.3.5-1.9.7L5 26.2z"/><path class="st15" d="M5.6 29.2c1.4-.4 2.7-.7 4-1 1.3-.3 2.7-.6 4-.9 2.7-.5 5.4-1 8.1-1.4.7-.1 1.4-.2 2-.3.7-.1 1.4-.2 2-.2.3 0 .7-.1 1-.1.3-.1.7-.1 1-.1.3 0 .7 0 1 .1.4.1.7.3 1.1.3 2.7-.3 5.4-.5 8.1-.7 5.4-.4 10.9-.5 16.3-.1 2.7.2 5.4.5 8.1.6 2.7.2 5.4.2 8.1.1-2.7.2-5.4.3-8.2.3-2.7 0-5.4-.2-8.1-.2-2.7-.1-5.4 0-8.1.2-1.3.1-2.7.2-4 .3-1.3.1-2.7.3-4 .4-2.7.3-5.4.7-8 1.1-.3.1-.7.2-1 .2h-.5c-.2 0-.3 0-.5-.1-.4-.1-.7-.3-1.1-.4h-.5l-.5.1c-.7.1-1.3.2-2 .3-.7.1-1.3.2-2 .3-1.3.2-2.6.5-4 .8l-3.9.9c-1.3.3-2.6.7-3.9 1.1-1.3.4-2.6.8-3.8 1.3l-.7-2.9z"/><path class="st15" d="M6.2 32.1c1.3-.4 2.6-.7 3.9-1 1.3-.3 2.6-.6 3.9-.8 2.6-.5 5.3-1 7.9-1.3 1.3-.2 2.6-.3 4-.5l2-.2c.3 0 .7-.1 1-.1.3 0 .7.2 1.1.4.2.1.3 0 .5 0l.5-.1 1-.1 2-.2c1.3-.1 2.6-.3 4-.4 5.3-.5 10.6-.7 15.9-.5 2.6.1 5.3.3 7.9.3 2.6 0 5.3 0 7.9-.1-2.6.3-5.3.4-7.9.5-2.7.1-5.3.1-7.9.1-2.6 0-5.3.2-7.9.4-1.3.1-2.6.2-3.9.4-1.3.2-2.6.3-3.9.5-1.3.2-2.6.3-3.9.5l-2 .3-1 .1-.5.1h-.5c-.2 0-.3-.1-.5-.1s-.3-.1-.5 0l-1 .2-1.9.3c-1.3.2-2.6.4-3.9.7-2.6.5-5.2 1.1-7.7 1.7-1.3.3-2.5.6-3.8 1-1.2.4-2.5.8-3.7 1.2l-1.1-3.3z"/><path class="st15" d="M6.8 35l3.9-.9c1.3-.3 2.6-.5 3.9-.8 2.6-.5 5.2-.9 7.8-1.3 2.6-.4 5.2-.7 7.8-1l1.9-.2c.3-.1.7 0 1 .1.3.1.7.1 1-.1.2-.1.3-.2.5-.2.2-.1.3-.1.5-.1l1-.1 1.9-.2c5.2-.5 10.4-.9 15.6-1 5.2-.1 10.4 0 15.6-.2-2.6.3-5.2.6-7.8.8-2.6.2-5.2.3-7.8.5-5.2.4-10.3 1.1-15.4 1.9l-1.9.3-1 .2c-.2 0-.3 0-.5.1h-2.5l-1.9.3c-2.6.4-5.1.9-7.7 1.4-2.5.5-5.1 1-7.6 1.6-1.3.3-2.5.6-3.8.9-1.2.3-2.5.7-3.7 1l-.8-3z"/><path class="st15" d="M7.3 37.9c2.6-.5 5.1-1 7.6-1.4 2.5-.4 5.1-.8 7.6-1.2 2.5-.4 5.1-.7 7.6-1.1l3.8-.5 1.9-.2 1-.1h1c.3 0 .6 0 1-.1.2 0 .3-.1.5-.2l.4-.4c.3-.3.6-.2.9-.3l1-.1c1.3-.1 2.6-.2 3.8-.4 2.6-.2 5.1-.4 7.7-.4l15.4-.2c-2.5.4-5.1.7-7.6 1l-7.6.8c-2.5.3-5.1.6-7.6 1-1.3.2-2.5.4-3.8.6-.6.1-1.3.3-1.9.3-.6 0-1.3.1-1.9.1-.6 0-1.3.1-1.9.2l-1.9.3-3.8.7c-2.5.5-5 .9-7.5 1.4-2.5.5-5 1-7.5 1.6-2.5.6-5 1.2-7.4 1.8l-.8-3.2z"/><path class="st15" d="M7.9 40.9c4.9-.8 9.8-1.6 14.8-2.4 4.9-.8 9.8-1.5 14.8-2.2 4.9-.7 9.9-1.2 14.8-1.9 1.2-.2 2.5-.3 3.7-.3 1.2-.1 2.5-.1 3.7-.2 2.5-.2 5-.3 7.5-.5-2.5.5-4.9.9-7.4 1.3l-3.7.6-1.8.3c-.6.1-1.2.3-1.8.4-.6.1-1.2.2-1.8.2l-1.9.1-1.8.1c-.6 0-1.2 0-1.9.1-2.5.4-4.9.9-7.3 1.3-4.9 1-9.7 2-14.6 3S13.5 42.9 8.6 44l-.7-3.1z"/><path class="st15" d="M8.6 43.8c2.4-.3 4.9-.6 7.3-1 2.4-.4 4.9-.7 7.3-1.1 4.9-.8 9.8-1.6 14.6-2.5 4.9-.8 9.8-1.7 14.7-2.5 4.9-.8 9.8-1.4 14.7-2-4.9.8-9.8 1.7-14.6 2.8-4.8 1.1-9.6 2.2-14.5 3.3-4.8 1.1-9.7 2.2-14.5 3.3-2.4.5-4.9 1.1-7.3 1.6-2.4.5-4.9 1-7.3 1.4l-.4-3.3z"/><path class="st15" d="M9.2 46.7c.5 0 1.2-.1 1.8-.1.6-.1 1.2-.1 1.8-.2 1.2-.1 2.4-.3 3.6-.5 2.4-.3 4.8-.7 7.3-1.1 4.8-.8 9.7-1.7 14.5-2.7 4.8-1 9.6-2 14.5-3 4.8-1 9.7-1.8 14.6-2.4-4.8.9-9.6 2-14.4 3.2-4.8 1.2-9.5 2.6-14.3 3.8-4.8 1.2-9.6 2.4-14.4 3.5-2.4.6-4.8 1.1-7.3 1.6-1.2.2-2.4.5-3.7.7-.6.1-1.2.2-1.9.3-.6.1-1.2.2-1.9.3l-.2-3.4z"/><path class="st15" d="M9.9 49.6H11.6c.6 0 1.2-.1 1.8-.1 1.2-.1 2.4-.2 3.6-.4 2.4-.3 4.8-.7 7.2-1.1 4.8-.9 9.6-1.9 14.4-3 4.8-1.1 9.5-2.4 14.3-3.6 2.4-.6 4.8-1.2 7.2-1.7 2.4-.5 4.8-.9 7.2-1.3-2.4.5-4.8 1.1-7.2 1.7-2.4.6-4.7 1.3-7.1 2.1-4.7 1.5-9.3 3-14.1 4.4-4.7 1.4-9.5 2.7-14.3 3.8-2.4.6-4.8 1.1-7.3 1.6-1.2.2-2.4.4-3.7.6-.6.1-1.2.2-1.9.3-.3 0-.6.1-1 .1h-1l.2-3.4z"/><path class="st15" d="M10.6 52.6h1.5c.6 0 1.1 0 1.7-.1 1.2-.1 2.3-.2 3.5-.3 2.3-.3 4.7-.7 7-1.1 2.3-.5 4.7-.9 7-1.5 2.3-.5 4.7-1.1 7-1.7 4.6-1.2 9.2-2.8 13.8-4.2 2.3-.7 4.6-1.4 7-1.9 2.3-.6 4.7-1.1 7.1-1.5-2.3.6-4.7 1.2-7 1.9s-4.6 1.5-6.8 2.3c-4.5 1.7-9 3.5-13.6 5s-9.2 2.9-14 4.1c-2.4.6-4.7 1.1-7.2 1.5-1.2.2-2.4.4-3.7.5-.6.1-1.2.1-1.9.2H9.9l.7-3.2z"/></g></g></g></g><g><defs><path id="SVGID_24_" d="M0 0h154v55.9H0z"/></defs><clipPath id="SVGID_25_"><use xlink:href="#SVGID_24_" overflow="visible"/></clipPath><g clip-path="url(#SVGID_25_)"><defs><path id="SVGID_26_" d="M0 0h154v55.9H0z"/></defs><clipPath id="SVGID_27_"><use xlink:href="#SVGID_26_" overflow="visible"/></clipPath><defs><filter id="Adobe_OpacityMaskFilter_1_" filterUnits="userSpaceOnUse" x="73.1" y="2.7" width="80" height="54"><feColorMatrix values="1 0 0 0 0 0 1 0 0 0 0 0 1 0 0 0 0 0 1 0"/></filter></defs><mask maskUnits="userSpaceOnUse" x="73.1" y="2.7" width="80" height="54" id="SVGID_28_"><g filter="url(#Adobe_OpacityMaskFilter_1_)"><defs><path id="SVGID_29_" d="M73.2 3.6h79v52.2h-79z"/></defs><clipPath id="SVGID_30_" class="st18"><use xlink:href="#SVGID_29_" overflow="visible"/></clipPath><path class="st19" d="M73.2 3.6h79v52.2h-79z"/><g class="st11"><defs><path id="SVGID_31_" d="M73.2 3.6h79v52.2h-79z"/></defs><clipPath id="SVGID_32_" class="st19"><use xlink:href="#SVGID_31_" overflow="visible"/></clipPath><path d="M22.1 51.3c10.9 4.1 25.6-3.6 33-6.2 8.3-2.9 13.8-6.1 23-6.1h1.1c9.2 0 16.3 3.6 23 6.1 9 3.3 22.1 10.3 33 6.2C155.3 43.6 154 14.4 153 9.2c-1-5.2-22.4-7.7-37.6-6.6-15.2 1.1-22.9 8.6-36.7 8.6S57.1 3.8 41.9 2.6C26.7 1.5 5.3 4 4.3 9.2c-1 5.2-2.3 34.4 17.8 42.1m71.8-24.7s18-17.7 37.1 1.3c-.1 0-23.8 18.3-37.1-1.3m-67.6 1.3c19.1-19 37.1-1.3 37.1-1.3-13.3 19.6-37.1 1.3-37.1 1.3" clip-path="url(#SVGID_32_)" fill="#fff"/></g></g></mask><g clip-path="url(#SVGID_27_)" mask="url(#SVGID_28_)" enable-background="new"><defs><path id="SVGID_33_" d="M73.1 2.7h80v54h-80z"/></defs><clipPath id="SVGID_34_"><use xlink:href="#SVGID_33_" overflow="visible"/></clipPath><g clip-path="url(#SVGID_34_)"><defs><path id="SVGID_35_" d="M73.2 3.6h79v52.2h-79z"/></defs><clipPath id="SVGID_36_"><use xlink:href="#SVGID_35_" overflow="visible"/></clipPath><path class="st23" d="M152.2 8.8l-2.4-.9c-.8-.3-1.6-.5-2.4-.8-1.6-.5-3.2-.9-4.9-1.4-3.3-.8-6.6-1.5-10-1.9-1.7-.2-3.4-.3-5.2-.4h-2.6l-2.5.1c-3.4.1-6.8.3-10.1.7-3.4.4-6.7.9-10 1.6-3.3.7-6.5 1.7-9.6 2.8-3.1 1.1-6.2 2.2-9.4 2.9-1.6.4-3.2.7-4.9.9-1.7.2-3.3.3-5 .4 1.7 0 3.4-.1 5-.3 1.7-.2 3.3-.4 5-.7 3.3-.6 6.5-1.6 9.6-2.6 3.2-1 6.3-1.8 9.6-2.4 3.2-.6 6.5-1 9.9-1.2 3.3-.2 6.6-.3 10-.3h2.5c.8 0 1.6 0 2.4.1 1.6.1 3.2.3 4.9.6 3.2.5 6.4 1.3 9.5 2.2 1.6.5 3.1 1 4.6 1.5.8.3 1.5.5 2.2.8.7.3 1.5.6 2.2.9l1.6-2.6z"/><path class="st23" d="M151.7 11.8c-.8-.3-1.6-.6-2.4-.8-.8-.3-1.6-.5-2.4-.7-1.6-.5-3.2-.9-4.8-1.3-3.3-.8-6.6-1.4-9.9-1.8-1.7-.2-3.4-.3-5.1-.4h-5c-3.3.1-6.7.2-10 .4-3.3.3-6.7.7-9.9 1.3-3.3.6-6.5 1.4-9.6 2.3-3.1.9-6.3 1.8-9.5 2.5-1.6.3-3.2.6-4.9.8-1.6.2-3.3.4-4.9.5 1.7-.1 3.3-.2 5-.3 1.6-.2 3.3-.4 4.9-.7 3.3-.6 6.5-1.4 9.6-2.1 3.2-.8 6.4-1.5 9.6-1.9 3.2-.5 6.5-.7 9.8-.9 3.3-.1 6.6-.1 9.9-.1l2.5.1c.8 0 1.6.1 2.4.1 1.6.1 3.2.3 4.8.6 3.2.5 6.3 1.2 9.4 2.1 1.5.4 3.1.9 4.6 1.4.7.3 1.5.5 2.2.8.7.3 1.5.6 2.1.9l1.6-2.8z"/><path class="st23" d="M151.1 14.7c-.8-.3-1.6-.6-2.4-.8-.8-.3-1.6-.5-2.4-.7-1.6-.5-3.2-.9-4.8-1.3-3.2-.8-6.5-1.3-9.8-1.7-1.7-.2-3.3-.3-5-.4-.8 0-1.7-.1-2.5-.1h-2.5c-3.3 0-6.6.1-9.9.3-1.7.1-3.3.3-4.9.4-1.6.2-3.3.4-4.9.7-3.2.5-6.4 1.3-9.6 2.1-3.1.8-6.3 1.5-9.5 2.1-3.2.5-6.5.8-9.8 1 3.3-.1 6.6-.2 9.8-.6 3.3-.4 6.5-1 9.7-1.7 3.2-.7 6.4-1.3 9.6-1.7 1.6-.2 3.2-.4 4.8-.5 1.6-.1 3.2-.2 4.9-.2 3.3-.1 6.5-.1 9.8.1l2.4.1c.8 0 1.6.1 2.4.2 1.6.1 3.2.3 4.8.6 3.2.5 6.3 1.2 9.3 2.1 1.5.4 3 .9 4.5 1.4.7.3 1.5.5 2.2.8.7.3 1.5.6 2.1.8l1.7-3z"/><path class="st23" d="M150.6 17.6c-.8-.3-1.6-.5-2.3-.8-.8-.2-1.6-.5-2.3-.7-1.6-.4-3.1-.8-4.7-1.2-3.2-.7-6.4-1.3-9.6-1.7-1.6-.2-3.3-.3-4.9-.4-.8 0-1.6-.1-2.5-.1l-2.4-.1c-3.2 0-6.5 0-9.7.2-3.2.2-6.5.5-9.7 1-3.2.5-6.3 1.1-9.4 1.9-3.1.7-6.2 1.5-9.3 2-3.1.5-6.4.8-9.6.9 3.2.1 6.5-.1 9.6-.5 3.2-.4 6.3-1.1 9.5-1.7 3.1-.6 6.3-1.1 9.4-1.5 3.2-.4 6.4-.5 9.5-.6 3.2-.1 6.4 0 9.6.2l2.4.1c.8.1 1.6.1 2.4.2 1.6.2 3.1.4 4.7.6 3.1.5 6.2 1.2 9.2 2 1.5.4 3 .9 4.5 1.3.7.2 1.5.5 2.2.8.7.3 1.5.5 2.1.8l1.3-2.7z"/><path class="st23" d="M150 20.6c-.8-.3-1.5-.5-2.2-.7-.7-.2-1.5-.4-2.2-.6-1.5-.4-2.9-.8-4.4-1.1-3-.7-6-1.2-9-1.6-3-.4-6.1-.6-9.1-.8-3-.1-6.1-.2-9.1-.2s-6.1.2-9.1.5-6 .8-8.9 1.5c-2.9.6-5.8 1.3-8.8 1.7-3 .4-5.9.7-9 .9 3-.1 6-.2 9-.5s6-.8 8.9-1.4c2.9-.5 5.9-.9 8.9-1.1 3-.2 6-.2 8.9-.1 3 .1 6 .3 9 .5s5.9.6 8.8 1.1c2.9.5 5.8 1.2 8.6 1.9l4.2 1.2c.7.2 1.4.5 2 .7.7.2 1.4.5 2 .7l1.5-2.6z"/><path class="st23" d="M149.5 23.5l-2.1-.6-2.1-.6c-1.4-.4-2.8-.7-4.2-1-2.8-.6-5.6-1.1-8.5-1.5-2.9-.4-5.7-.7-8.6-.9-2.9-.2-5.7-.3-8.6-.3-5.7-.1-11.5.1-17.1 1.1-2.8.5-5.6 1.1-8.4 1.5-2.8.4-5.6.7-8.5.8 2.8 0 5.7-.1 8.5-.4 2.8-.3 5.6-.8 8.4-1.1 5.6-.7 11.3-.7 16.9-.3 2.8.2 5.6.4 8.4.7 2.8.3 5.6.7 8.3 1.2 2.7.5 5.4 1.1 8.1 1.8 1.3.4 2.7.7 4 1.1.7.2 1.3.4 1.9.6.6.2 1.3.4 1.9.7l1.7-2.8z"/><path class="st23" d="M148.9 26.4l-2.1-.6c-.7-.2-1.4-.4-2-.5-1.4-.3-2.7-.7-4.1-.9-2.8-.6-5.5-1.1-8.3-1.5-2.8-.4-5.6-.7-8.4-.9-.7-.1-1.4-.1-2.1-.2-.3 0-.7-.1-1.1 0-.4.1-.7.3-1.1.3-1.4-.1-2.8-.2-4.2-.2-1.4-.1-2.8-.1-4.2-.1h-4.2c-2.8 0-5.6.2-8.4.5-2.8.3-5.5.7-8.3 1-2.8.3-5.6.4-8.4.4 2.8.1 5.6.1 8.4-.1l8.4-.6c2.8-.2 5.5-.2 8.3-.1 1.4 0 2.8.1 4.1.2 1.4.1 2.8.2 4.1.3l2.1.2c.7.1 1.4.1 2.1.2.7.1 1.4.3 2.1-.1.2-.1.4-.1.5-.1h.5c.3 0 .7.1 1 .1 2.7.3 5.5.7 8.2 1.2 1.4.2 2.7.5 4 .8 1.3.3 2.7.6 4 1 1.3.3 2.6.7 3.9 1.1.6.2 1.3.4 1.9.6.6.2 1.3.5 1.8.7l1.5-2.7z"/><path class="st23" d="M148.3 29.4c-.7-.2-1.3-.4-2-.6-.7-.2-1.3-.3-2-.5-1.3-.3-2.7-.6-4-.9-2.7-.5-5.4-1-8.1-1.4-1.4-.2-2.7-.4-4.1-.5-.3 0-.7-.1-1-.1-.3 0-.7-.1-1-.2-.3 0-.7 0-1.1.1-.4.1-.7.2-1.1.3-1.4-.1-2.7-.2-4.1-.4-1.4-.1-2.7-.2-4.1-.3-1.4-.1-2.7-.2-4.1-.2-1.4 0-2.7-.1-4.1-.1-2.7 0-5.5 0-8.2.2-2.7.2-5.4.5-8.1.6-2.7.2-5.4.2-8.2.1 2.7.2 5.5.3 8.2.2 2.7 0 5.5-.2 8.2-.2 2.7-.1 5.4 0 8.1.2 1.3.1 2.7.2 4 .3 1.3.1 2.7.3 4 .4 2.7.3 5.4.7 8 1.1.7.1 1.3.3 2 .1.4-.1.7-.3 1.1-.3.3 0 .7.1 1 .1 1.3.2 2.7.4 4 .6 1.3.2 2.6.5 3.9.8l3.9.9c1.3.3 2.6.7 3.8 1.1.6.2 1.3.4 1.9.6.6.2 1.2.4 1.8.7l1.4-2.7z"/><path class="st23" d="M147.7 32.3c-.7-.2-1.3-.4-2-.5-.6-.2-1.3-.3-1.9-.5-1.3-.3-2.6-.6-3.9-.8-2.6-.5-5.2-1-7.9-1.3-1.3-.2-2.7-.3-4-.5l-2-.2-1-.1h-.5c-.2.1-.4.2-.5.2-.4.1-.7 0-1 0l-1-.1-2-.2c-1.3-.1-2.6-.3-4-.4-1.3-.1-2.7-.2-4-.3-1.3-.1-2.7-.2-4-.2-2.7-.1-5.3-.1-8 0s-5.3.3-8 .3-5.3 0-8-.1c2.6.2 5.3.4 8 .5 2.7.1 5.3 0 8 .1 2.6 0 5.3.2 7.9.4 1.3.1 2.6.2 3.9.4 1.3.2 2.6.3 3.9.5 1.3.2 2.6.3 3.9.5l2 .3c.3 0 .7.1 1 .1.3 0 .6.1 1 .1.7-.3 1.3 0 2 0l1.9.3c1.3.2 2.6.4 3.9.7 2.6.5 5.1 1 7.6 1.7 1.3.3 2.5.6 3.7 1l1.8.6 1.8.6 1.4-3.1z"/><path class="st23" d="M147.2 35.2l-3.9-.9c-1.3-.3-2.6-.5-3.9-.8-2.6-.5-5.2-.9-7.8-1.3-2.6-.4-5.2-.7-7.8-1l-2-.2h-.5c-.2 0-.3 0-.5.1-.3.1-.7.1-1-.1-.2-.1-.3-.2-.5-.2-.2-.1-.3-.1-.5-.1l-1-.1-2-.2c-1.3-.1-2.6-.3-3.9-.4l-3.9-.3c-1.3-.1-2.6-.2-3.9-.2-1.3-.1-2.6-.1-3.9-.1-5.2 0-10.5 0-15.7-.2 2.6.3 5.2.6 7.8.8 2.6.2 5.2.3 7.8.5 5.2.4 10.3 1 15.4 1.9l1.9.3c.6.1 1.3.3 1.9.2h1.5c.2 0 .3 0 .5.1.6.1 1.3.2 1.9.3 2.6.4 5.1.9 7.6 1.4 2.5.5 5 1 7.5 1.6 1.3.3 2.5.6 3.7.9 1.2.3 2.5.7 3.6 1l1.6-3z"/><path class="st23" d="M146.6 38.1c-2.6-.5-5.1-1-7.6-1.4-2.5-.4-5.1-.8-7.6-1.2-2.5-.4-5.1-.8-7.6-1.1l-3.8-.5-1.9-.2c-.6-.1-1.3-.2-1.9-.1-.7 0-1.3 0-1.8-.6-.1-.1-.3-.2-.4-.3-.2 0-.3 0-.5-.1l-1-.1c-1.3-.1-2.6-.3-3.9-.4-2.6-.2-5.2-.4-7.8-.5l-7.8-.2c-1.3 0-2.6 0-3.9-.1h-3.8c2.5.4 5.1.7 7.6 1l7.7.8c2.5.3 5.1.6 7.6 1 1.3.2 2.5.4 3.8.6.6.1 1.2.2 1.9.3.6 0 1.3.1 1.9.1.6 0 1.3.1 1.9.2l1.9.3 3.8.7c2.5.5 5 .9 7.5 1.4l7.5 1.5c2.5.6 4.9 1.1 7.3 1.8l.9-2.9z"/><path class="st23" d="M145.9 41c-4.9-.8-9.8-1.6-14.8-2.4-4.9-.8-9.8-1.5-14.8-2.3-4.9-.7-9.9-1.3-14.9-1.9-1.2-.2-2.5-.3-3.7-.3-1.3-.1-2.5-.2-3.7-.2l-7.5-.6c2.4.4 4.9.9 7.4 1.3 1.2.2 2.5.4 3.7.6l1.8.3c.6.1 1.2.3 1.8.4.6.1 1.2.2 1.8.2l1.9.1 1.9.1h.9c.3 0 .6 0 .9.1 2.5.4 4.9.9 7.3 1.3 4.9 1 9.7 2 14.6 3s9.7 2.1 14.5 3.2l.9-2.9zM145.3 44c-2.4-.3-4.9-.7-7.3-1-2.4-.4-4.9-.8-7.3-1.2-4.9-.8-9.8-1.6-14.6-2.5-4.9-.9-9.8-1.8-14.7-2.6-4.9-.8-9.8-1.4-14.8-2 4.9.8 9.8 1.7 14.6 2.7 4.8 1 9.6 2.2 14.4 3.3 4.8 1.1 9.6 2.2 14.5 3.3 2.4.5 4.8 1 7.3 1.5 2.4.5 4.9 1 7.4 1.4l.5-2.9zM144.6 46.9c-.2 0-.6 0-.9-.1l-.9-.1c-.6-.1-1.2-.1-1.8-.2-1.2-.1-2.4-.3-3.6-.5-2.4-.3-4.9-.7-7.3-1.1-4.8-.8-9.7-1.8-14.5-2.7-4.8-1-9.6-2-14.5-3-4.8-1-9.7-1.8-14.6-2.5 4.8.9 9.7 2 14.4 3.2 4.7 1.2 9.5 2.5 14.2 3.8 4.8 1.2 9.5 2.4 14.4 3.5 2.4.5 4.8 1.1 7.3 1.5 1.2.2 2.4.5 3.7.7.6.1 1.2.2 1.9.3l.9.1c.3 0 .6.1 1 .1l.3-3z"/><path class="st23" d="M143.9 49.8H142.2c-.6 0-1.2-.1-1.8-.1-1.2-.1-2.4-.2-3.6-.4-2.4-.3-4.8-.7-7.2-1.1-4.8-.9-9.6-1.9-14.4-3-4.8-1.1-9.5-2.4-14.2-3.7-2.4-.6-4.8-1.2-7.2-1.7-2.4-.5-4.8-.9-7.3-1.3 2.4.5 4.8 1.1 7.2 1.7 2.4.6 4.7 1.3 7 2 4.6 1.5 9.3 3 14 4.4 4.7 1.4 9.4 2.7 14.3 3.8 2.4.6 4.8 1.1 7.3 1.6 1.2.2 2.5.4 3.7.6.6.1 1.3.2 1.9.3.3 0 .6.1 1 .1h1.1l-.1-3.2z"/><path class="st23" d="M143.1 52.8h-.1-3.2c-1.2-.1-2.3-.2-3.5-.3-2.4-.3-4.7-.7-7.1-1.1-1.2-.2-2.4-.5-3.5-.7l-1.8-.4-1.8-.4c-2.3-.5-4.7-1.1-7-1.8-4.6-1.2-9.1-2.8-13.7-4.2-2.3-.7-4.6-1.4-7-1.9-2.4-.6-4.7-1.1-7.1-1.5 2.3.6 4.7 1.2 7 1.9s4.5 1.5 6.8 2.3c4.4 1.7 8.9 3.4 13.4 4.9 4.6 1.5 9.2 2.9 13.9 4.1 2.4.6 4.8 1.1 7.2 1.5 1.2.2 2.5.4 3.7.6l1 .1 1 .1h2.2l-.4-3.2z"/></g></g><path class="st18" d="M130.2 27.3c-.7-4.2-7.3-8.2-11.7-9.4-9.2-2.5-20.8 2.5-27.4 7.6 5.4 8.9 14.4 13.3 26.7 9.4 3.4-1.1 6.6-2.6 9.5-4.4.8-.5 2.6-1.3 3-2 .5-1.1.1-.2-.1-1.2m-27.8 6.1c-1.6-.6-3.1-1.4-4.4-2.4-1.3-1-2.4-3-3.9-3.7 10.4-9.6 23.9-8.2 33.6.5-6.8 4.5-16.8 8.7-25.3 5.6M25.3 28.4c.4.7 2.2 1.5 3 2 2.9 1.8 6.1 3.3 9.5 4.4 12.3 3.9 21.3-.4 26.7-9.4-6.7-5.1-18.2-10.1-27.4-7.6-4.4 1.2-11 5.2-11.7 9.4-.1 1.1-.6.2-.1 1.2m2.7-.6c9.7-8.7 23.2-10.1 33.6-.5-1.5.7-2.6 2.7-3.9 3.7-1.3 1-2.8 1.9-4.4 2.4-8.6 3.1-18.6-1.1-25.3-5.6M2.4 11.6s.2 24.4 8.1 32.2c7.8 7.8 0-.5-1.1-6.6S7.3 11.5 7.3 11.5H2.4zM151.6 11.6s-.2 24.4-8.1 32.2c-7.8 7.8 0-.5 1.1-6.6s2.1-25.7 2.1-25.7h4.9z"/></g></g></svg>
